<?xml version="1.0" encoding="UTF-8" standalone="no"?>
<!-- Created with Inkscape (http://www.inkscape.org/) -->
<svg
   xmlns:dc="http://purl.org/dc/elements/1.1/"
   xmlns:cc="http://creativecommons.org/ns#"
   xmlns:rdf="http://www.w3.org/1999/02/22-rdf-syntax-ns#"
   xmlns:svg="http://www.w3.org/2000/svg"
   xmlns="http://www.w3.org/2000/svg"
   xmlns:sodipodi="http://sodipodi.sourceforge.net/DTD/sodipodi-0.dtd"
   xmlns:inkscape="http://www.inkscape.org/namespaces/inkscape"
   id="svg2"
   sodipodi:version="0.32"
   inkscape:version="0.46"
   width="962.34698"
   height="509.42252"
   xml:space="preserve"
   sodipodi:docname="LinearPD_LC_2.svg"
   version="1.0"
   inkscape:output_extension="org.inkscape.output.svg.inkscape"><metadata
     id="metadata7"><rdf:RDF><cc:Work
         rdf:about=""><dc:format>image/svg+xml</dc:format><dc:type
           rdf:resource="http://purl.org/dc/dcmitype/StillImage" /></cc:Work></rdf:RDF></metadata><defs
     id="defs5"><inkscape:perspective
       sodipodi:type="inkscape:persp3d"
       inkscape:vp_x="0 : 526.18109 : 1"
       inkscape:vp_y="0 : 1000 : 0"
       inkscape:vp_z="744.09448 : 526.18109 : 1"
       inkscape:persp3d-origin="372.04724 : 350.78739 : 1"
       id="perspective9" /></defs><sodipodi:namedview
     inkscape:window-height="480"
     inkscape:window-width="640"
     inkscape:pageshadow="2"
     inkscape:pageopacity="0.0"
     guidetolerance="10.0"
     gridtolerance="10.0"
     objecttolerance="10.0"
     borderopacity="1.0"
     bordercolor="#666666"
     pagecolor="#ffffff"
     id="base"
     showgrid="false"
     inkscape:zoom="0.68168067"
     inkscape:cx="526.25"
     inkscape:cy="371.875"
     inkscape:current-layer="g11" /><g
     id="g11"
     inkscape:groupmode="layer"
     inkscape:label="LinearPD_LC_2"
     transform="matrix(0,1.25,1.25,0,-45.416009,-118.55247)"><g
       id="g13"
       transform="scale(0.12,0.12)"><path
         d="M 1641,3058.92 L 1641,2422.92"
         style="fill:none;stroke:#0000ff;stroke-width:1;stroke-linecap:round;stroke-linejoin:round;stroke-miterlimit:10;stroke-dasharray:none;stroke-opacity:1"
         id="path15" /><path
         d="M 1641,1468.92 L 1641,2104.92"
         style="fill:none;stroke:#0000ff;stroke-width:1;stroke-linecap:round;stroke-linejoin:round;stroke-miterlimit:10;stroke-dasharray:none;stroke-opacity:1"
         id="path17" /><path
         d="M 1864,2422.92 L 1418,2422.92"
         style="fill:none;stroke:#0000ff;stroke-width:1;stroke-linecap:round;stroke-linejoin:round;stroke-miterlimit:10;stroke-dasharray:none;stroke-opacity:1"
         id="path19" /><path
         d="M 1864,2104.92 L 1418,2104.92"
         style="fill:none;stroke:#0000ff;stroke-width:1;stroke-linecap:round;stroke-linejoin:round;stroke-miterlimit:10;stroke-dasharray:none;stroke-opacity:1"
         id="path21" /><path
         d="M 1689,2692.92 L 1593,2788.92"
         style="fill:none;stroke:#0000ff;stroke-width:1;stroke-linecap:round;stroke-linejoin:round;stroke-miterlimit:10;stroke-dasharray:none;stroke-opacity:1"
         id="path23" /><path
         d="M 1603,3020.92 L 1680,3020.92 L 1680,3097.92 L 1603,3097.92 L 1603,3020.92 z"
         style="fill:#00ff00;fill-opacity:1;fill-rule:nonzero;stroke:none"
         id="path25" /><path
         d="M 1602,3019.92 L 1680,3019.92 L 1680,3097.92 L 1602,3097.92 L 1602,3019.92 z"
         style="fill:none;stroke:#0000ff;stroke-width:1;stroke-linecap:round;stroke-linejoin:round;stroke-miterlimit:10;stroke-dasharray:none;stroke-opacity:1"
         id="path27" /><path
         d="M 1603,1430.92 L 1680,1430.92 L 1680,1507.92 L 1603,1507.92 L 1603,1430.92 z"
         style="fill:#00ff00;fill-opacity:1;fill-rule:nonzero;stroke:none"
         id="path29" /><path
         d="M 1602,1429.92 L 1680,1429.92 L 1680,1507.92 L 1602,1507.92 L 1602,1429.92 z"
         style="fill:none;stroke:#0000ff;stroke-width:1;stroke-linecap:round;stroke-linejoin:round;stroke-miterlimit:10;stroke-dasharray:none;stroke-opacity:1"
         id="path31" /><g
         id="g33"
         transform="scale(8.33333,8.33333)"><text
           transform="matrix(0,1,0.9994203,0,248.16,248.631)"
           id="text35"><tspan
             style="font-size:17.09440994px;font-variant:normal;font-weight:normal;writing-mode:lr-tb;fill:#000000;fill-opacity:1;fill-rule:nonzero;stroke:none;font-family:Helvetica;-inkscape-font-specification:Helvetica"
             x="0 12.360035 23.760071"
             y="0"
             sodipodi:role="line"
             id="tspan37">CAP</tspan><tspan
             style="font-size:17.09440994px;font-variant:normal;font-weight:normal;writing-mode:lr-tb;fill:#000000;fill-opacity:1;fill-rule:nonzero;stroke:none;font-family:Helvetica;-inkscape-font-specification:Helvetica"
             x="0 4.6799994 17.040033 27.000053 39.360088"
             y="19.091066"
             sodipodi:role="line"
             id="tspan39">ID=Cs</tspan><tspan
             style="font-size:17.09440994px;font-variant:normal;font-weight:normal;writing-mode:lr-tb;fill:#000000;fill-opacity:1;fill-rule:nonzero;stroke:none;font-family:Helvetica;-inkscape-font-specification:Helvetica"
             x="0 12.360035 22.320055 31.800083 36.480083 45.96011 55.44014 64.920166 74.400192 79.080193 88.560226"
             y="38.182133"
             sodipodi:role="line"
             id="tspan41">C=0.1831 pF</tspan></text>
</g><path
         d="M 3868,3854.92 L 4027,3854.92"
         style="fill:none;stroke:#0000ff;stroke-width:1;stroke-linecap:round;stroke-linejoin:round;stroke-miterlimit:10;stroke-dasharray:none;stroke-opacity:1"
         id="path43" /><path
         d="M 4027,3694.92 L 4027,4013.92"
         style="fill:none;stroke:#0000ff;stroke-width:1;stroke-linecap:round;stroke-linejoin:round;stroke-miterlimit:10;stroke-dasharray:none;stroke-opacity:1"
         id="path45" /><path
         d="M 4106,3774.92 L 4106,3933.92"
         style="fill:none;stroke:#0000ff;stroke-width:1;stroke-linecap:round;stroke-linejoin:round;stroke-miterlimit:10;stroke-dasharray:none;stroke-opacity:1"
         id="path47" /><path
         d="M 4186,3822.92 L 4186,3885.92"
         style="fill:none;stroke:#0000ff;stroke-width:1;stroke-linecap:round;stroke-linejoin:round;stroke-miterlimit:10;stroke-dasharray:none;stroke-opacity:1"
         id="path49" /><path
         d="M 3830,3816.92 L 3907,3816.92 L 3907,3893.92 L 3830,3893.92 L 3830,3816.92 z"
         style="fill:#00ff00;fill-opacity:1;fill-rule:nonzero;stroke:none"
         id="path51" /><path
         d="M 3829,3815.92 L 3907,3815.92 L 3907,3893.92 L 3829,3893.92 L 3829,3815.92 z"
         style="fill:none;stroke:#0000ff;stroke-width:1;stroke-linecap:round;stroke-linejoin:round;stroke-miterlimit:10;stroke-dasharray:none;stroke-opacity:1"
         id="path53" /><path
         d="M 1959,6558.92 L 2118,6558.92"
         style="fill:none;stroke:#0000ff;stroke-width:1;stroke-linecap:round;stroke-linejoin:round;stroke-miterlimit:10;stroke-dasharray:none;stroke-opacity:1"
         id="path55" /><path
         d="M 2118,6398.92 L 2118,6717.92"
         style="fill:none;stroke:#0000ff;stroke-width:1;stroke-linecap:round;stroke-linejoin:round;stroke-miterlimit:10;stroke-dasharray:none;stroke-opacity:1"
         id="path57" /><path
         d="M 2198,6478.92 L 2198,6637.92"
         style="fill:none;stroke:#0000ff;stroke-width:1;stroke-linecap:round;stroke-linejoin:round;stroke-miterlimit:10;stroke-dasharray:none;stroke-opacity:1"
         id="path59" /><path
         d="M 2277,6526.92 L 2277,6589.92"
         style="fill:none;stroke:#0000ff;stroke-width:1;stroke-linecap:round;stroke-linejoin:round;stroke-miterlimit:10;stroke-dasharray:none;stroke-opacity:1"
         id="path61" /><path
         d="M 1921,6520.92 L 1998,6520.92 L 1998,6597.92 L 1921,6597.92 L 1921,6520.92 z"
         style="fill:#00ff00;fill-opacity:1;fill-rule:nonzero;stroke:none"
         id="path63" /><path
         d="M 1920,6519.92 L 1998,6519.92 L 1998,6597.92 L 1920,6597.92 L 1920,6519.92 z"
         style="fill:none;stroke:#0000ff;stroke-width:1;stroke-linecap:round;stroke-linejoin:round;stroke-miterlimit:10;stroke-dasharray:none;stroke-opacity:1"
         id="path65" /><path
         d="M 1959,3854.92 L 2277,3854.92"
         style="fill:none;stroke:#0000ff;stroke-width:1;stroke-linecap:round;stroke-linejoin:round;stroke-miterlimit:10;stroke-dasharray:none;stroke-opacity:1"
         id="path67" /><path
         d="M 3550,3854.92 L 3232,3854.92"
         style="fill:none;stroke:#0000ff;stroke-width:1;stroke-linecap:round;stroke-linejoin:round;stroke-miterlimit:10;stroke-dasharray:none;stroke-opacity:1"
         id="path69" /><path
         d="M 2277,3854.92 L 2293,3917.92"
         style="fill:none;stroke:#0000ff;stroke-width:1;stroke-linecap:round;stroke-linejoin:round;stroke-miterlimit:10;stroke-dasharray:none;stroke-opacity:1"
         id="path71" /><path
         d="M 2293,3917.92 L 2325,3981.92"
         style="fill:none;stroke:#0000ff;stroke-width:1;stroke-linecap:round;stroke-linejoin:round;stroke-miterlimit:10;stroke-dasharray:none;stroke-opacity:1"
         id="path73" /><path
         d="M 2325,3981.92 L 2389,4028.92"
         style="fill:none;stroke:#0000ff;stroke-width:1;stroke-linecap:round;stroke-linejoin:round;stroke-miterlimit:10;stroke-dasharray:none;stroke-opacity:1"
         id="path75" /><path
         d="M 2389,4028.92 L 2468,4044.92"
         style="fill:none;stroke:#0000ff;stroke-width:1;stroke-linecap:round;stroke-linejoin:round;stroke-miterlimit:10;stroke-dasharray:none;stroke-opacity:1"
         id="path77" /><path
         d="M 2468,4044.92 L 2548,4028.92"
         style="fill:none;stroke:#0000ff;stroke-width:1;stroke-linecap:round;stroke-linejoin:round;stroke-miterlimit:10;stroke-dasharray:none;stroke-opacity:1"
         id="path79" /><path
         d="M 2548,4028.92 L 2611,3981.92"
         style="fill:none;stroke:#0000ff;stroke-width:1;stroke-linecap:round;stroke-linejoin:round;stroke-miterlimit:10;stroke-dasharray:none;stroke-opacity:1"
         id="path81" /><path
         d="M 2611,3981.92 L 2643,3917.92"
         style="fill:none;stroke:#0000ff;stroke-width:1;stroke-linecap:round;stroke-linejoin:round;stroke-miterlimit:10;stroke-dasharray:none;stroke-opacity:1"
         id="path83" /><path
         d="M 2643,3917.92 L 2659,3854.92"
         style="fill:none;stroke:#0000ff;stroke-width:1;stroke-linecap:round;stroke-linejoin:round;stroke-miterlimit:10;stroke-dasharray:none;stroke-opacity:1"
         id="path85" /><path
         d="M 2659,3854.92 L 2659,3790.92"
         style="fill:none;stroke:#0000ff;stroke-width:1;stroke-linecap:round;stroke-linejoin:round;stroke-miterlimit:10;stroke-dasharray:none;stroke-opacity:1"
         id="path87" /><path
         d="M 2659,3790.92 L 2627,3726.92"
         style="fill:none;stroke:#0000ff;stroke-width:1;stroke-linecap:round;stroke-linejoin:round;stroke-miterlimit:10;stroke-dasharray:none;stroke-opacity:1"
         id="path89" /><path
         d="M 2627,3726.92 L 2595,3726.92"
         style="fill:none;stroke:#0000ff;stroke-width:1;stroke-linecap:round;stroke-linejoin:round;stroke-miterlimit:10;stroke-dasharray:none;stroke-opacity:1"
         id="path91" /><path
         d="M 2595,3726.92 L 2564,3790.92"
         style="fill:none;stroke:#0000ff;stroke-width:1;stroke-linecap:round;stroke-linejoin:round;stroke-miterlimit:10;stroke-dasharray:none;stroke-opacity:1"
         id="path93" /><path
         d="M 2564,3790.92 L 2564,3854.92"
         style="fill:none;stroke:#0000ff;stroke-width:1;stroke-linecap:round;stroke-linejoin:round;stroke-miterlimit:10;stroke-dasharray:none;stroke-opacity:1"
         id="path95" /><path
         d="M 2564,3854.92 L 2579,3917.92"
         style="fill:none;stroke:#0000ff;stroke-width:1;stroke-linecap:round;stroke-linejoin:round;stroke-miterlimit:10;stroke-dasharray:none;stroke-opacity:1"
         id="path97" /><path
         d="M 2579,3917.92 L 2611,3981.92"
         style="fill:none;stroke:#0000ff;stroke-width:1;stroke-linecap:round;stroke-linejoin:round;stroke-miterlimit:10;stroke-dasharray:none;stroke-opacity:1"
         id="path99" /><path
         d="M 2611,3981.92 L 2675,4028.92"
         style="fill:none;stroke:#0000ff;stroke-width:1;stroke-linecap:round;stroke-linejoin:round;stroke-miterlimit:10;stroke-dasharray:none;stroke-opacity:1"
         id="path101" /><path
         d="M 2675,4028.92 L 2754,4044.92"
         style="fill:none;stroke:#0000ff;stroke-width:1;stroke-linecap:round;stroke-linejoin:round;stroke-miterlimit:10;stroke-dasharray:none;stroke-opacity:1"
         id="path103" /><path
         d="M 3232,3854.92 L 3216,3917.92"
         style="fill:none;stroke:#0000ff;stroke-width:1;stroke-linecap:round;stroke-linejoin:round;stroke-miterlimit:10;stroke-dasharray:none;stroke-opacity:1"
         id="path105" /><path
         d="M 3216,3917.92 L 3184,3981.92"
         style="fill:none;stroke:#0000ff;stroke-width:1;stroke-linecap:round;stroke-linejoin:round;stroke-miterlimit:10;stroke-dasharray:none;stroke-opacity:1"
         id="path107" /><path
         d="M 3184,3981.92 L 3120,4028.92"
         style="fill:none;stroke:#0000ff;stroke-width:1;stroke-linecap:round;stroke-linejoin:round;stroke-miterlimit:10;stroke-dasharray:none;stroke-opacity:1"
         id="path109" /><path
         d="M 3120,4028.92 L 3041,4044.92"
         style="fill:none;stroke:#0000ff;stroke-width:1;stroke-linecap:round;stroke-linejoin:round;stroke-miterlimit:10;stroke-dasharray:none;stroke-opacity:1"
         id="path111" /><path
         d="M 3041,4044.92 L 2961,4028.92"
         style="fill:none;stroke:#0000ff;stroke-width:1;stroke-linecap:round;stroke-linejoin:round;stroke-miterlimit:10;stroke-dasharray:none;stroke-opacity:1"
         id="path113" /><path
         d="M 2961,4028.92 L 2898,3981.92"
         style="fill:none;stroke:#0000ff;stroke-width:1;stroke-linecap:round;stroke-linejoin:round;stroke-miterlimit:10;stroke-dasharray:none;stroke-opacity:1"
         id="path115" /><path
         d="M 2898,3981.92 L 2866,3917.92"
         style="fill:none;stroke:#0000ff;stroke-width:1;stroke-linecap:round;stroke-linejoin:round;stroke-miterlimit:10;stroke-dasharray:none;stroke-opacity:1"
         id="path117" /><path
         d="M 2866,3917.92 L 2850,3854.92"
         style="fill:none;stroke:#0000ff;stroke-width:1;stroke-linecap:round;stroke-linejoin:round;stroke-miterlimit:10;stroke-dasharray:none;stroke-opacity:1"
         id="path119" /><path
         d="M 2850,3854.92 L 2850,3790.92"
         style="fill:none;stroke:#0000ff;stroke-width:1;stroke-linecap:round;stroke-linejoin:round;stroke-miterlimit:10;stroke-dasharray:none;stroke-opacity:1"
         id="path121" /><path
         d="M 2850,3790.92 L 2882,3726.92"
         style="fill:none;stroke:#0000ff;stroke-width:1;stroke-linecap:round;stroke-linejoin:round;stroke-miterlimit:10;stroke-dasharray:none;stroke-opacity:1"
         id="path123" /><path
         d="M 2882,3726.92 L 2913,3726.92"
         style="fill:none;stroke:#0000ff;stroke-width:1;stroke-linecap:round;stroke-linejoin:round;stroke-miterlimit:10;stroke-dasharray:none;stroke-opacity:1"
         id="path125" /><path
         d="M 2913,3726.92 L 2945,3790.92"
         style="fill:none;stroke:#0000ff;stroke-width:1;stroke-linecap:round;stroke-linejoin:round;stroke-miterlimit:10;stroke-dasharray:none;stroke-opacity:1"
         id="path127" /><path
         d="M 2945,3790.92 L 2945,3854.92"
         style="fill:none;stroke:#0000ff;stroke-width:1;stroke-linecap:round;stroke-linejoin:round;stroke-miterlimit:10;stroke-dasharray:none;stroke-opacity:1"
         id="path129" /><path
         d="M 2945,3854.92 L 2929,3917.92"
         style="fill:none;stroke:#0000ff;stroke-width:1;stroke-linecap:round;stroke-linejoin:round;stroke-miterlimit:10;stroke-dasharray:none;stroke-opacity:1"
         id="path131" /><path
         d="M 2929,3917.92 L 2898,3981.92"
         style="fill:none;stroke:#0000ff;stroke-width:1;stroke-linecap:round;stroke-linejoin:round;stroke-miterlimit:10;stroke-dasharray:none;stroke-opacity:1"
         id="path133" /><path
         d="M 2898,3981.92 L 2834,4028.92"
         style="fill:none;stroke:#0000ff;stroke-width:1;stroke-linecap:round;stroke-linejoin:round;stroke-miterlimit:10;stroke-dasharray:none;stroke-opacity:1"
         id="path135" /><path
         d="M 2834,4028.92 L 2754,4044.92"
         style="fill:none;stroke:#0000ff;stroke-width:1;stroke-linecap:round;stroke-linejoin:round;stroke-miterlimit:10;stroke-dasharray:none;stroke-opacity:1"
         id="path137" /><path
         d="M 2214,3901.92 L 2118,3806.92"
         style="fill:none;stroke:#0000ff;stroke-width:1;stroke-linecap:round;stroke-linejoin:round;stroke-miterlimit:10;stroke-dasharray:none;stroke-opacity:1"
         id="path139" /><path
         d="M 1921,3816.92 L 1998,3816.92 L 1998,3893.92 L 1921,3893.92 L 1921,3816.92 z"
         style="fill:#00ff00;fill-opacity:1;fill-rule:nonzero;stroke:none"
         id="path141" /><path
         d="M 1920,3815.92 L 1998,3815.92 L 1998,3893.92 L 1920,3893.92 L 1920,3815.92 z"
         style="fill:none;stroke:#0000ff;stroke-width:1;stroke-linecap:round;stroke-linejoin:round;stroke-miterlimit:10;stroke-dasharray:none;stroke-opacity:1"
         id="path143" /><path
         d="M 3512,3816.92 L 3589,3816.92 L 3589,3893.92 L 3512,3893.92 L 3512,3816.92 z"
         style="fill:#00ff00;fill-opacity:1;fill-rule:nonzero;stroke:none"
         id="path145" /><path
         d="M 3511,3815.92 L 3589,3815.92 L 3589,3893.92 L 3511,3893.92 L 3511,3815.92 z"
         style="fill:none;stroke:#0000ff;stroke-width:1;stroke-linecap:round;stroke-linejoin:round;stroke-miterlimit:10;stroke-dasharray:none;stroke-opacity:1"
         id="path147" /><g
         id="g149"
         transform="scale(8.33333,8.33333)"><text
           transform="matrix(0,1,0.9994203,0,312.24,506.271)"
           id="text151"><tspan
             style="font-size:17.09440994px;font-variant:normal;font-weight:normal;writing-mode:lr-tb;fill:#000000;fill-opacity:1;fill-rule:nonzero;stroke:none;font-family:Helvetica;-inkscape-font-specification:Helvetica"
             x="0 4.6799994 17.040033"
             y="0"
             sodipodi:role="line"
             id="tspan153">IND</tspan><tspan
             style="font-size:17.09440994px;font-variant:normal;font-weight:normal;writing-mode:lr-tb;fill:#000000;fill-opacity:1;fill-rule:nonzero;stroke:none;font-family:Helvetica;-inkscape-font-specification:Helvetica"
             x="0 4.6799994 17.040033 27.000082 36.480083"
             y="19.091066"
             sodipodi:role="line"
             id="tspan155">ID=Lp</tspan><tspan
             style="font-size:17.09440994px;font-variant:normal;font-weight:normal;writing-mode:lr-tb;fill:#000000;fill-opacity:1;fill-rule:nonzero;stroke:none;font-family:Helvetica;-inkscape-font-specification:Helvetica"
             x="0 9.4799995 19.440048 28.920048 33.600048 43.080048 52.560043 62.040043 66.720047 76.200043"
             y="38.182133"
             sodipodi:role="line"
             id="tspan157">L=8.914 nH</tspan></text>
</g><path
         d="M 1323,4808.92 L 1323,5762.92"
         style="fill:none;stroke:#0000ff;stroke-width:1;stroke-linecap:round;stroke-linejoin:round;stroke-miterlimit:10;stroke-dasharray:none;stroke-opacity:1"
         id="path159" /><path
         d="M 1323,5762.92 L 1959,5762.92"
         style="fill:none;stroke:#0000ff;stroke-width:1;stroke-linecap:round;stroke-linejoin:round;stroke-miterlimit:10;stroke-dasharray:none;stroke-opacity:1"
         id="path161" /><path
         d="M 1959,5762.92 L 1959,4808.92"
         style="fill:none;stroke:#0000ff;stroke-width:1;stroke-linecap:round;stroke-linejoin:round;stroke-miterlimit:10;stroke-dasharray:none;stroke-opacity:1"
         id="path163" /><path
         d="M 1959,4808.92 L 1323,4808.92"
         style="fill:none;stroke:#0000ff;stroke-width:1;stroke-linecap:round;stroke-linejoin:round;stroke-miterlimit:10;stroke-dasharray:none;stroke-opacity:1"
         id="path165" /><path
         d="M 1641,4490.92 L 1641,4808.92"
         style="fill:none;stroke:#0000ff;stroke-width:1;stroke-linecap:round;stroke-linejoin:round;stroke-miterlimit:10;stroke-dasharray:none;stroke-opacity:1"
         id="path167" /><path
         d="M 1641,6080.92 L 1641,5762.92"
         style="fill:none;stroke:#0000ff;stroke-width:1;stroke-linecap:round;stroke-linejoin:round;stroke-miterlimit:10;stroke-dasharray:none;stroke-opacity:1"
         id="path169" /><g
         id="g171"
         transform="scale(8.33333,8.33333)"><text
           transform="matrix(0,1,0.9994403,0,192,546.231)"
           id="text173"><tspan
             style="font-size:16.85863495px;font-variant:normal;font-weight:normal;writing-mode:lr-tb;fill:#0000ff;fill-opacity:1;fill-rule:nonzero;stroke:none;font-family:Courier;-inkscape-font-specification:Courier"
             x="0 165.60069"
             y="0"
             sodipodi:role="line"
             id="tspan175">12</tspan></text>
</g><path
         d="M 1603,4452.92 L 1680,4452.92 L 1680,4529.92 L 1603,4529.92 L 1603,4452.92 z"
         style="fill:#00ff00;fill-opacity:1;fill-rule:nonzero;stroke:none"
         id="path177" /><path
         d="M 1602,4451.92 L 1680,4451.92 L 1680,4529.92 L 1602,4529.92 L 1602,4451.92 z"
         style="fill:none;stroke:#0000ff;stroke-width:1;stroke-linecap:round;stroke-linejoin:round;stroke-miterlimit:10;stroke-dasharray:none;stroke-opacity:1"
         id="path179" /><path
         d="M 1603,6043.92 L 1680,6043.92 L 1680,6119.92 L 1603,6119.92 L 1603,6043.92 z"
         style="fill:#00ff00;fill-opacity:1;fill-rule:nonzero;stroke:none"
         id="path181" /><path
         d="M 1602,6042.92 L 1680,6042.92 L 1680,6119.92 L 1602,6119.92 L 1602,6042.92 z"
         style="fill:none;stroke:#0000ff;stroke-width:1;stroke-linecap:round;stroke-linejoin:round;stroke-miterlimit:10;stroke-dasharray:none;stroke-opacity:1"
         id="path183" /><g
         id="g185"
         transform="scale(8.33333,8.33333)"><text
           transform="matrix(0,1,0.9994203,0,107.28,560.871)"
           id="text187"><tspan
             style="font-size:17.09440994px;font-variant:normal;font-weight:normal;writing-mode:lr-tb;fill:#000000;fill-opacity:1;fill-rule:nonzero;stroke:none;font-family:Helvetica;-inkscape-font-specification:Helvetica"
             x="0 11.400037 23.760071 35.16011 47.520142 58.920181"
             y="0"
             sodipodi:role="line"
             id="tspan189">SUBCKT</tspan><tspan
             style="font-size:17.09440994px;font-variant:normal;font-weight:normal;writing-mode:lr-tb;fill:#000000;fill-opacity:1;fill-rule:nonzero;stroke:none;font-family:Helvetica;-inkscape-font-specification:Helvetica"
             x="0 4.6799994 17.040033 27.000082 38.40012"
             y="19.091066"
             sodipodi:role="line"
             id="tspan191">ID=S1</tspan><tspan
             style="font-size:17.09440994px;font-variant:normal;font-weight:normal;writing-mode:lr-tb;fill:#000000;fill-opacity:1;fill-rule:nonzero;stroke:none;font-family:Helvetica;-inkscape-font-specification:Helvetica"
             x="0 12.360035 23.760071 34.320126 44.280174 50.280193 59.760193 63.600212 73.080208 82.560211 92.040207 97.680206 110.04024 113.88026 123.36026 132.84026 142.32025"
             y="38.182133"
             sodipodi:role="line"
             id="tspan193">NET=&quot;LinearDiode&quot;</tspan></text>
</g><path
         d="M 1641,831.922 L 1641,672.922"
         style="fill:none;stroke:#0000ff;stroke-width:1;stroke-linecap:round;stroke-linejoin:round;stroke-miterlimit:10;stroke-dasharray:none;stroke-opacity:1"
         id="path195" /><path
         d="M 1641,672.922 L 1482,513.922"
         style="fill:none;stroke:#0000ff;stroke-width:1;stroke-linecap:round;stroke-linejoin:round;stroke-miterlimit:10;stroke-dasharray:none;stroke-opacity:1"
         id="path197" /><path
         d="M 1482,513.922 L 1482,434.922"
         style="fill:none;stroke:#0000ff;stroke-width:1;stroke-linecap:round;stroke-linejoin:round;stroke-miterlimit:10;stroke-dasharray:none;stroke-opacity:1"
         id="path199" /><path
         d="M 1482,434.922 L 1800,434.922"
         style="fill:none;stroke:#0000ff;stroke-width:1;stroke-linecap:round;stroke-linejoin:round;stroke-miterlimit:10;stroke-dasharray:none;stroke-opacity:1"
         id="path201" /><path
         d="M 1800,434.922 L 1800,513.922"
         style="fill:none;stroke:#0000ff;stroke-width:1;stroke-linecap:round;stroke-linejoin:round;stroke-miterlimit:10;stroke-dasharray:none;stroke-opacity:1"
         id="path203" /><path
         d="M 1800,513.922 L 1641,672.922"
         style="fill:none;stroke:#0000ff;stroke-width:1;stroke-linecap:round;stroke-linejoin:round;stroke-miterlimit:10;stroke-dasharray:none;stroke-opacity:1"
         id="path205" /><path
         d="M 1603,794.922 L 1680,794.922 L 1680,871.922 L 1603,871.922 L 1603,794.922 z"
         style="fill:#00ff00;fill-opacity:1;fill-rule:nonzero;stroke:none"
         id="path207" /><path
         d="M 1602,793.922 L 1680,793.922 L 1680,871.922 L 1602,871.922 L 1602,793.922 z"
         style="fill:none;stroke:#0000ff;stroke-width:1;stroke-linecap:round;stroke-linejoin:round;stroke-miterlimit:10;stroke-dasharray:none;stroke-opacity:1"
         id="path209" /><g
         id="g211"
         transform="scale(8.33333,8.33333)"><text
           transform="matrix(0,1,0.9994203,0,126.36,35.9906)"
           id="text213"><tspan
             style="font-size:17.09440994px;font-variant:normal;font-weight:normal;writing-mode:lr-tb;fill:#000000;fill-opacity:1;fill-rule:nonzero;stroke:none;font-family:Helvetica;-inkscape-font-specification:Helvetica"
             x="0 11.400034 24.600073 36.960106"
             y="0"
             sodipodi:role="line"
             id="tspan215">PORT</tspan><tspan
             style="font-size:17.09440994px;font-variant:normal;font-weight:normal;writing-mode:lr-tb;fill:#000000;fill-opacity:1;fill-rule:nonzero;stroke:none;font-family:Helvetica;-inkscape-font-specification:Helvetica"
             x="0 11.400034 21.360064"
             y="19.091066"
             sodipodi:role="line"
             id="tspan217">P=1</tspan><tspan
             style="font-size:17.09440994px;font-variant:normal;font-weight:normal;writing-mode:lr-tb;fill:#000000;fill-opacity:1;fill-rule:nonzero;stroke:none;font-family:Helvetica;-inkscape-font-specification:Helvetica"
             x="0 10.440029 20.400061 29.880089 39.360115 44.040131 57.24017 66.720192"
             y="38.182133"
             sodipodi:role="line"
             id="tspan219">Z=50 Ohm</tspan></text>
</g><path
         d="M 1641,6080.92 L 1641,6558.92"
         style="fill:none;stroke:#ff0000;stroke-width:1;stroke-linecap:round;stroke-linejoin:round;stroke-miterlimit:10;stroke-dasharray:none;stroke-opacity:1"
         id="path221" /><path
         d="M 1641,6558.92 L 1959,6558.92"
         style="fill:none;stroke:#ff0000;stroke-width:1;stroke-linecap:round;stroke-linejoin:round;stroke-miterlimit:10;stroke-dasharray:none;stroke-opacity:1"
         id="path223" /><path
         d="M 3550,3854.92 L 3868,3854.92"
         style="fill:none;stroke:#ff0000;stroke-width:1;stroke-linecap:round;stroke-linejoin:round;stroke-miterlimit:10;stroke-dasharray:none;stroke-opacity:1"
         id="path225" /><path
         d="M 1641,4490.92 L 1641,3854.92"
         style="fill:none;stroke:#ff0000;stroke-width:1;stroke-linecap:round;stroke-linejoin:round;stroke-miterlimit:10;stroke-dasharray:none;stroke-opacity:1"
         id="path227" /><path
         d="M 1640,3904.92 C 1612,3904.92 1589,3881.92 1589,3853.92 C 1589,3824.92 1612,3801.92 1640,3801.92 C 1669,3801.92 1692,3824.92 1692,3853.92 C 1692,3881.92 1669,3904.92 1640,3904.92"
         style="fill:#00ff00;fill-opacity:1;fill-rule:nonzero;stroke:none"
         id="path229" /><path
         d="M 1640,3904.92 C 1612,3904.92 1589,3881.92 1589,3853.92 C 1589,3824.92 1612,3801.92 1640,3801.92 C 1669,3801.92 1692,3824.92 1692,3853.92 C 1692,3881.92 1669,3904.92 1640,3904.92 z"
         style="fill:none;stroke:#ff0000;stroke-width:1;stroke-linecap:round;stroke-linejoin:round;stroke-miterlimit:10;stroke-dasharray:none;stroke-opacity:1"
         id="path231" /><path
         d="M 1959,3854.92 L 1641,3854.92"
         style="fill:none;stroke:#ff0000;stroke-width:1;stroke-linecap:round;stroke-linejoin:round;stroke-miterlimit:10;stroke-dasharray:none;stroke-opacity:1"
         id="path233" /><path
         d="M 1640,3904.92 C 1612,3904.92 1589,3881.92 1589,3853.92 C 1589,3824.92 1612,3801.92 1640,3801.92 C 1669,3801.92 1692,3824.92 1692,3853.92 C 1692,3881.92 1669,3904.92 1640,3904.92"
         style="fill:#00ff00;fill-opacity:1;fill-rule:nonzero;stroke:none"
         id="path235" /><path
         d="M 1640,3904.92 C 1612,3904.92 1589,3881.92 1589,3853.92 C 1589,3824.92 1612,3801.92 1640,3801.92 C 1669,3801.92 1692,3824.92 1692,3853.92 C 1692,3881.92 1669,3904.92 1640,3904.92 z"
         style="fill:none;stroke:#ff0000;stroke-width:1;stroke-linecap:round;stroke-linejoin:round;stroke-miterlimit:10;stroke-dasharray:none;stroke-opacity:1"
         id="path237" /><path
         d="M 1641,3058.92 L 1641,3854.92"
         style="fill:none;stroke:#ff0000;stroke-width:1;stroke-linecap:round;stroke-linejoin:round;stroke-miterlimit:10;stroke-dasharray:none;stroke-opacity:1"
         id="path239" /><path
         d="M 1640,3904.92 C 1612,3904.92 1589,3881.92 1589,3853.92 C 1589,3824.92 1612,3801.92 1640,3801.92 C 1669,3801.92 1692,3824.92 1692,3853.92 C 1692,3881.92 1669,3904.92 1640,3904.92"
         style="fill:#00ff00;fill-opacity:1;fill-rule:nonzero;stroke:none"
         id="path241" /><path
         d="M 1640,3904.92 C 1612,3904.92 1589,3881.92 1589,3853.92 C 1589,3824.92 1612,3801.92 1640,3801.92 C 1669,3801.92 1692,3824.92 1692,3853.92 C 1692,3881.92 1669,3904.92 1640,3904.92 z"
         style="fill:none;stroke:#ff0000;stroke-width:1;stroke-linecap:round;stroke-linejoin:round;stroke-miterlimit:10;stroke-dasharray:none;stroke-opacity:1"
         id="path243" /><path
         d="M 1641,1468.92 L 1641,831.922"
         style="fill:none;stroke:#ff0000;stroke-width:1;stroke-linecap:round;stroke-linejoin:round;stroke-miterlimit:10;stroke-dasharray:none;stroke-opacity:1"
         id="path245" /><path
         d="M 1921,6520.92 L 1998,6520.92 L 1998,6597.92 L 1921,6597.92 L 1921,6520.92 z"
         style="fill:#00ff00;fill-opacity:1;fill-rule:nonzero;stroke:none"
         id="path247" /><path
         d="M 1920,6519.92 L 1998,6519.92 L 1998,6597.92 L 1920,6597.92 L 1920,6519.92 z"
         style="fill:none;stroke:#0000ff;stroke-width:1;stroke-linecap:round;stroke-linejoin:round;stroke-miterlimit:10;stroke-dasharray:none;stroke-opacity:1"
         id="path249" /><path
         d="M 1603,6043.92 L 1680,6043.92 L 1680,6119.92 L 1603,6119.92 L 1603,6043.92 z"
         style="fill:#00ff00;fill-opacity:1;fill-rule:nonzero;stroke:none"
         id="path251" /><path
         d="M 1602,6042.92 L 1680,6042.92 L 1680,6119.92 L 1602,6119.92 L 1602,6042.92 z"
         style="fill:none;stroke:#0000ff;stroke-width:1;stroke-linecap:round;stroke-linejoin:round;stroke-miterlimit:10;stroke-dasharray:none;stroke-opacity:1"
         id="path253" /><path
         d="M 1603,3020.92 L 1680,3020.92 L 1680,3097.92 L 1603,3097.92 L 1603,3020.92 z"
         style="fill:#00ff00;fill-opacity:1;fill-rule:nonzero;stroke:none"
         id="path255" /><path
         d="M 1602,3019.92 L 1680,3019.92 L 1680,3097.92 L 1602,3097.92 L 1602,3019.92 z"
         style="fill:none;stroke:#0000ff;stroke-width:1;stroke-linecap:round;stroke-linejoin:round;stroke-miterlimit:10;stroke-dasharray:none;stroke-opacity:1"
         id="path257" /><path
         d="M 1921,3816.92 L 1998,3816.92 L 1998,3893.92 L 1921,3893.92 L 1921,3816.92 z"
         style="fill:#00ff00;fill-opacity:1;fill-rule:nonzero;stroke:none"
         id="path259" /><path
         d="M 1920,3815.92 L 1998,3815.92 L 1998,3893.92 L 1920,3893.92 L 1920,3815.92 z"
         style="fill:none;stroke:#0000ff;stroke-width:1;stroke-linecap:round;stroke-linejoin:round;stroke-miterlimit:10;stroke-dasharray:none;stroke-opacity:1"
         id="path261" /><path
         d="M 1603,4452.92 L 1680,4452.92 L 1680,4529.92 L 1603,4529.92 L 1603,4452.92 z"
         style="fill:#00ff00;fill-opacity:1;fill-rule:nonzero;stroke:none"
         id="path263" /><path
         d="M 1602,4451.92 L 1680,4451.92 L 1680,4529.92 L 1602,4529.92 L 1602,4451.92 z"
         style="fill:none;stroke:#0000ff;stroke-width:1;stroke-linecap:round;stroke-linejoin:round;stroke-miterlimit:10;stroke-dasharray:none;stroke-opacity:1"
         id="path265" /><path
         d="M 3830,3816.92 L 3907,3816.92 L 3907,3893.92 L 3830,3893.92 L 3830,3816.92 z"
         style="fill:#00ff00;fill-opacity:1;fill-rule:nonzero;stroke:none"
         id="path267" /><path
         d="M 3829,3815.92 L 3907,3815.92 L 3907,3893.92 L 3829,3893.92 L 3829,3815.92 z"
         style="fill:none;stroke:#0000ff;stroke-width:1;stroke-linecap:round;stroke-linejoin:round;stroke-miterlimit:10;stroke-dasharray:none;stroke-opacity:1"
         id="path269" /><path
         d="M 3512,3816.92 L 3589,3816.92 L 3589,3893.92 L 3512,3893.92 L 3512,3816.92 z"
         style="fill:#00ff00;fill-opacity:1;fill-rule:nonzero;stroke:none"
         id="path271" /><path
         d="M 3511,3815.92 L 3589,3815.92 L 3589,3893.92 L 3511,3893.92 L 3511,3815.92 z"
         style="fill:none;stroke:#0000ff;stroke-width:1;stroke-linecap:round;stroke-linejoin:round;stroke-miterlimit:10;stroke-dasharray:none;stroke-opacity:1"
         id="path273" /><path
         d="M 1603,1430.92 L 1680,1430.92 L 1680,1507.92 L 1603,1507.92 L 1603,1430.92 z"
         style="fill:#00ff00;fill-opacity:1;fill-rule:nonzero;stroke:none"
         id="path275" /><path
         d="M 1602,1429.92 L 1680,1429.92 L 1680,1507.92 L 1602,1507.92 L 1602,1429.92 z"
         style="fill:none;stroke:#0000ff;stroke-width:1;stroke-linecap:round;stroke-linejoin:round;stroke-miterlimit:10;stroke-dasharray:none;stroke-opacity:1"
         id="path277" /><path
         d="M 1603,794.922 L 1680,794.922 L 1680,871.922 L 1603,871.922 L 1603,794.922 z"
         style="fill:#00ff00;fill-opacity:1;fill-rule:nonzero;stroke:none"
         id="path279" /><path
         d="M 1602,793.922 L 1680,793.922 L 1680,871.922 L 1602,871.922 L 1602,793.922 z"
         style="fill:none;stroke:#0000ff;stroke-width:1;stroke-linecap:round;stroke-linejoin:round;stroke-miterlimit:10;stroke-dasharray:none;stroke-opacity:1"
         id="path281" /></g></g></svg>