<?xml version="1.0" encoding="UTF-8" standalone="no"?>
<!-- Created with Inkscape (http://www.inkscape.org/) -->
<svg
   xmlns:dc="http://purl.org/dc/elements/1.1/"
   xmlns:cc="http://creativecommons.org/ns#"
   xmlns:rdf="http://www.w3.org/1999/02/22-rdf-syntax-ns#"
   xmlns:svg="http://www.w3.org/2000/svg"
   xmlns="http://www.w3.org/2000/svg"
   xmlns:xlink="http://www.w3.org/1999/xlink"
   xmlns:sodipodi="http://sodipodi.sourceforge.net/DTD/sodipodi-0.dtd"
   xmlns:inkscape="http://www.inkscape.org/namespaces/inkscape"
   id="svg2"
   sodipodi:version="0.32"
   inkscape:version="0.46"
   width="962.34698"
   height="557.1225"
   xml:space="preserve"
   sodipodi:docname="LinearPD_LC_1.svg"
   version="1.0"
   inkscape:output_extension="org.inkscape.output.svg.inkscape"><metadata
     id="metadata7"><rdf:RDF><cc:Work
         rdf:about=""><dc:format>image/svg+xml</dc:format><dc:type
           rdf:resource="http://purl.org/dc/dcmitype/StillImage" /></cc:Work></rdf:RDF></metadata><defs
     id="defs5"><inkscape:perspective
       sodipodi:type="inkscape:persp3d"
       inkscape:vp_x="0 : 526.18109 : 1"
       inkscape:vp_y="0 : 1000 : 0"
       inkscape:vp_z="744.09448 : 526.18109 : 1"
       inkscape:persp3d-origin="372.04724 : 350.78739 : 1"
       id="perspective9" /><inkscape:perspective
       id="perspective2669"
       inkscape:persp3d-origin="372.04724 : 350.78739 : 1"
       inkscape:vp_z="744.09448 : 526.18109 : 1"
       inkscape:vp_y="0 : 1000 : 0"
       inkscape:vp_x="0 : 526.18109 : 1"
       sodipodi:type="inkscape:persp3d" /><inkscape:perspective
       id="perspective2682"
       inkscape:persp3d-origin="372.04724 : 350.78739 : 1"
       inkscape:vp_z="744.09448 : 526.18109 : 1"
       inkscape:vp_y="0 : 1000 : 0"
       inkscape:vp_x="0 : 526.18109 : 1"
       sodipodi:type="inkscape:persp3d" /></defs><sodipodi:namedview
     inkscape:window-height="480"
     inkscape:window-width="640"
     inkscape:pageshadow="2"
     inkscape:pageopacity="0.0"
     guidetolerance="10.0"
     gridtolerance="10.0"
     objecttolerance="10.0"
     borderopacity="1.0"
     bordercolor="#666666"
     pagecolor="#ffffff"
     id="base"
     showgrid="false"
     inkscape:zoom="0.68168067"
     inkscape:cx="526.25"
     inkscape:cy="371.875"
     inkscape:current-layer="g11" /><g
     id="g11"
     inkscape:groupmode="layer"
     inkscape:label="LinearPD_LC_1"
     transform="matrix(0,1.25,1.25,0,-45.416009,-94.702483)"><g
       id="g13"
       transform="scale(0.12,0.12)"><path
         d="M 1800,6558.92 L 1959,6558.92"
         style="fill:none;stroke:#0000ff;stroke-width:1;stroke-linecap:round;stroke-linejoin:round;stroke-miterlimit:10;stroke-dasharray:none;stroke-opacity:1"
         id="path15" /><path
         d="M 1959,6398.92 L 1959,6717.92"
         style="fill:none;stroke:#0000ff;stroke-width:1;stroke-linecap:round;stroke-linejoin:round;stroke-miterlimit:10;stroke-dasharray:none;stroke-opacity:1"
         id="path17" /><path
         d="M 2039,6478.92 L 2039,6637.92"
         style="fill:none;stroke:#0000ff;stroke-width:1;stroke-linecap:round;stroke-linejoin:round;stroke-miterlimit:10;stroke-dasharray:none;stroke-opacity:1"
         id="path19" /><path
         d="M 2118,6526.92 L 2118,6589.92"
         style="fill:none;stroke:#0000ff;stroke-width:1;stroke-linecap:round;stroke-linejoin:round;stroke-miterlimit:10;stroke-dasharray:none;stroke-opacity:1"
         id="path21" /><path
         d="M 1762,6520.92 L 1839,6520.92 L 1839,6597.92 L 1762,6597.92 L 1762,6520.92 z"
         style="fill:#00ff00;fill-opacity:1;fill-rule:nonzero;stroke:none"
         id="path23" /><path
         d="M 1761,6519.92 L 1839,6519.92 L 1839,6597.92 L 1761,6597.92 L 1761,6519.92 z"
         style="fill:none;stroke:#0000ff;stroke-width:1;stroke-linecap:round;stroke-linejoin:round;stroke-miterlimit:10;stroke-dasharray:none;stroke-opacity:1"
         id="path25" /><path
         d="M 3550,1627.92 L 2913,1627.92"
         style="fill:none;stroke:#0000ff;stroke-width:1;stroke-linecap:round;stroke-linejoin:round;stroke-miterlimit:10;stroke-dasharray:none;stroke-opacity:1"
         id="path27" /><path
         d="M 1959,1627.92 L 2595,1627.92"
         style="fill:none;stroke:#0000ff;stroke-width:1;stroke-linecap:round;stroke-linejoin:round;stroke-miterlimit:10;stroke-dasharray:none;stroke-opacity:1"
         id="path29" /><path
         d="M 2913,1404.92 L 2913,1849.92"
         style="fill:none;stroke:#0000ff;stroke-width:1;stroke-linecap:round;stroke-linejoin:round;stroke-miterlimit:10;stroke-dasharray:none;stroke-opacity:1"
         id="path31" /><path
         d="M 2595,1404.92 L 2595,1849.92"
         style="fill:none;stroke:#0000ff;stroke-width:1;stroke-linecap:round;stroke-linejoin:round;stroke-miterlimit:10;stroke-dasharray:none;stroke-opacity:1"
         id="path33" /><path
         d="M 3184,1579.92 L 3279,1674.92"
         style="fill:none;stroke:#0000ff;stroke-width:1;stroke-linecap:round;stroke-linejoin:round;stroke-miterlimit:10;stroke-dasharray:none;stroke-opacity:1"
         id="path35" /><path
         d="M 3512,1589.92 L 3589,1589.92 L 3589,1666.92 L 3512,1666.92 L 3512,1589.92 z"
         style="fill:#00ff00;fill-opacity:1;fill-rule:nonzero;stroke:none"
         id="path37" /><path
         d="M 3511,1588.92 L 3589,1588.92 L 3589,1666.92 L 3511,1666.92 L 3511,1588.92 z"
         style="fill:none;stroke:#0000ff;stroke-width:1;stroke-linecap:round;stroke-linejoin:round;stroke-miterlimit:10;stroke-dasharray:none;stroke-opacity:1"
         id="path39" /><path
         d="M 1921,1589.92 L 1998,1589.92 L 1998,1666.92 L 1921,1666.92 L 1921,1589.92 z"
         style="fill:#00ff00;fill-opacity:1;fill-rule:nonzero;stroke:none"
         id="path41" /><path
         d="M 1920,1588.92 L 1998,1588.92 L 1998,1666.92 L 1920,1666.92 L 1920,1588.92 z"
         style="fill:none;stroke:#0000ff;stroke-width:1;stroke-linecap:round;stroke-linejoin:round;stroke-miterlimit:10;stroke-dasharray:none;stroke-opacity:1"
         id="path43" /><g
         id="g45"
         transform="scale(8.33333,8.33333)"><text
           transform="matrix(0,1,0.9994203,0,317.16,102.591)"
           id="text47"><tspan
             style="font-size:17.09440994px;font-variant:normal;font-weight:normal;writing-mode:lr-tb;fill:#000000;fill-opacity:1;fill-rule:nonzero;stroke:none;font-family:Helvetica;-inkscape-font-specification:Helvetica"
             x="0 12.360035 23.760071"
             y="0"
             sodipodi:role="line"
             id="tspan49">CAP</tspan><tspan
             style="font-size:17.09440994px;font-variant:normal;font-weight:normal;writing-mode:lr-tb;fill:#000000;fill-opacity:1;fill-rule:nonzero;stroke:none;font-family:Helvetica;-inkscape-font-specification:Helvetica"
             x="0 4.6800141 17.040049 27.000082 39.360119"
             y="19.091066"
             sodipodi:role="line"
             id="tspan51">ID=Cp</tspan></text>
</g><g
         id="g53"
         transform="scale(8.33333,8.33333)"><text
           transform="matrix(0,1,0.9994203,0,355.32,102.591)"
           id="text55"><tspan
             style="font-size:17.09440994px;font-variant:normal;font-weight:normal;writing-mode:lr-tb;fill:#0000ff;fill-opacity:1;fill-rule:nonzero;stroke:none;font-family:Helvetica;-inkscape-font-specification:Helvetica"
             x="0 12.360035 22.320068 31.800097 36.48011 45.96014 55.440166 60.120182 69.600212"
             y="0"
             sodipodi:role="line"
             id="tspan57">C=1.66 pF</tspan></text>
</g><path
         d="M 1482,2263.92 L 1482,2581.92"
         style="fill:none;stroke:#0000ff;stroke-width:1;stroke-linecap:round;stroke-linejoin:round;stroke-miterlimit:10;stroke-dasharray:none;stroke-opacity:1"
         id="path59" /><path
         d="M 1482,3854.92 L 1482,3535.92"
         style="fill:none;stroke:#0000ff;stroke-width:1;stroke-linecap:round;stroke-linejoin:round;stroke-miterlimit:10;stroke-dasharray:none;stroke-opacity:1"
         id="path61" /><path
         d="M 1482,2581.92 L 1418,2597.92"
         style="fill:none;stroke:#0000ff;stroke-width:1;stroke-linecap:round;stroke-linejoin:round;stroke-miterlimit:10;stroke-dasharray:none;stroke-opacity:1"
         id="path63" /><path
         d="M 1418,2597.92 L 1355,2629.92"
         style="fill:none;stroke:#0000ff;stroke-width:1;stroke-linecap:round;stroke-linejoin:round;stroke-miterlimit:10;stroke-dasharray:none;stroke-opacity:1"
         id="path65" /><path
         d="M 1355,2629.92 L 1307,2692.92"
         style="fill:none;stroke:#0000ff;stroke-width:1;stroke-linecap:round;stroke-linejoin:round;stroke-miterlimit:10;stroke-dasharray:none;stroke-opacity:1"
         id="path67" /><path
         d="M 1307,2692.92 L 1291,2772.92"
         style="fill:none;stroke:#0000ff;stroke-width:1;stroke-linecap:round;stroke-linejoin:round;stroke-miterlimit:10;stroke-dasharray:none;stroke-opacity:1"
         id="path69" /><path
         d="M 1291,2772.92 L 1307,2851.92"
         style="fill:none;stroke:#0000ff;stroke-width:1;stroke-linecap:round;stroke-linejoin:round;stroke-miterlimit:10;stroke-dasharray:none;stroke-opacity:1"
         id="path71" /><path
         d="M 1307,2851.92 L 1355,2915.92"
         style="fill:none;stroke:#0000ff;stroke-width:1;stroke-linecap:round;stroke-linejoin:round;stroke-miterlimit:10;stroke-dasharray:none;stroke-opacity:1"
         id="path73" /><path
         d="M 1355,2915.92 L 1418,2947.92"
         style="fill:none;stroke:#0000ff;stroke-width:1;stroke-linecap:round;stroke-linejoin:round;stroke-miterlimit:10;stroke-dasharray:none;stroke-opacity:1"
         id="path75" /><path
         d="M 1418,2947.92 L 1482,2963.92"
         style="fill:none;stroke:#0000ff;stroke-width:1;stroke-linecap:round;stroke-linejoin:round;stroke-miterlimit:10;stroke-dasharray:none;stroke-opacity:1"
         id="path77" /><path
         d="M 1482,2963.92 L 1546,2963.92"
         style="fill:none;stroke:#0000ff;stroke-width:1;stroke-linecap:round;stroke-linejoin:round;stroke-miterlimit:10;stroke-dasharray:none;stroke-opacity:1"
         id="path79" /><path
         d="M 1546,2963.92 L 1609,2931.92"
         style="fill:none;stroke:#0000ff;stroke-width:1;stroke-linecap:round;stroke-linejoin:round;stroke-miterlimit:10;stroke-dasharray:none;stroke-opacity:1"
         id="path81" /><path
         d="M 1609,2931.92 L 1609,2899.92"
         style="fill:none;stroke:#0000ff;stroke-width:1;stroke-linecap:round;stroke-linejoin:round;stroke-miterlimit:10;stroke-dasharray:none;stroke-opacity:1"
         id="path83" /><path
         d="M 1609,2899.92 L 1546,2867.92"
         style="fill:none;stroke:#0000ff;stroke-width:1;stroke-linecap:round;stroke-linejoin:round;stroke-miterlimit:10;stroke-dasharray:none;stroke-opacity:1"
         id="path85" /><path
         d="M 1546,2867.92 L 1482,2867.92"
         style="fill:none;stroke:#0000ff;stroke-width:1;stroke-linecap:round;stroke-linejoin:round;stroke-miterlimit:10;stroke-dasharray:none;stroke-opacity:1"
         id="path87" /><path
         d="M 1482,2867.92 L 1418,2883.92"
         style="fill:none;stroke:#0000ff;stroke-width:1;stroke-linecap:round;stroke-linejoin:round;stroke-miterlimit:10;stroke-dasharray:none;stroke-opacity:1"
         id="path89" /><path
         d="M 1418,2883.92 L 1355,2915.92"
         style="fill:none;stroke:#0000ff;stroke-width:1;stroke-linecap:round;stroke-linejoin:round;stroke-miterlimit:10;stroke-dasharray:none;stroke-opacity:1"
         id="path91" /><path
         d="M 1355,2915.92 L 1307,2979.92"
         style="fill:none;stroke:#0000ff;stroke-width:1;stroke-linecap:round;stroke-linejoin:round;stroke-miterlimit:10;stroke-dasharray:none;stroke-opacity:1"
         id="path93" /><path
         d="M 1307,2979.92 L 1291,3058.92"
         style="fill:none;stroke:#0000ff;stroke-width:1;stroke-linecap:round;stroke-linejoin:round;stroke-miterlimit:10;stroke-dasharray:none;stroke-opacity:1"
         id="path95" /><path
         d="M 1482,3535.92 L 1418,3520.92"
         style="fill:none;stroke:#0000ff;stroke-width:1;stroke-linecap:round;stroke-linejoin:round;stroke-miterlimit:10;stroke-dasharray:none;stroke-opacity:1"
         id="path97" /><path
         d="M 1418,3520.92 L 1355,3488.92"
         style="fill:none;stroke:#0000ff;stroke-width:1;stroke-linecap:round;stroke-linejoin:round;stroke-miterlimit:10;stroke-dasharray:none;stroke-opacity:1"
         id="path99" /><path
         d="M 1355,3488.92 L 1307,3424.92"
         style="fill:none;stroke:#0000ff;stroke-width:1;stroke-linecap:round;stroke-linejoin:round;stroke-miterlimit:10;stroke-dasharray:none;stroke-opacity:1"
         id="path101" /><path
         d="M 1307,3424.92 L 1291,3345.92"
         style="fill:none;stroke:#0000ff;stroke-width:1;stroke-linecap:round;stroke-linejoin:round;stroke-miterlimit:10;stroke-dasharray:none;stroke-opacity:1"
         id="path103" /><path
         d="M 1291,3345.92 L 1307,3265.92"
         style="fill:none;stroke:#0000ff;stroke-width:1;stroke-linecap:round;stroke-linejoin:round;stroke-miterlimit:10;stroke-dasharray:none;stroke-opacity:1"
         id="path105" /><path
         d="M 1307,3265.92 L 1355,3201.92"
         style="fill:none;stroke:#0000ff;stroke-width:1;stroke-linecap:round;stroke-linejoin:round;stroke-miterlimit:10;stroke-dasharray:none;stroke-opacity:1"
         id="path107" /><path
         d="M 1355,3201.92 L 1418,3170.92"
         style="fill:none;stroke:#0000ff;stroke-width:1;stroke-linecap:round;stroke-linejoin:round;stroke-miterlimit:10;stroke-dasharray:none;stroke-opacity:1"
         id="path109" /><path
         d="M 1418,3170.92 L 1482,3154.92"
         style="fill:none;stroke:#0000ff;stroke-width:1;stroke-linecap:round;stroke-linejoin:round;stroke-miterlimit:10;stroke-dasharray:none;stroke-opacity:1"
         id="path111" /><path
         d="M 1482,3154.92 L 1546,3154.92"
         style="fill:none;stroke:#0000ff;stroke-width:1;stroke-linecap:round;stroke-linejoin:round;stroke-miterlimit:10;stroke-dasharray:none;stroke-opacity:1"
         id="path113" /><path
         d="M 1546,3154.92 L 1609,3185.92"
         style="fill:none;stroke:#0000ff;stroke-width:1;stroke-linecap:round;stroke-linejoin:round;stroke-miterlimit:10;stroke-dasharray:none;stroke-opacity:1"
         id="path115" /><path
         d="M 1609,3185.92 L 1609,3217.92"
         style="fill:none;stroke:#0000ff;stroke-width:1;stroke-linecap:round;stroke-linejoin:round;stroke-miterlimit:10;stroke-dasharray:none;stroke-opacity:1"
         id="path117" /><path
         d="M 1609,3217.92 L 1546,3249.92"
         style="fill:none;stroke:#0000ff;stroke-width:1;stroke-linecap:round;stroke-linejoin:round;stroke-miterlimit:10;stroke-dasharray:none;stroke-opacity:1"
         id="path119" /><path
         d="M 1546,3249.92 L 1482,3249.92"
         style="fill:none;stroke:#0000ff;stroke-width:1;stroke-linecap:round;stroke-linejoin:round;stroke-miterlimit:10;stroke-dasharray:none;stroke-opacity:1"
         id="path121" /><path
         d="M 1482,3249.92 L 1418,3233.92"
         style="fill:none;stroke:#0000ff;stroke-width:1;stroke-linecap:round;stroke-linejoin:round;stroke-miterlimit:10;stroke-dasharray:none;stroke-opacity:1"
         id="path123" /><path
         d="M 1418,3233.92 L 1355,3201.92"
         style="fill:none;stroke:#0000ff;stroke-width:1;stroke-linecap:round;stroke-linejoin:round;stroke-miterlimit:10;stroke-dasharray:none;stroke-opacity:1"
         id="path125" /><path
         d="M 1355,3201.92 L 1307,3138.92"
         style="fill:none;stroke:#0000ff;stroke-width:1;stroke-linecap:round;stroke-linejoin:round;stroke-miterlimit:10;stroke-dasharray:none;stroke-opacity:1"
         id="path127" /><path
         d="M 1307,3138.92 L 1291,3058.92"
         style="fill:none;stroke:#0000ff;stroke-width:1;stroke-linecap:round;stroke-linejoin:round;stroke-miterlimit:10;stroke-dasharray:none;stroke-opacity:1"
         id="path129" /><path
         d="M 1434,2517.92 L 1530,2422.92"
         style="fill:none;stroke:#0000ff;stroke-width:1;stroke-linecap:round;stroke-linejoin:round;stroke-miterlimit:10;stroke-dasharray:none;stroke-opacity:1"
         id="path131" /><path
         d="M 1444,2225.92 L 1521,2225.92 L 1521,2302.92 L 1444,2302.92 L 1444,2225.92 z"
         style="fill:#00ff00;fill-opacity:1;fill-rule:nonzero;stroke:none"
         id="path133" /><path
         d="M 1443,2224.92 L 1521,2224.92 L 1521,2302.92 L 1443,2302.92 L 1443,2224.92 z"
         style="fill:none;stroke:#0000ff;stroke-width:1;stroke-linecap:round;stroke-linejoin:round;stroke-miterlimit:10;stroke-dasharray:none;stroke-opacity:1"
         id="path135" /><path
         d="M 1444,3816.92 L 1521,3816.92 L 1521,3893.92 L 1444,3893.92 L 1444,3816.92 z"
         style="fill:#00ff00;fill-opacity:1;fill-rule:nonzero;stroke:none"
         id="path137" /><path
         d="M 1443,3815.92 L 1521,3815.92 L 1521,3893.92 L 1443,3893.92 L 1443,3815.92 z"
         style="fill:none;stroke:#0000ff;stroke-width:1;stroke-linecap:round;stroke-linejoin:round;stroke-miterlimit:10;stroke-dasharray:none;stroke-opacity:1"
         id="path139" /><g
         id="g141"
         transform="scale(8.33333,8.33333)"><text
           transform="matrix(0,1,0.9994203,0,103.44,339.711)"
           id="text143"><tspan
             style="font-size:17.09440994px;font-variant:normal;font-weight:normal;writing-mode:lr-tb;fill:#000000;fill-opacity:1;fill-rule:nonzero;stroke:none;font-family:Helvetica;-inkscape-font-specification:Helvetica"
             x="0 4.6799994 17.040033"
             y="0"
             sodipodi:role="line"
             id="tspan145">IND</tspan><tspan
             style="font-size:17.09440994px;font-variant:normal;font-weight:normal;writing-mode:lr-tb;fill:#000000;fill-opacity:1;fill-rule:nonzero;stroke:none;font-family:Helvetica;-inkscape-font-specification:Helvetica"
             x="0 4.6799994 17.040033 27.000053 36.480083"
             y="19.091066"
             sodipodi:role="line"
             id="tspan147">ID=Ls</tspan></text>
</g><g
         id="g149"
         transform="scale(8.33333,8.33333)"><text
           transform="matrix(0,1,0.9994203,0,141.6,339.711)"
           id="text151"><tspan
             style="font-size:17.09440994px;font-variant:normal;font-weight:normal;writing-mode:lr-tb;fill:#0000ff;fill-opacity:1;fill-rule:nonzero;stroke:none;font-family:Helvetica;-inkscape-font-specification:Helvetica"
             x="0 9.4800282 19.440048 28.920076 38.400105 43.080105 52.560131 62.040161 66.720161 76.200188"
             y="0"
             sodipodi:role="line"
             id="tspan153">L=15.83 nH</tspan></text>
</g><path
         d="M 4027,1627.92 L 4186,1627.92"
         style="fill:none;stroke:#0000ff;stroke-width:1;stroke-linecap:round;stroke-linejoin:round;stroke-miterlimit:10;stroke-dasharray:none;stroke-opacity:1"
         id="path155" /><path
         d="M 4186,1468.92 L 4186,1786.92"
         style="fill:none;stroke:#0000ff;stroke-width:1;stroke-linecap:round;stroke-linejoin:round;stroke-miterlimit:10;stroke-dasharray:none;stroke-opacity:1"
         id="path157" /><path
         d="M 4265,1547.92 L 4265,1706.92"
         style="fill:none;stroke:#0000ff;stroke-width:1;stroke-linecap:round;stroke-linejoin:round;stroke-miterlimit:10;stroke-dasharray:none;stroke-opacity:1"
         id="path159" /><path
         d="M 4345,1595.92 L 4345,1659.92"
         style="fill:none;stroke:#0000ff;stroke-width:1;stroke-linecap:round;stroke-linejoin:round;stroke-miterlimit:10;stroke-dasharray:none;stroke-opacity:1"
         id="path161" /><path
         d="M 3989,1589.92 L 4066,1589.92 L 4066,1666.92 L 3989,1666.92 L 3989,1589.92 z"
         style="fill:#00ff00;fill-opacity:1;fill-rule:nonzero;stroke:none"
         id="path163" /><path
         d="M 3988,1588.92 L 4066,1588.92 L 4066,1666.92 L 3988,1666.92 L 3988,1588.92 z"
         style="fill:none;stroke:#0000ff;stroke-width:1;stroke-linecap:round;stroke-linejoin:round;stroke-miterlimit:10;stroke-dasharray:none;stroke-opacity:1"
         id="path165" /><path
         d="M 1164,4808.92 L 1164,5762.92"
         style="fill:none;stroke:#0000ff;stroke-width:1;stroke-linecap:round;stroke-linejoin:round;stroke-miterlimit:10;stroke-dasharray:none;stroke-opacity:1"
         id="path167" /><path
         d="M 1164,5762.92 L 1800,5762.92"
         style="fill:none;stroke:#0000ff;stroke-width:1;stroke-linecap:round;stroke-linejoin:round;stroke-miterlimit:10;stroke-dasharray:none;stroke-opacity:1"
         id="path169" /><path
         d="M 1800,5762.92 L 1800,4808.92"
         style="fill:none;stroke:#0000ff;stroke-width:1;stroke-linecap:round;stroke-linejoin:round;stroke-miterlimit:10;stroke-dasharray:none;stroke-opacity:1"
         id="path171" /><path
         d="M 1800,4808.92 L 1164,4808.92"
         style="fill:none;stroke:#0000ff;stroke-width:1;stroke-linecap:round;stroke-linejoin:round;stroke-miterlimit:10;stroke-dasharray:none;stroke-opacity:1"
         id="path173" /><path
         d="M 1482,4490.92 L 1482,4808.92"
         style="fill:none;stroke:#0000ff;stroke-width:1;stroke-linecap:round;stroke-linejoin:round;stroke-miterlimit:10;stroke-dasharray:none;stroke-opacity:1"
         id="path175" /><path
         d="M 1482,6080.92 L 1482,5762.92"
         style="fill:none;stroke:#0000ff;stroke-width:1;stroke-linecap:round;stroke-linejoin:round;stroke-miterlimit:10;stroke-dasharray:none;stroke-opacity:1"
         id="path177" /><g
         id="g179"
         transform="scale(8.33333,8.33333)"><text
           transform="matrix(0,1,0.9994403,0,172.92,546.231)"
           id="text181"><tspan
             style="font-size:16.85863495px;font-variant:normal;font-weight:normal;writing-mode:lr-tb;fill:#0000ff;fill-opacity:1;fill-rule:nonzero;stroke:none;font-family:Courier;-inkscape-font-specification:Courier"
             x="0 165.60069"
             y="0"
             sodipodi:role="line"
             id="tspan183">12</tspan></text>
</g><path
         d="M 1444,4452.92 L 1521,4452.92 L 1521,4529.92 L 1444,4529.92 L 1444,4452.92 z"
         style="fill:#00ff00;fill-opacity:1;fill-rule:nonzero;stroke:none"
         id="path185" /><path
         d="M 1443,4451.92 L 1521,4451.92 L 1521,4529.92 L 1443,4529.92 L 1443,4451.92 z"
         style="fill:none;stroke:#0000ff;stroke-width:1;stroke-linecap:round;stroke-linejoin:round;stroke-miterlimit:10;stroke-dasharray:none;stroke-opacity:1"
         id="path187" /><path
         d="M 1444,6043.92 L 1521,6043.92 L 1521,6119.92 L 1444,6119.92 L 1444,6043.92 z"
         style="fill:#00ff00;fill-opacity:1;fill-rule:nonzero;stroke:none"
         id="path189" /><path
         d="M 1443,6042.92 L 1521,6042.92 L 1521,6119.92 L 1443,6119.92 L 1443,6042.92 z"
         style="fill:none;stroke:#0000ff;stroke-width:1;stroke-linecap:round;stroke-linejoin:round;stroke-miterlimit:10;stroke-dasharray:none;stroke-opacity:1"
         id="path191" /><g
         id="g193"
         transform="scale(8.33333,8.33333)"><text
           transform="matrix(0,1,0.9994203,0,88.2,560.871)"
           id="text195"><tspan
             style="font-size:17.09440994px;font-variant:normal;font-weight:normal;writing-mode:lr-tb;fill:#000000;fill-opacity:1;fill-rule:nonzero;stroke:none;font-family:Helvetica;-inkscape-font-specification:Helvetica"
             x="0 11.400037 23.760071 35.16011 47.520142 58.920181"
             y="0"
             sodipodi:role="line"
             id="tspan197">SUBCKT</tspan><tspan
             style="font-size:17.09440994px;font-variant:normal;font-weight:normal;writing-mode:lr-tb;fill:#000000;fill-opacity:1;fill-rule:nonzero;stroke:none;font-family:Helvetica;-inkscape-font-specification:Helvetica"
             x="0 4.6799994 17.040033 27.000082 38.40012"
             y="19.091066"
             sodipodi:role="line"
             id="tspan199">ID=S1</tspan><tspan
             style="font-size:17.09440994px;font-variant:normal;font-weight:normal;writing-mode:lr-tb;fill:#000000;fill-opacity:1;fill-rule:nonzero;stroke:none;font-family:Helvetica;-inkscape-font-specification:Helvetica"
             x="0 12.360035 23.760071 34.320126 44.280174 50.280193 59.760193 63.600212 73.080208 82.560211 92.040207 97.680206 110.04024 113.88026 123.36026 132.84026 142.32025"
             y="38.182133"
             sodipodi:role="line"
             id="tspan201">NET=&quot;LinearDiode&quot;</tspan></text>
</g><path
         d="M 1482,831.922 L 1482,672.922"
         style="fill:none;stroke:#0000ff;stroke-width:1;stroke-linecap:round;stroke-linejoin:round;stroke-miterlimit:10;stroke-dasharray:none;stroke-opacity:1"
         id="path203" /><path
         d="M 1482,672.922 L 1323,513.922"
         style="fill:none;stroke:#0000ff;stroke-width:1;stroke-linecap:round;stroke-linejoin:round;stroke-miterlimit:10;stroke-dasharray:none;stroke-opacity:1"
         id="path205" /><path
         d="M 1323,513.922 L 1323,434.922"
         style="fill:none;stroke:#0000ff;stroke-width:1;stroke-linecap:round;stroke-linejoin:round;stroke-miterlimit:10;stroke-dasharray:none;stroke-opacity:1"
         id="path207" /><path
         d="M 1323,434.922 L 1641,434.922"
         style="fill:none;stroke:#0000ff;stroke-width:1;stroke-linecap:round;stroke-linejoin:round;stroke-miterlimit:10;stroke-dasharray:none;stroke-opacity:1"
         id="path209" /><path
         d="M 1641,434.922 L 1641,513.922"
         style="fill:none;stroke:#0000ff;stroke-width:1;stroke-linecap:round;stroke-linejoin:round;stroke-miterlimit:10;stroke-dasharray:none;stroke-opacity:1"
         id="path211" /><path
         d="M 1641,513.922 L 1482,672.922"
         style="fill:none;stroke:#0000ff;stroke-width:1;stroke-linecap:round;stroke-linejoin:round;stroke-miterlimit:10;stroke-dasharray:none;stroke-opacity:1"
         id="path213" /><path
         d="M 1444,794.922 L 1521,794.922 L 1521,871.922 L 1444,871.922 L 1444,794.922 z"
         style="fill:#00ff00;fill-opacity:1;fill-rule:nonzero;stroke:none"
         id="path215" /><path
         d="M 1443,793.922 L 1521,793.922 L 1521,871.922 L 1443,871.922 L 1443,793.922 z"
         style="fill:none;stroke:#0000ff;stroke-width:1;stroke-linecap:round;stroke-linejoin:round;stroke-miterlimit:10;stroke-dasharray:none;stroke-opacity:1"
         id="path217" /><g
         id="g219"
         transform="scale(8.33333,8.33333)"><text
           transform="matrix(0,1,0.9994203,0,107.28,35.9906)"
           id="text221"><tspan
             style="font-size:17.09440994px;font-variant:normal;font-weight:normal;writing-mode:lr-tb;fill:#000000;fill-opacity:1;fill-rule:nonzero;stroke:none;font-family:Helvetica;-inkscape-font-specification:Helvetica"
             x="0 11.400034 24.600073 36.960106"
             y="0"
             sodipodi:role="line"
             id="tspan223">PORT</tspan><tspan
             style="font-size:17.09440994px;font-variant:normal;font-weight:normal;writing-mode:lr-tb;fill:#000000;fill-opacity:1;fill-rule:nonzero;stroke:none;font-family:Helvetica;-inkscape-font-specification:Helvetica"
             x="0 11.400034 21.360064"
             y="19.091066"
             sodipodi:role="line"
             id="tspan225">P=1</tspan><tspan
             style="font-size:17.09440994px;font-variant:normal;font-weight:normal;writing-mode:lr-tb;fill:#000000;fill-opacity:1;fill-rule:nonzero;stroke:none;font-family:Helvetica;-inkscape-font-specification:Helvetica"
             x="0 10.440029 20.400061 29.880089 39.360115 44.040131 57.24017 66.720192"
             y="38.182133"
             sodipodi:role="line"
             id="tspan227">Z=50 Ohm</tspan></text>
</g><path
         d="M 1482,6558.92 L 1800,6558.92"
         style="fill:none;stroke:#ff0000;stroke-width:1;stroke-linecap:round;stroke-linejoin:round;stroke-miterlimit:10;stroke-dasharray:none;stroke-opacity:1"
         id="path229" /><path
         d="M 1482,6080.92 L 1482,6558.92"
         style="fill:none;stroke:#ff0000;stroke-width:1;stroke-linecap:round;stroke-linejoin:round;stroke-miterlimit:10;stroke-dasharray:none;stroke-opacity:1"
         id="path231" /><path
         d="M 1482,831.922 L 1482,1627.92"
         style="fill:none;stroke:#ff0000;stroke-width:1;stroke-linecap:round;stroke-linejoin:round;stroke-miterlimit:10;stroke-dasharray:none;stroke-opacity:1"
         id="path233" /><path
         d="M 1481,1678.92 C 1453,1678.92 1429,1654.92 1429,1626.92 C 1429,1597.92 1453,1574.92 1481,1574.92 C 1510,1574.92 1533,1597.92 1533,1626.92 C 1533,1654.92 1510,1678.92 1481,1678.92"
         style="fill:#00ff00;fill-opacity:1;fill-rule:nonzero;stroke:none"
         id="path235" /><path
         d="M 1481,1678.92 C 1453,1678.92 1429,1654.92 1429,1626.92 C 1429,1597.92 1453,1574.92 1481,1574.92 C 1510,1574.92 1533,1597.92 1533,1626.92 C 1533,1654.92 1510,1678.92 1481,1678.92 z"
         style="fill:none;stroke:#ff0000;stroke-width:1;stroke-linecap:round;stroke-linejoin:round;stroke-miterlimit:10;stroke-dasharray:none;stroke-opacity:1"
         id="path237" /><path
         d="M 1482,4490.92 L 1482,3854.92"
         style="fill:none;stroke:#ff0000;stroke-width:1;stroke-linecap:round;stroke-linejoin:round;stroke-miterlimit:10;stroke-dasharray:none;stroke-opacity:1"
         id="path239" /><path
         d="M 4027,1627.92 L 3550,1627.92"
         style="fill:none;stroke:#ff0000;stroke-width:1;stroke-linecap:round;stroke-linejoin:round;stroke-miterlimit:10;stroke-dasharray:none;stroke-opacity:1"
         id="path241" /><path
         d="M 1959,1627.92 L 1482,1627.92"
         style="fill:none;stroke:#ff0000;stroke-width:1;stroke-linecap:round;stroke-linejoin:round;stroke-miterlimit:10;stroke-dasharray:none;stroke-opacity:1"
         id="path243" /><path
         d="M 1481,1678.92 C 1453,1678.92 1429,1654.92 1429,1626.92 C 1429,1597.92 1453,1574.92 1481,1574.92 C 1510,1574.92 1533,1597.92 1533,1626.92 C 1533,1654.92 1510,1678.92 1481,1678.92"
         style="fill:#00ff00;fill-opacity:1;fill-rule:nonzero;stroke:none"
         id="path245" /><path
         d="M 1481,1678.92 C 1453,1678.92 1429,1654.92 1429,1626.92 C 1429,1597.92 1453,1574.92 1481,1574.92 C 1510,1574.92 1533,1597.92 1533,1626.92 C 1533,1654.92 1510,1678.92 1481,1678.92 z"
         style="fill:none;stroke:#ff0000;stroke-width:1;stroke-linecap:round;stroke-linejoin:round;stroke-miterlimit:10;stroke-dasharray:none;stroke-opacity:1"
         id="path247" /><path
         d="M 1482,2263.92 L 1482,1627.92"
         style="fill:none;stroke:#ff0000;stroke-width:1;stroke-linecap:round;stroke-linejoin:round;stroke-miterlimit:10;stroke-dasharray:none;stroke-opacity:1"
         id="path249" /><path
         d="M 1481,1678.92 C 1453,1678.92 1429,1654.92 1429,1626.92 C 1429,1597.92 1453,1574.92 1481,1574.92 C 1510,1574.92 1533,1597.92 1533,1626.92 C 1533,1654.92 1510,1678.92 1481,1678.92"
         style="fill:#00ff00;fill-opacity:1;fill-rule:nonzero;stroke:none"
         id="path251" /><path
         d="M 1481,1678.92 C 1453,1678.92 1429,1654.92 1429,1626.92 C 1429,1597.92 1453,1574.92 1481,1574.92 C 1510,1574.92 1533,1597.92 1533,1626.92 C 1533,1654.92 1510,1678.92 1481,1678.92 z"
         style="fill:none;stroke:#ff0000;stroke-width:1;stroke-linecap:round;stroke-linejoin:round;stroke-miterlimit:10;stroke-dasharray:none;stroke-opacity:1"
         id="path253" /><path
         d="M 1444,6043.92 L 1521,6043.92 L 1521,6119.92 L 1444,6119.92 L 1444,6043.92 z"
         style="fill:#00ff00;fill-opacity:1;fill-rule:nonzero;stroke:none"
         id="path255" /><path
         d="M 1443,6042.92 L 1521,6042.92 L 1521,6119.92 L 1443,6119.92 L 1443,6042.92 z"
         style="fill:none;stroke:#0000ff;stroke-width:1;stroke-linecap:round;stroke-linejoin:round;stroke-miterlimit:10;stroke-dasharray:none;stroke-opacity:1"
         id="path257" /><path
         d="M 1762,6520.92 L 1839,6520.92 L 1839,6597.92 L 1762,6597.92 L 1762,6520.92 z"
         style="fill:#00ff00;fill-opacity:1;fill-rule:nonzero;stroke:none"
         id="path259" /><path
         d="M 1761,6519.92 L 1839,6519.92 L 1839,6597.92 L 1761,6597.92 L 1761,6519.92 z"
         style="fill:none;stroke:#0000ff;stroke-width:1;stroke-linecap:round;stroke-linejoin:round;stroke-miterlimit:10;stroke-dasharray:none;stroke-opacity:1"
         id="path261" /><path
         d="M 1444,794.922 L 1521,794.922 L 1521,871.922 L 1444,871.922 L 1444,794.922 z"
         style="fill:#00ff00;fill-opacity:1;fill-rule:nonzero;stroke:none"
         id="path263" /><path
         d="M 1443,793.922 L 1521,793.922 L 1521,871.922 L 1443,871.922 L 1443,793.922 z"
         style="fill:none;stroke:#0000ff;stroke-width:1;stroke-linecap:round;stroke-linejoin:round;stroke-miterlimit:10;stroke-dasharray:none;stroke-opacity:1"
         id="path265" /><path
         d="M 1921,1589.92 L 1998,1589.92 L 1998,1666.92 L 1921,1666.92 L 1921,1589.92 z"
         style="fill:#00ff00;fill-opacity:1;fill-rule:nonzero;stroke:none"
         id="path267" /><path
         d="M 1920,1588.92 L 1998,1588.92 L 1998,1666.92 L 1920,1666.92 L 1920,1588.92 z"
         style="fill:none;stroke:#0000ff;stroke-width:1;stroke-linecap:round;stroke-linejoin:round;stroke-miterlimit:10;stroke-dasharray:none;stroke-opacity:1"
         id="path269" /><path
         d="M 1444,2225.92 L 1521,2225.92 L 1521,2302.92 L 1444,2302.92 L 1444,2225.92 z"
         style="fill:#00ff00;fill-opacity:1;fill-rule:nonzero;stroke:none"
         id="path271" /><path
         d="M 1443,2224.92 L 1521,2224.92 L 1521,2302.92 L 1443,2302.92 L 1443,2224.92 z"
         style="fill:none;stroke:#0000ff;stroke-width:1;stroke-linecap:round;stroke-linejoin:round;stroke-miterlimit:10;stroke-dasharray:none;stroke-opacity:1"
         id="path273" /><path
         d="M 1444,4452.92 L 1521,4452.92 L 1521,4529.92 L 1444,4529.92 L 1444,4452.92 z"
         style="fill:#00ff00;fill-opacity:1;fill-rule:nonzero;stroke:none"
         id="path275" /><path
         d="M 1443,4451.92 L 1521,4451.92 L 1521,4529.92 L 1443,4529.92 L 1443,4451.92 z"
         style="fill:none;stroke:#0000ff;stroke-width:1;stroke-linecap:round;stroke-linejoin:round;stroke-miterlimit:10;stroke-dasharray:none;stroke-opacity:1"
         id="path277" /><path
         d="M 1444,3816.92 L 1521,3816.92 L 1521,3893.92 L 1444,3893.92 L 1444,3816.92 z"
         style="fill:#00ff00;fill-opacity:1;fill-rule:nonzero;stroke:none"
         id="path279" /><path
         d="M 1443,3815.92 L 1521,3815.92 L 1521,3893.92 L 1443,3893.92 L 1443,3815.92 z"
         style="fill:none;stroke:#0000ff;stroke-width:1;stroke-linecap:round;stroke-linejoin:round;stroke-miterlimit:10;stroke-dasharray:none;stroke-opacity:1"
         id="path281" /><path
         d="M 3512,1589.92 L 3589,1589.92 L 3589,1666.92 L 3512,1666.92 L 3512,1589.92 z"
         style="fill:#00ff00;fill-opacity:1;fill-rule:nonzero;stroke:none"
         id="path283" /><path
         d="M 3511,1588.92 L 3589,1588.92 L 3589,1666.92 L 3511,1666.92 L 3511,1588.92 z"
         style="fill:none;stroke:#0000ff;stroke-width:1;stroke-linecap:round;stroke-linejoin:round;stroke-miterlimit:10;stroke-dasharray:none;stroke-opacity:1"
         id="path285" /><path
         d="M 3989,1589.92 L 4066,1589.92 L 4066,1666.92 L 3989,1666.92 L 3989,1589.92 z"
         style="fill:#00ff00;fill-opacity:1;fill-rule:nonzero;stroke:none"
         id="path287" /><path
         d="M 3988,1588.92 L 4066,1588.92 L 4066,1666.92 L 3988,1666.92 L 3988,1588.92 z"
         style="fill:none;stroke:#0000ff;stroke-width:1;stroke-linecap:round;stroke-linejoin:round;stroke-miterlimit:10;stroke-dasharray:none;stroke-opacity:1"
         id="path289" /></g><image
       y="211.57735"
       x="306.48666"
       id="image2684"
       height="263"
       width="192"
       sodipodi:absref="C:\Documents and Settings\Lorenzo\Desktop\SCAF\Relazioni\PowerDetector\img\pastedpic_03022009_011409.png"
       xlink:href="pastedpic_03022009_011409.png"
       transform="matrix(0,1,1,0,0,0)" /></g></svg>