<?xml version="1.0" encoding="UTF-8" standalone="no"?>
<!-- Created with Inkscape (http://www.inkscape.org/) -->
<svg
   xmlns:dc="http://purl.org/dc/elements/1.1/"
   xmlns:cc="http://creativecommons.org/ns#"
   xmlns:rdf="http://www.w3.org/1999/02/22-rdf-syntax-ns#"
   xmlns:svg="http://www.w3.org/2000/svg"
   xmlns="http://www.w3.org/2000/svg"
   xmlns:sodipodi="http://sodipodi.sourceforge.net/DTD/sodipodi-0.dtd"
   xmlns:inkscape="http://www.inkscape.org/namespaces/inkscape"
   id="svg2"
   sodipodi:version="0.32"
   inkscape:version="0.46"
   width="886.19781"
   height="432.45949"
   xml:space="preserve"
   sodipodi:docname="SchemaRivelatore.svg"
   inkscape:output_extension="org.inkscape.output.svg.inkscape"><metadata
     id="metadata7"><rdf:RDF><cc:Work
         rdf:about=""><dc:format>image/svg+xml</dc:format><dc:type
           rdf:resource="http://purl.org/dc/dcmitype/StillImage" /></cc:Work></rdf:RDF></metadata><defs
     id="defs5"><inkscape:perspective
       sodipodi:type="inkscape:persp3d"
       inkscape:vp_x="0 : 526.18109 : 1"
       inkscape:vp_y="0 : 1000 : 0"
       inkscape:vp_z="744.09448 : 526.18109 : 1"
       inkscape:persp3d-origin="372.04724 : 350.78739 : 1"
       id="perspective9" /></defs><sodipodi:namedview
     inkscape:window-height="480"
     inkscape:window-width="640"
     inkscape:pageshadow="2"
     inkscape:pageopacity="0.0"
     guidetolerance="10.0"
     gridtolerance="10.0"
     objecttolerance="10.0"
     borderopacity="1.0"
     bordercolor="#666666"
     pagecolor="#ffffff"
     id="base"
     showgrid="false"
     inkscape:zoom="1.0471703"
     inkscape:cx="443.09891"
     inkscape:cy="216.22975"
     inkscape:current-layer="g13" /><g
     id="g11"
     inkscape:groupmode="layer"
     inkscape:label="SchemaRivelatore"
     transform="matrix(1.25,0,0,-1.25,0,432.45949)"><g
       id="g13"><g
   id="g15"
   transform="matrix(0,-1,1,0,0,345.96759)"><path
     d="M 310.867,684.297 L 328.387,684.297"
     style="fill:none;stroke:#0000ff;stroke-opacity:1;stroke-width:0.8;stroke-linecap:round;stroke-linejoin:round;stroke-miterlimit:10;stroke-dasharray:none"
     id="path17" /></g><g
   id="g19"
   transform="matrix(0,-1,1,0,0,345.96759)"><path
     d="M 328.387,666.777 L 328.387,701.816"
     style="fill:none;stroke:#0000ff;stroke-opacity:1;stroke-width:0.8;stroke-linecap:round;stroke-linejoin:round;stroke-miterlimit:10;stroke-dasharray:none"
     id="path21" /></g><g
   id="g23"
   transform="matrix(0,-1,1,0,0,345.96759)"><path
     d="M 337.148,675.539 L 337.148,693.059"
     style="fill:none;stroke:#0000ff;stroke-opacity:1;stroke-width:0.8;stroke-linecap:round;stroke-linejoin:round;stroke-miterlimit:10;stroke-dasharray:none"
     id="path25" /></g><g
   id="g27"
   transform="matrix(0,-1,1,0,0,345.96759)"><path
     d="M 345.906,680.816 L 345.906,687.777"
     style="fill:none;stroke:#0000ff;stroke-opacity:1;stroke-width:0.8;stroke-linecap:round;stroke-linejoin:round;stroke-miterlimit:10;stroke-dasharray:none"
     id="path29" /></g><path
   d="M 680.098,39.3 L 680.098,30.78 L 688.617,30.78 L 688.617,39.3 L 680.098,39.3 z"
   style="fill:#00ff00;fill-opacity:1;fill-rule:nonzero;stroke:none"
   id="path31" /><g
   id="g33"
   transform="matrix(0,-1,1,0,0,345.96759)"><path
     d="M 306.547,679.977 L 315.188,679.977 L 315.188,688.617 L 306.547,688.617 L 306.547,679.977 z"
     style="fill:none;stroke:#0000ff;stroke-opacity:1;stroke-width:0.8;stroke-linecap:round;stroke-linejoin:round;stroke-miterlimit:10;stroke-dasharray:none"
     id="path35" /></g><g
   id="g37"
   transform="matrix(0,-1,1,0,0,345.96759)"><path
     d="M 310.867,385.859 L 328.387,385.859"
     style="fill:none;stroke:#0000ff;stroke-opacity:1;stroke-width:0.8;stroke-linecap:round;stroke-linejoin:round;stroke-miterlimit:10;stroke-dasharray:none"
     id="path39" /></g><g
   id="g41"
   transform="matrix(0,-1,1,0,0,345.96759)"><path
     d="M 328.387,368.34 L 328.387,403.379"
     style="fill:none;stroke:#0000ff;stroke-opacity:1;stroke-width:0.8;stroke-linecap:round;stroke-linejoin:round;stroke-miterlimit:10;stroke-dasharray:none"
     id="path43" /></g><g
   id="g45"
   transform="matrix(0,-1,1,0,0,345.96759)"><path
     d="M 337.148,377.098 L 337.148,394.617"
     style="fill:none;stroke:#0000ff;stroke-opacity:1;stroke-width:0.8;stroke-linecap:round;stroke-linejoin:round;stroke-miterlimit:10;stroke-dasharray:none"
     id="path47" /></g><g
   id="g49"
   transform="matrix(0,-1,1,0,0,345.96759)"><path
     d="M 345.906,382.379 L 345.906,389.34"
     style="fill:none;stroke:#0000ff;stroke-opacity:1;stroke-width:0.8;stroke-linecap:round;stroke-linejoin:round;stroke-miterlimit:10;stroke-dasharray:none"
     id="path51" /></g><path
   d="M 381.777,39.3 L 381.777,30.78 L 390.18,30.78 L 390.18,39.3 L 381.777,39.3 z"
   style="fill:#00ff00;fill-opacity:1;fill-rule:nonzero;stroke:none"
   id="path53" /><g
   id="g55"
   transform="matrix(0,-1,1,0,0,345.96759)"><path
     d="M 306.547,381.66 L 315.188,381.66 L 315.188,390.18 L 306.547,390.18 L 306.547,381.66 z"
     style="fill:none;stroke:#0000ff;stroke-opacity:1;stroke-width:0.8;stroke-linecap:round;stroke-linejoin:round;stroke-miterlimit:10;stroke-dasharray:none"
     id="path57" /></g><g
   id="g59"
   transform="matrix(0,-1,1,0,0,345.96759)"><path
     d="M 100.148,385.859 L 135.309,385.859"
     style="fill:none;stroke:#0000ff;stroke-opacity:1;stroke-width:0.8;stroke-linecap:round;stroke-linejoin:round;stroke-miterlimit:10;stroke-dasharray:none"
     id="path61" /></g><g
   id="g63"
   transform="matrix(0,-1,1,0,0,345.96759)"><path
     d="M 275.707,385.859 L 240.547,385.859"
     style="fill:none;stroke:#0000ff;stroke-opacity:1;stroke-width:0.8;stroke-linecap:round;stroke-linejoin:round;stroke-miterlimit:10;stroke-dasharray:none"
     id="path65" /></g><g
   id="g67"
   transform="matrix(0,-1,1,0,0,345.96759)"><path
     d="M 135.309,385.859 L 136.988,392.938"
     style="fill:none;stroke:#0000ff;stroke-opacity:1;stroke-width:0.8;stroke-linecap:round;stroke-linejoin:round;stroke-miterlimit:10;stroke-dasharray:none"
     id="path69" /></g><g
   id="g71"
   transform="matrix(0,-1,1,0,0,345.96759)"><path
     d="M 136.988,392.938 L 140.586,399.898"
     style="fill:none;stroke:#0000ff;stroke-opacity:1;stroke-width:0.8;stroke-linecap:round;stroke-linejoin:round;stroke-miterlimit:10;stroke-dasharray:none"
     id="path73" /></g><g
   id="g75"
   transform="matrix(0,-1,1,0,0,345.96759)"><path
     d="M 140.586,399.898 L 147.547,405.18"
     style="fill:none;stroke:#0000ff;stroke-opacity:1;stroke-width:0.8;stroke-linecap:round;stroke-linejoin:round;stroke-miterlimit:10;stroke-dasharray:none"
     id="path77" /></g><g
   id="g79"
   transform="matrix(0,-1,1,0,0,345.96759)"><path
     d="M 147.547,405.18 L 156.309,406.977"
     style="fill:none;stroke:#0000ff;stroke-opacity:1;stroke-width:0.8;stroke-linecap:round;stroke-linejoin:round;stroke-miterlimit:10;stroke-dasharray:none"
     id="path81" /></g><g
   id="g83"
   transform="matrix(0,-1,1,0,0,345.96759)"><path
     d="M 156.309,406.977 L 165.066,405.18"
     style="fill:none;stroke:#0000ff;stroke-opacity:1;stroke-width:0.8;stroke-linecap:round;stroke-linejoin:round;stroke-miterlimit:10;stroke-dasharray:none"
     id="path85" /></g><g
   id="g87"
   transform="matrix(0,-1,1,0,0,345.96759)"><path
     d="M 165.066,405.18 L 172.148,399.898"
     style="fill:none;stroke:#0000ff;stroke-opacity:1;stroke-width:0.8;stroke-linecap:round;stroke-linejoin:round;stroke-miterlimit:10;stroke-dasharray:none"
     id="path89" /></g><g
   id="g91"
   transform="matrix(0,-1,1,0,0,345.96759)"><path
     d="M 172.148,399.898 L 175.629,392.938"
     style="fill:none;stroke:#0000ff;stroke-opacity:1;stroke-width:0.8;stroke-linecap:round;stroke-linejoin:round;stroke-miterlimit:10;stroke-dasharray:none"
     id="path93" /></g><g
   id="g95"
   transform="matrix(0,-1,1,0,0,345.96759)"><path
     d="M 175.629,392.938 L 177.426,385.859"
     style="fill:none;stroke:#0000ff;stroke-opacity:1;stroke-width:0.8;stroke-linecap:round;stroke-linejoin:round;stroke-miterlimit:10;stroke-dasharray:none"
     id="path97" /></g><g
   id="g99"
   transform="matrix(0,-1,1,0,0,345.96759)"><path
     d="M 177.426,385.859 L 177.426,378.898"
     style="fill:none;stroke:#0000ff;stroke-opacity:1;stroke-width:0.8;stroke-linecap:round;stroke-linejoin:round;stroke-miterlimit:10;stroke-dasharray:none"
     id="path101" /></g><g
   id="g103"
   transform="matrix(0,-1,1,0,0,345.96759)"><path
     d="M 177.426,378.898 L 173.828,371.816"
     style="fill:none;stroke:#0000ff;stroke-opacity:1;stroke-width:0.8;stroke-linecap:round;stroke-linejoin:round;stroke-miterlimit:10;stroke-dasharray:none"
     id="path105" /></g><g
   id="g107"
   transform="matrix(0,-1,1,0,0,345.96759)"><path
     d="M 173.828,371.816 L 170.348,371.816"
     style="fill:none;stroke:#0000ff;stroke-opacity:1;stroke-width:0.8;stroke-linecap:round;stroke-linejoin:round;stroke-miterlimit:10;stroke-dasharray:none"
     id="path109" /></g><g
   id="g111"
   transform="matrix(0,-1,1,0,0,345.96759)"><path
     d="M 170.348,371.816 L 166.867,378.898"
     style="fill:none;stroke:#0000ff;stroke-opacity:1;stroke-width:0.8;stroke-linecap:round;stroke-linejoin:round;stroke-miterlimit:10;stroke-dasharray:none"
     id="path113" /></g><g
   id="g115"
   transform="matrix(0,-1,1,0,0,345.96759)"><path
     d="M 166.867,378.898 L 166.867,385.859"
     style="fill:none;stroke:#0000ff;stroke-opacity:1;stroke-width:0.8;stroke-linecap:round;stroke-linejoin:round;stroke-miterlimit:10;stroke-dasharray:none"
     id="path117" /></g><g
   id="g119"
   transform="matrix(0,-1,1,0,0,345.96759)"><path
     d="M 166.867,385.859 L 168.668,392.938"
     style="fill:none;stroke:#0000ff;stroke-opacity:1;stroke-width:0.8;stroke-linecap:round;stroke-linejoin:round;stroke-miterlimit:10;stroke-dasharray:none"
     id="path121" /></g><g
   id="g123"
   transform="matrix(0,-1,1,0,0,345.96759)"><path
     d="M 168.668,392.938 L 172.148,399.898"
     style="fill:none;stroke:#0000ff;stroke-opacity:1;stroke-width:0.8;stroke-linecap:round;stroke-linejoin:round;stroke-miterlimit:10;stroke-dasharray:none"
     id="path125" /></g><g
   id="g127"
   transform="matrix(0,-1,1,0,0,345.96759)"><path
     d="M 172.148,399.898 L 179.109,405.18"
     style="fill:none;stroke:#0000ff;stroke-opacity:1;stroke-width:0.8;stroke-linecap:round;stroke-linejoin:round;stroke-miterlimit:10;stroke-dasharray:none"
     id="path129" /></g><g
   id="g131"
   transform="matrix(0,-1,1,0,0,345.96759)"><path
     d="M 179.109,405.18 L 187.988,406.977"
     style="fill:none;stroke:#0000ff;stroke-opacity:1;stroke-width:0.8;stroke-linecap:round;stroke-linejoin:round;stroke-miterlimit:10;stroke-dasharray:none"
     id="path133" /></g><g
   id="g135"
   transform="matrix(0,-1,1,0,0,345.96759)"><path
     d="M 240.547,385.859 L 238.867,392.938"
     style="fill:none;stroke:#0000ff;stroke-opacity:1;stroke-width:0.8;stroke-linecap:round;stroke-linejoin:round;stroke-miterlimit:10;stroke-dasharray:none"
     id="path137" /></g><g
   id="g139"
   transform="matrix(0,-1,1,0,0,345.96759)"><path
     d="M 238.867,392.938 L 235.266,399.898"
     style="fill:none;stroke:#0000ff;stroke-opacity:1;stroke-width:0.8;stroke-linecap:round;stroke-linejoin:round;stroke-miterlimit:10;stroke-dasharray:none"
     id="path141" /></g><g
   id="g143"
   transform="matrix(0,-1,1,0,0,345.96759)"><path
     d="M 235.266,399.898 L 228.309,405.18"
     style="fill:none;stroke:#0000ff;stroke-opacity:1;stroke-width:0.8;stroke-linecap:round;stroke-linejoin:round;stroke-miterlimit:10;stroke-dasharray:none"
     id="path145" /></g><g
   id="g147"
   transform="matrix(0,-1,1,0,0,345.96759)"><path
     d="M 228.309,405.18 L 219.547,406.977"
     style="fill:none;stroke:#0000ff;stroke-opacity:1;stroke-width:0.8;stroke-linecap:round;stroke-linejoin:round;stroke-miterlimit:10;stroke-dasharray:none"
     id="path149" /></g><g
   id="g151"
   transform="matrix(0,-1,1,0,0,345.96759)"><path
     d="M 219.547,406.977 L 210.789,405.18"
     style="fill:none;stroke:#0000ff;stroke-opacity:1;stroke-width:0.8;stroke-linecap:round;stroke-linejoin:round;stroke-miterlimit:10;stroke-dasharray:none"
     id="path153" /></g><g
   id="g155"
   transform="matrix(0,-1,1,0,0,345.96759)"><path
     d="M 210.789,405.18 L 203.707,399.898"
     style="fill:none;stroke:#0000ff;stroke-opacity:1;stroke-width:0.8;stroke-linecap:round;stroke-linejoin:round;stroke-miterlimit:10;stroke-dasharray:none"
     id="path157" /></g><g
   id="g159"
   transform="matrix(0,-1,1,0,0,345.96759)"><path
     d="M 203.707,399.898 L 200.227,392.938"
     style="fill:none;stroke:#0000ff;stroke-opacity:1;stroke-width:0.8;stroke-linecap:round;stroke-linejoin:round;stroke-miterlimit:10;stroke-dasharray:none"
     id="path161" /></g><g
   id="g163"
   transform="matrix(0,-1,1,0,0,345.96759)"><path
     d="M 200.227,392.938 L 198.426,385.859"
     style="fill:none;stroke:#0000ff;stroke-opacity:1;stroke-width:0.8;stroke-linecap:round;stroke-linejoin:round;stroke-miterlimit:10;stroke-dasharray:none"
     id="path165" /></g><g
   id="g167"
   transform="matrix(0,-1,1,0,0,345.96759)"><path
     d="M 198.426,385.859 L 198.426,378.898"
     style="fill:none;stroke:#0000ff;stroke-opacity:1;stroke-width:0.8;stroke-linecap:round;stroke-linejoin:round;stroke-miterlimit:10;stroke-dasharray:none"
     id="path169" /></g><g
   id="g171"
   transform="matrix(0,-1,1,0,0,345.96759)"><path
     d="M 198.426,378.898 L 202.027,371.816"
     style="fill:none;stroke:#0000ff;stroke-opacity:1;stroke-width:0.8;stroke-linecap:round;stroke-linejoin:round;stroke-miterlimit:10;stroke-dasharray:none"
     id="path173" /></g><g
   id="g175"
   transform="matrix(0,-1,1,0,0,345.96759)"><path
     d="M 202.027,371.816 L 205.508,371.816"
     style="fill:none;stroke:#0000ff;stroke-opacity:1;stroke-width:0.8;stroke-linecap:round;stroke-linejoin:round;stroke-miterlimit:10;stroke-dasharray:none"
     id="path177" /></g><g
   id="g179"
   transform="matrix(0,-1,1,0,0,345.96759)"><path
     d="M 205.508,371.816 L 208.988,378.898"
     style="fill:none;stroke:#0000ff;stroke-opacity:1;stroke-width:0.8;stroke-linecap:round;stroke-linejoin:round;stroke-miterlimit:10;stroke-dasharray:none"
     id="path181" /></g><g
   id="g183"
   transform="matrix(0,-1,1,0,0,345.96759)"><path
     d="M 208.988,378.898 L 208.988,385.859"
     style="fill:none;stroke:#0000ff;stroke-opacity:1;stroke-width:0.8;stroke-linecap:round;stroke-linejoin:round;stroke-miterlimit:10;stroke-dasharray:none"
     id="path185" /></g><g
   id="g187"
   transform="matrix(0,-1,1,0,0,345.96759)"><path
     d="M 208.988,385.859 L 207.188,392.938"
     style="fill:none;stroke:#0000ff;stroke-opacity:1;stroke-width:0.8;stroke-linecap:round;stroke-linejoin:round;stroke-miterlimit:10;stroke-dasharray:none"
     id="path189" /></g><g
   id="g191"
   transform="matrix(0,-1,1,0,0,345.96759)"><path
     d="M 207.188,392.938 L 203.707,399.898"
     style="fill:none;stroke:#0000ff;stroke-opacity:1;stroke-width:0.8;stroke-linecap:round;stroke-linejoin:round;stroke-miterlimit:10;stroke-dasharray:none"
     id="path193" /></g><g
   id="g195"
   transform="matrix(0,-1,1,0,0,345.96759)"><path
     d="M 203.707,399.898 L 196.746,405.18"
     style="fill:none;stroke:#0000ff;stroke-opacity:1;stroke-width:0.8;stroke-linecap:round;stroke-linejoin:round;stroke-miterlimit:10;stroke-dasharray:none"
     id="path197" /></g><g
   id="g199"
   transform="matrix(0,-1,1,0,0,345.96759)"><path
     d="M 196.746,405.18 L 187.988,406.977"
     style="fill:none;stroke:#0000ff;stroke-opacity:1;stroke-width:0.8;stroke-linecap:round;stroke-linejoin:round;stroke-miterlimit:10;stroke-dasharray:none"
     id="path201" /></g><g
   id="g203"
   transform="matrix(0,-1,1,0,0,345.96759)"><path
     d="M 128.227,391.137 L 117.668,380.578"
     style="fill:none;stroke:#0000ff;stroke-opacity:1;stroke-width:0.8;stroke-linecap:round;stroke-linejoin:round;stroke-miterlimit:10;stroke-dasharray:none"
     id="path205" /></g><path
   d="M 381.777,250.018 L 381.777,241.499 L 390.18,241.499 L 390.18,250.018 L 381.777,250.018 z"
   style="fill:#00ff00;fill-opacity:1;fill-rule:nonzero;stroke:none"
   id="path207" /><g
   id="g209"
   transform="matrix(0,-1,1,0,0,345.96759)"><path
     d="M 95.828,381.66 L 104.469,381.66 L 104.469,390.18 L 95.828,390.18 L 95.828,381.66 z"
     style="fill:none;stroke:#0000ff;stroke-opacity:1;stroke-width:0.8;stroke-linecap:round;stroke-linejoin:round;stroke-miterlimit:10;stroke-dasharray:none"
     id="path211" /></g><path
   d="M 381.777,74.46 L 381.777,65.94 L 390.18,65.94 L 390.18,74.46 L 381.777,74.46 z"
   style="fill:#00ff00;fill-opacity:1;fill-rule:nonzero;stroke:none"
   id="path213" /><g
   id="g215"
   transform="matrix(0,-1,1,0,0,345.96759)"><path
     d="M 271.387,381.66 L 280.027,381.66 L 280.027,390.18 L 271.387,390.18 L 271.387,381.66 z"
     style="fill:none;stroke:#0000ff;stroke-opacity:1;stroke-width:0.8;stroke-linecap:round;stroke-linejoin:round;stroke-miterlimit:10;stroke-dasharray:none"
     id="path217" /></g><g
   id="g219"
   transform="matrix(0,-1,1,0,0,345.96759)"><path
     d="M 100.148,684.297 L 170.348,684.297"
     style="fill:none;stroke:#0000ff;stroke-opacity:1;stroke-width:0.8;stroke-linecap:round;stroke-linejoin:round;stroke-miterlimit:10;stroke-dasharray:none"
     id="path221" /></g><g
   id="g223"
   transform="matrix(0,-1,1,0,0,345.96759)"><path
     d="M 275.707,684.297 L 205.508,684.297"
     style="fill:none;stroke:#0000ff;stroke-opacity:1;stroke-width:0.8;stroke-linecap:round;stroke-linejoin:round;stroke-miterlimit:10;stroke-dasharray:none"
     id="path225" /></g><g
   id="g227"
   transform="matrix(0,-1,1,0,0,345.96759)"><path
     d="M 170.348,708.898 L 170.348,659.699"
     style="fill:none;stroke:#0000ff;stroke-opacity:1;stroke-width:0.8;stroke-linecap:round;stroke-linejoin:round;stroke-miterlimit:10;stroke-dasharray:none"
     id="path229" /></g><g
   id="g231"
   transform="matrix(0,-1,1,0,0,345.96759)"><path
     d="M 205.508,708.898 L 205.508,659.699"
     style="fill:none;stroke:#0000ff;stroke-opacity:1;stroke-width:0.8;stroke-linecap:round;stroke-linejoin:round;stroke-miterlimit:10;stroke-dasharray:none"
     id="path233" /></g><g
   id="g235"
   transform="matrix(0,-1,1,0,0,345.96759)"><path
     d="M 140.586,689.578 L 130.027,679.02"
     style="fill:none;stroke:#0000ff;stroke-opacity:1;stroke-width:0.8;stroke-linecap:round;stroke-linejoin:round;stroke-miterlimit:10;stroke-dasharray:none"
     id="path237" /></g><path
   d="M 680.098,250.018 L 680.098,241.499 L 688.617,241.499 L 688.617,250.018 L 680.098,250.018 z"
   style="fill:#00ff00;fill-opacity:1;fill-rule:nonzero;stroke:none"
   id="path239" /><g
   id="g241"
   transform="matrix(0,-1,1,0,0,345.96759)"><path
     d="M 95.828,679.977 L 104.469,679.977 L 104.469,688.617 L 95.828,688.617 L 95.828,679.977 z"
     style="fill:none;stroke:#0000ff;stroke-opacity:1;stroke-width:0.8;stroke-linecap:round;stroke-linejoin:round;stroke-miterlimit:10;stroke-dasharray:none"
     id="path243" /></g><path
   d="M 680.098,74.46 L 680.098,65.94 L 688.617,65.94 L 688.617,74.46 L 680.098,74.46 z"
   style="fill:#00ff00;fill-opacity:1;fill-rule:nonzero;stroke:none"
   id="path245" /><g
   id="g247"
   transform="matrix(0,-1,1,0,0,345.96759)"><path
     d="M 271.387,679.977 L 280.027,679.977 L 280.027,688.617 L 271.387,688.617 L 271.387,679.977 z"
     style="fill:none;stroke:#0000ff;stroke-opacity:1;stroke-width:0.8;stroke-linecap:round;stroke-linejoin:round;stroke-miterlimit:10;stroke-dasharray:none"
     id="path249" /></g><g
   id="g251"
   transform="matrix(0,-1,1,0,0,345.96759)"><path
     d="M 47.469,438.539 L 47.469,508.738"
     style="fill:none;stroke:#0000ff;stroke-opacity:1;stroke-width:0.8;stroke-linecap:round;stroke-linejoin:round;stroke-miterlimit:10;stroke-dasharray:none"
     id="path253" /></g><g
   id="g255"
   transform="matrix(0,-1,1,0,0,345.96759)"><path
     d="M 47.469,614.098 L 47.469,543.898"
     style="fill:none;stroke:#0000ff;stroke-opacity:1;stroke-width:0.8;stroke-linecap:round;stroke-linejoin:round;stroke-miterlimit:10;stroke-dasharray:none"
     id="path257" /></g><g
   id="g259"
   transform="matrix(0,-1,1,0,0,345.96759)"><path
     d="M 29.949,508.738 L 65.109,508.738"
     style="fill:none;stroke:#0000ff;stroke-opacity:1;stroke-width:0.8;stroke-linecap:round;stroke-linejoin:round;stroke-miterlimit:10;stroke-dasharray:none"
     id="path261" /></g><g
   id="g263"
   transform="matrix(0,-1,1,0,0,345.96759)"><path
     d="M 65.109,508.738 L 47.469,543.898"
     style="fill:none;stroke:#0000ff;stroke-opacity:1;stroke-width:0.8;stroke-linecap:round;stroke-linejoin:round;stroke-miterlimit:10;stroke-dasharray:none"
     id="path265" /></g><g
   id="g267"
   transform="matrix(0,-1,1,0,0,345.96759)"><path
     d="M 47.469,543.898 L 29.949,508.738"
     style="fill:none;stroke:#0000ff;stroke-opacity:1;stroke-width:0.8;stroke-linecap:round;stroke-linejoin:round;stroke-miterlimit:10;stroke-dasharray:none"
     id="path269" /></g><g
   id="g271"
   transform="matrix(0,-1,1,0,0,345.96759)"><path
     d="M 29.949,543.898 L 65.109,543.898"
     style="fill:none;stroke:#0000ff;stroke-opacity:1;stroke-width:0.8;stroke-linecap:round;stroke-linejoin:round;stroke-miterlimit:10;stroke-dasharray:none"
     id="path273" /></g><g
   id="g275"
   transform="matrix(0,-1,1,0,0,345.96759)"><path
     d="M 42.188,485.938 L 52.746,475.379"
     style="fill:none;stroke:#0000ff;stroke-opacity:1;stroke-width:0.8;stroke-linecap:round;stroke-linejoin:round;stroke-miterlimit:10;stroke-dasharray:none"
     id="path277" /></g><path
   d="M 434.34,302.581 L 434.34,294.179 L 442.859,294.179 L 442.859,302.581 L 434.34,302.581 z"
   style="fill:#00ff00;fill-opacity:1;fill-rule:nonzero;stroke:none"
   id="path279" /><g
   id="g281"
   transform="matrix(0,-1,1,0,0,345.96759)"><path
     d="M 43.266,434.219 L 51.789,434.219 L 51.789,442.859 L 43.266,442.859 L 43.266,434.219 z"
     style="fill:none;stroke:#0000ff;stroke-opacity:1;stroke-width:0.8;stroke-linecap:round;stroke-linejoin:round;stroke-miterlimit:10;stroke-dasharray:none"
     id="path283" /></g><path
   d="M 609.898,302.581 L 609.898,294.179 L 618.418,294.179 L 618.418,302.581 L 609.898,302.581 z"
   style="fill:#00ff00;fill-opacity:1;fill-rule:nonzero;stroke:none"
   id="path285" /><g
   id="g287"
   transform="matrix(0,-1,1,0,0,345.96759)"><path
     d="M 43.266,609.777 L 51.789,609.777 L 51.789,618.418 L 43.266,618.418 L 43.266,609.777 z"
     style="fill:none;stroke:#0000ff;stroke-opacity:1;stroke-width:0.8;stroke-linecap:round;stroke-linejoin:round;stroke-miterlimit:10;stroke-dasharray:none"
     id="path289" /></g><g
   id="g291"
   transform="matrix(0,-1,1,0,0,345.96759)"><path
     d="M 47.469,614.098 L 47.469,684.297"
     style="fill:none;stroke:#ff0000;stroke-opacity:1;stroke-width:0.8;stroke-linecap:round;stroke-linejoin:round;stroke-miterlimit:10;stroke-dasharray:none"
     id="path293" /></g><g
   id="g295"
   transform="matrix(0,-1,1,0,0,345.96759)"><path
     d="M 47.469,684.297 L 100.148,684.297"
     style="fill:none;stroke:#ff0000;stroke-opacity:1;stroke-width:0.8;stroke-linecap:round;stroke-linejoin:round;stroke-miterlimit:10;stroke-dasharray:none"
     id="path297" /></g><g
   id="g299"
   transform="matrix(0,-1,1,0,0,345.96759)"><path
     d="M 275.707,684.297 L 310.867,684.297"
     style="fill:none;stroke:#ff0000;stroke-opacity:1;stroke-width:0.8;stroke-linecap:round;stroke-linejoin:round;stroke-miterlimit:10;stroke-dasharray:none"
     id="path301" /></g><g
   id="g303"
   transform="matrix(0,-1,1,0,0,345.96759)"><path
     d="M 275.707,385.859 L 310.867,385.859"
     style="fill:none;stroke:#ff0000;stroke-opacity:1;stroke-width:0.8;stroke-linecap:round;stroke-linejoin:round;stroke-miterlimit:10;stroke-dasharray:none"
     id="path305" /></g><g
   id="g307"
   transform="matrix(0,-1,1,0,0,345.96759)"><path
     d="M 47.469,385.859 L 100.148,385.859"
     style="fill:none;stroke:#ff0000;stroke-opacity:1;stroke-width:0.8;stroke-linecap:round;stroke-linejoin:round;stroke-miterlimit:10;stroke-dasharray:none"
     id="path309" /></g><g
   id="g311"
   transform="matrix(0,-1,1,0,0,345.96759)"><path
     d="M 47.469,385.859 L 47.469,438.539"
     style="fill:none;stroke:#ff0000;stroke-opacity:1;stroke-width:0.8;stroke-linecap:round;stroke-linejoin:round;stroke-miterlimit:10;stroke-dasharray:none"
     id="path313" /></g><path
   d="M 680.098,250.018 L 680.098,241.499 L 688.617,241.499 L 688.617,250.018 L 680.098,250.018 z"
   style="fill:#00ff00;fill-opacity:1;fill-rule:nonzero;stroke:none"
   id="path315" /><g
   id="g317"
   transform="matrix(0,-1,1,0,0,345.96759)"><path
     d="M 95.828,679.977 L 104.469,679.977 L 104.469,688.617 L 95.828,688.617 L 95.828,679.977 z"
     style="fill:none;stroke:#0000ff;stroke-opacity:1;stroke-width:0.8;stroke-linecap:round;stroke-linejoin:round;stroke-miterlimit:10;stroke-dasharray:none"
     id="path319" /></g><path
   d="M 609.898,302.581 L 609.898,294.179 L 618.418,294.179 L 618.418,302.581 L 609.898,302.581 z"
   style="fill:#00ff00;fill-opacity:1;fill-rule:nonzero;stroke:none"
   id="path321" /><g
   id="g323"
   transform="matrix(0,-1,1,0,0,345.96759)"><path
     d="M 43.266,609.777 L 51.789,609.777 L 51.789,618.418 L 43.266,618.418 L 43.266,609.777 z"
     style="fill:none;stroke:#0000ff;stroke-opacity:1;stroke-width:0.8;stroke-linecap:round;stroke-linejoin:round;stroke-miterlimit:10;stroke-dasharray:none"
     id="path325" /></g><path
   d="M 680.098,39.3 L 680.098,30.78 L 688.617,30.78 L 688.617,39.3 L 680.098,39.3 z"
   style="fill:#00ff00;fill-opacity:1;fill-rule:nonzero;stroke:none"
   id="path327" /><g
   id="g329"
   transform="matrix(0,-1,1,0,0,345.96759)"><path
     d="M 306.547,679.977 L 315.188,679.977 L 315.188,688.617 L 306.547,688.617 L 306.547,679.977 z"
     style="fill:none;stroke:#0000ff;stroke-opacity:1;stroke-width:0.8;stroke-linecap:round;stroke-linejoin:round;stroke-miterlimit:10;stroke-dasharray:none"
     id="path331" /></g><path
   d="M 680.098,74.46 L 680.098,65.94 L 688.617,65.94 L 688.617,74.46 L 680.098,74.46 z"
   style="fill:#00ff00;fill-opacity:1;fill-rule:nonzero;stroke:none"
   id="path333" /><g
   id="g335"
   transform="matrix(0,-1,1,0,0,345.96759)"><path
     d="M 271.387,679.977 L 280.027,679.977 L 280.027,688.617 L 271.387,688.617 L 271.387,679.977 z"
     style="fill:none;stroke:#0000ff;stroke-opacity:1;stroke-width:0.8;stroke-linecap:round;stroke-linejoin:round;stroke-miterlimit:10;stroke-dasharray:none"
     id="path337" /></g><path
   d="M 381.777,39.3 L 381.777,30.78 L 390.18,30.78 L 390.18,39.3 L 381.777,39.3 z"
   style="fill:#00ff00;fill-opacity:1;fill-rule:nonzero;stroke:none"
   id="path339" /><g
   id="g341"
   transform="matrix(0,-1,1,0,0,345.96759)"><path
     d="M 306.547,381.66 L 315.188,381.66 L 315.188,390.18 L 306.547,390.18 L 306.547,381.66 z"
     style="fill:none;stroke:#0000ff;stroke-opacity:1;stroke-width:0.8;stroke-linecap:round;stroke-linejoin:round;stroke-miterlimit:10;stroke-dasharray:none"
     id="path343" /></g><path
   d="M 381.777,74.46 L 381.777,65.94 L 390.18,65.94 L 390.18,74.46 L 381.777,74.46 z"
   style="fill:#00ff00;fill-opacity:1;fill-rule:nonzero;stroke:none"
   id="path345" /><g
   id="g347"
   transform="matrix(0,-1,1,0,0,345.96759)"><path
     d="M 271.387,381.66 L 280.027,381.66 L 280.027,390.18 L 271.387,390.18 L 271.387,381.66 z"
     style="fill:none;stroke:#0000ff;stroke-opacity:1;stroke-width:0.8;stroke-linecap:round;stroke-linejoin:round;stroke-miterlimit:10;stroke-dasharray:none"
     id="path349" /></g><path
   d="M 381.777,250.018 L 381.777,241.499 L 390.18,241.499 L 390.18,250.018 L 381.777,250.018 z"
   style="fill:#00ff00;fill-opacity:1;fill-rule:nonzero;stroke:none"
   id="path351" /><g
   id="g353"
   transform="matrix(0,-1,1,0,0,345.96759)"><path
     d="M 95.828,381.66 L 104.469,381.66 L 104.469,390.18 L 95.828,390.18 L 95.828,381.66 z"
     style="fill:none;stroke:#0000ff;stroke-opacity:1;stroke-width:0.8;stroke-linecap:round;stroke-linejoin:round;stroke-miterlimit:10;stroke-dasharray:none"
     id="path355" /></g><path
   d="M 434.34,302.581 L 434.34,294.179 L 442.859,294.179 L 442.859,302.581 L 434.34,302.581 z"
   style="fill:#00ff00;fill-opacity:1;fill-rule:nonzero;stroke:none"
   id="path357" /><g
   id="g359"
   transform="matrix(0,-1,1,0,0,345.96759)"><path
     d="M 43.266,434.219 L 51.789,434.219 L 51.789,442.859 L 43.266,442.859 L 43.266,434.219 z"
     style="fill:none;stroke:#0000ff;stroke-opacity:1;stroke-width:0.8;stroke-linecap:round;stroke-linejoin:round;stroke-miterlimit:10;stroke-dasharray:none"
     id="path361" /></g><g
   id="g363"
   transform="matrix(0,-1,1,0,0,345.96759)"><path
     d="M 0.059,0.059 L 87.898,0.059 L 87.898,280.859 L 0.059,280.859 L 0.059,0.059 z"
     style="fill:none;stroke:#000000;stroke-opacity:1;stroke-width:0.8;stroke-linecap:round;stroke-linejoin:round;stroke-miterlimit:10;stroke-dasharray:none"
     id="path365" /></g><text
   xml:space="preserve"
   style="font-size:22.4px;font-style:normal;font-variant:normal;font-weight:normal;font-stretch:normal;text-align:start;line-height:100%;writing-mode:lr;text-anchor:start;fill:#000000;fill-opacity:1;stroke:none;stroke-width:1px;stroke-linecap:butt;stroke-linejoin:miter;stroke-opacity:1;font-family:Georgia;-inkscape-font-specification:Georgia"
   x="43.900803"
   y="-295.51212"
   id="text2830"
   sodipodi:linespacing="100%"
   transform="scale(1,-1)"><tspan
     sodipodi:role="line"
     id="tspan2832"
     x="43.900803"
     y="-295.51212">Rete di adattamento</tspan></text>


<g
   id="g2560"
   transform="matrix(0,-1,1,0,-52.273362,345.97009)"><path
     d="M 47.469,385.859 L 47.469,438.539"
     style="fill:none;stroke:#ff0000;stroke-width:0.80000001;stroke-linecap:round;stroke-linejoin:round;stroke-miterlimit:10;stroke-dasharray:none;stroke-opacity:1"
     id="path2562" /></g><g
   id="g2564"
   transform="matrix(0,-1,1,0,-104.81171,345.97505)"><path
     d="M 47.469,385.859 L 47.469,438.539"
     style="fill:none;stroke:#ff0000;stroke-width:0.80000001;stroke-linecap:round;stroke-linejoin:round;stroke-miterlimit:10;stroke-dasharray:none;stroke-opacity:1"
     id="path2566" /></g></g></g></svg>