<?xml version="1.0" encoding="UTF-8" standalone="no"?>
<!-- Created with Inkscape (http://www.inkscape.org/) -->
<svg
   xmlns:dc="http://purl.org/dc/elements/1.1/"
   xmlns:cc="http://creativecommons.org/ns#"
   xmlns:rdf="http://www.w3.org/1999/02/22-rdf-syntax-ns#"
   xmlns:svg="http://www.w3.org/2000/svg"
   xmlns="http://www.w3.org/2000/svg"
   xmlns:sodipodi="http://sodipodi.sourceforge.net/DTD/sodipodi-0.dtd"
   xmlns:inkscape="http://www.inkscape.org/namespaces/inkscape"
   id="svg2"
   sodipodi:version="0.32"
   inkscape:version="0.46"
   width="623.40002"
   height="311.10001"
   xml:space="preserve"
   sodipodi:docname="channelnoise.svg"
   version="1.0"
   inkscape:output_extension="org.inkscape.output.svg.inkscape"><metadata
     id="metadata7"><rdf:RDF><cc:Work
         rdf:about=""><dc:format>image/svg+xml</dc:format><dc:type
           rdf:resource="http://purl.org/dc/dcmitype/StillImage" /></cc:Work></rdf:RDF></metadata><defs
     id="defs5"><inkscape:perspective
       sodipodi:type="inkscape:persp3d"
       inkscape:vp_x="0 : 526.18109 : 1"
       inkscape:vp_y="0 : 1000 : 0"
       inkscape:vp_z="744.09448 : 526.18109 : 1"
       inkscape:persp3d-origin="372.04724 : 350.78739 : 1"
       id="perspective9" /><clipPath
       clipPathUnits="userSpaceOnUse"
       id="clipPath29"><path
         d="M 0,2554.79 L 4975.2,2554.79 L 4975.2,4695.59 L 0,4695.59 L 0,2554.79 z"
         id="path31" /></clipPath><clipPath
       clipPathUnits="userSpaceOnUse"
       id="clipPath39"><path
         d="M 0,2206.79 L 5678.4,2206.79 L 5678.4,5931.59 L 0,5931.59 L 0,2206.79 z"
         id="path41" /></clipPath></defs><sodipodi:namedview
     inkscape:window-height="721"
     inkscape:window-width="1024"
     inkscape:pageshadow="2"
     inkscape:pageopacity="0.0"
     guidetolerance="10.0"
     gridtolerance="10.0"
     objecttolerance="10.0"
     borderopacity="1.0"
     bordercolor="#666666"
     pagecolor="#ffffff"
     id="base"
     showgrid="false"
     inkscape:zoom="0.90922509"
     inkscape:cx="120.45318"
     inkscape:cy="179.29615"
     inkscape:window-x="-4"
     inkscape:window-y="-4"
     inkscape:current-layer="g13" /><g
     id="g11"
     inkscape:groupmode="layer"
     inkscape:label="channelnoise"
     transform="matrix(1.25,0,0,-1.25,0,608.84875)"><g
       id="g13"
       transform="scale(0.1,0.1)"><g
         id="g15"
         transform="scale(10,10)"><text
           transform="matrix(1,0,0,-1,230.64,453.959)"
           id="text17"><tspan
             style="font-size:11.76000023px;font-variant:normal;font-weight:normal;writing-mode:lr-tb;fill:#c81586;fill-opacity:1;fill-rule:nonzero;stroke:none;font-family:ArialForCAE;-inkscape-font-specification:ArialForCAE"
             x="0 8.4907198 15.02928 17.639999 23.52 30.058559 37.902481 44.44104 52.931759 59.470322"
             y="0"
             sodipodi:role="line"
             id="tspan19">NoisePower</tspan><tspan
             style="font-size:11.76000023px;font-variant:normal;font-weight:normal;writing-mode:lr-tb;fill:#c81586;fill-opacity:1;fill-rule:nonzero;stroke:none;font-family:ArialForCAE;-inkscape-font-specification:ArialForCAE"
             x="212.88 221.37073 229.21465 235.7532 238.36392"
             y="-8.8800802"
             sodipodi:role="line"
             id="tspan21">RX_in</tspan><tspan
             style="font-size:11.76000023px;font-variant:normal;font-weight:normal;writing-mode:lr-tb;fill:#c81586;fill-opacity:1;fill-rule:nonzero;stroke:none;font-family:ArialForCAE;-inkscape-font-specification:ArialForCAE"
             x="-4.3200002 3.5239201 6.1346402 12.6732 19.21176 25.75032 28.36104 36.20496 42.743519 51.234241 57.7728"
             y="-17.76016"
             sodipodi:role="line"
             id="tspan23">SignalPower</tspan></text>
</g><g
         id="g25"><g
           id="g27"
           clip-path="url(#clipPath29)"><path
             d="M 2040,4335.59 L 2040,4513.2 M 2040,4513.2 L 3460.8,4513.2 M 4968,4602 L 4171.2,4602 M 3460.8,4690.79 L 1065.6,4690.79 M 355.195,4690.79 L -0.00390625,4690.79 M 2040,2739.59 L 2040,2562 M 2040,3625.2 L 2040,3447.59"
             style="fill:none;stroke:#c81586;stroke-width:4.80000019;stroke-linecap:round;stroke-linejoin:round;stroke-miterlimit:10;stroke-dasharray:none;stroke-opacity:1"
             id="path33" /></g></g><g
         id="g35" /><g
         id="g51"
         transform="scale(10,10)"><text
           transform="matrix(1,0,0,-1,360.96,427.32)"
           id="text53"><tspan
             style="font-size:11.76000023px;font-variant:normal;font-weight:normal;writing-mode:lr-tb;fill:#1d90ff;fill-opacity:1;fill-rule:nonzero;stroke:none;font-family:ArialForCAE;-inkscape-font-specification:ArialForCAE"
             x="0 7.8439202 16.334641 20.250719 28.094641 34.633202 37.243919 39.854641 43.12392"
             y="0"
             sodipodi:role="line"
             id="tspan55">PwrSplit2</tspan></text>
</g><g
         id="g57"
         transform="scale(10,10)"><text
           transform="matrix(1,0,0,-1,360.96,412.439)"
           id="text59"><tspan
             style="font-size:11.76000023px;font-variant:normal;font-weight:normal;writing-mode:lr-tb;fill:#0000ff;fill-opacity:1;fill-rule:nonzero;stroke:none;font-family:ArialForCAE;-inkscape-font-specification:ArialForCAE"
             x="0 7.8439202 18.94536 27.436081"
             y="0"
             sodipodi:role="line"
             id="tspan61">PWR1</tspan></text>
</g><g
         id="g63"
         transform="scale(10,10)"><text
           transform="matrix(1,0,0,-1,360.96,382.92)"
           id="text65"><tspan
             style="font-size:11.76000023px;font-variant:normal;font-weight:normal;writing-mode:lr-tb;fill:#000080;fill-opacity:1;fill-rule:nonzero;stroke:none;font-family:ArialForCAE;-inkscape-font-specification:ArialForCAE"
             x="0 7.8439202 14.38248 20.92104 27.788879 34.327438 37.596722 44.135281 50.67384"
             y="0"
             sodipodi:role="line"
             id="tspan67">S31=0.707</tspan><tspan
             style="font-size:11.76000023px;font-variant:normal;font-weight:normal;writing-mode:lr-tb;fill:#000080;fill-opacity:1;fill-rule:nonzero;stroke:none;font-family:ArialForCAE;-inkscape-font-specification:ArialForCAE"
             x="0 7.8439202 14.38248 20.92104 27.788879 34.327438 37.596722 44.135281 50.67384"
             y="-14.8801"
             sodipodi:role="line"
             id="tspan69">S21=0.707</tspan></text>
</g><path
         d="M 3993.6,4779.59 L 3993.6,4424.39 M 3993.6,4424.39 L 3638.4,4424.39 M 3638.4,4424.39 L 3638.4,4779.59 M 3638.4,4779.59 L 3993.6,4779.59 M 4171.2,4602 L 3832.8,4602 M 3832.8,4602 L 3760.8,4513.2 M 3760.8,4513.2 L 3460.8,4513.2 M 3832.8,4602 L 3760.8,4688.39 M 3760.8,4688.39 L 3460.8,4690.79"
         style="fill:none;stroke:#0000ce;stroke-width:4.80000019;stroke-linecap:round;stroke-linejoin:round;stroke-miterlimit:10;stroke-dasharray:none;stroke-opacity:1"
         id="path71" /><path
         d="M 4125.6,4578 L 4149.6,4623.59"
         style="fill:none;stroke:#0000ce;stroke-width:4.80000019;stroke-linecap:round;stroke-linejoin:round;stroke-miterlimit:10;stroke-dasharray:none;stroke-opacity:1"
         id="path73" /><g
         id="g75"
         transform="scale(10,10)"><text
           transform="matrix(1,0,0,-1,50.3996,436.2)"
           id="text77"><tspan
             style="font-size:11.76000023px;font-variant:normal;font-weight:normal;writing-mode:lr-tb;fill:#1d90ff;fill-opacity:1;fill-rule:nonzero;stroke:none;font-family:ArialForCAE;-inkscape-font-specification:ArialForCAE"
             x="0 7.8439202 11.1132 14.38248 20.92104 27.4596 33.998161 40.53672 43.806 50.344559"
             y="0"
             sodipodi:role="line"
             id="tspan79">Attenuator</tspan></text>
</g><g
         id="g81"
         transform="scale(10,10)"><text
           transform="matrix(1,0,0,-1,50.3996,421.32)"
           id="text83"><tspan
             style="font-size:11.76000023px;font-variant:normal;font-weight:normal;writing-mode:lr-tb;fill:#0000ff;fill-opacity:1;fill-rule:nonzero;stroke:none;font-family:ArialForCAE;-inkscape-font-specification:ArialForCAE"
             x="0 7.8439202 15.02928 22.21464 30.058559 38.549278"
             y="0"
             sodipodi:role="line"
             id="tspan85">ATTEN2</tspan></text>
</g><g
         id="g87"
         transform="scale(10,10)"><text
           transform="matrix(1,0,0,-1,50.3996,391.8)"
           id="text89"><tspan
             style="font-size:11.76000023px;font-variant:normal;font-weight:normal;writing-mode:lr-tb;fill:#000080;fill-opacity:1;fill-rule:nonzero;stroke:none;font-family:ArialForCAE;-inkscape-font-specification:ArialForCAE"
             x="0 7.8439202 15.68784 26.78928 35.279999 42.147839"
             y="0"
             sodipodi:role="line"
             id="tspan91">VSWR=1</tspan><tspan
             style="font-size:11.76000023px;font-variant:normal;font-weight:normal;writing-mode:lr-tb;fill:#000080;fill-opacity:1;fill-rule:nonzero;stroke:none;font-family:ArialForCAE;-inkscape-font-specification:ArialForCAE"
             x="0 6.5385599 13.07712 18.957121 24.83712 31.70496 40.195679 46.734241 53.2728 59.811359 66.349922 72.888481 75.499199 82.037758 88.576317 95.114883 100.99488 106.87488 110.14416 116.68272"
             y="-14.8797"
             sodipodi:role="line"
             id="tspan93">Loss=Channel_Loss dB</tspan></text>
</g><path
         d="M 532.797,4513.2 L 532.797,4868.39 M 532.797,4868.39 L 887.996,4868.39 M 887.996,4868.39 L 887.996,4513.2 M 887.996,4513.2 L 532.797,4513.2 M 707.996,4813.2 L 707.996,4777.2 M 707.996,4777.2 L 758.398,4762.79 M 758.398,4762.79 L 659.996,4729.2 M 659.996,4729.2 L 758.398,4712.39 M 758.398,4712.39 L 659.996,4678.79 M 659.996,4678.79 L 758.398,4662 M 758.398,4662 L 659.996,4628.39 M 659.996,4628.39 L 707.996,4611.59 M 707.996,4611.59 L 707.996,4578 M 355.195,4690.79 L 532.797,4690.79 M 887.996,4690.79 L 1065.6,4690.79"
         style="fill:none;stroke:#0000ce;stroke-width:4.80000019;stroke-linecap:round;stroke-linejoin:round;stroke-miterlimit:10;stroke-dasharray:none;stroke-opacity:1"
         id="path95" /><path
         d="M 436.797,4712.39 L 391.195,4669.2"
         style="fill:none;stroke:#0000ce;stroke-width:4.80000019;stroke-linecap:round;stroke-linejoin:round;stroke-miterlimit:10;stroke-dasharray:none;stroke-opacity:1"
         id="path97" /><g
         id="g99"
         transform="scale(10,10)"><text
           transform="matrix(1,0,0,-1,215.04,424.2)"
           id="text101"><tspan
             style="font-size:11.76000023px;font-variant:normal;font-weight:normal;writing-mode:lr-tb;fill:#1d90ff;fill-opacity:1;fill-rule:nonzero;stroke:none;font-family:ArialForCAE;-inkscape-font-specification:ArialForCAE"
             x="0"
             y="0"
             id="tspan103">R</tspan></text>
</g><g
         id="g105"
         transform="scale(10,10)"><text
           transform="matrix(1,0,0,-1,215.04,409.559)"
           id="text107"><tspan
             style="font-size:11.76000023px;font-variant:normal;font-weight:normal;writing-mode:lr-tb;fill:#0000ff;fill-opacity:1;fill-rule:nonzero;stroke:none;font-family:ArialForCAE;-inkscape-font-specification:ArialForCAE"
             x="0 8.4907198"
             y="0"
             sodipodi:role="line"
             id="tspan109">R7</tspan></text>
</g><g
         id="g111"
         transform="scale(10,10)"><text
           transform="matrix(1,0,0,-1,215.04,394.92)"
           id="text113"><tspan
             style="font-size:11.76000023px;font-variant:normal;font-weight:normal;writing-mode:lr-tb;fill:#000080;fill-opacity:1;fill-rule:nonzero;stroke:none;font-family:ArialForCAE;-inkscape-font-specification:ArialForCAE"
             x="0 8.4907198 15.35856 21.89712 28.43568 31.70496 40.85424 47.392799"
             y="0"
             sodipodi:role="line"
             id="tspan115">R=50 Ohm</tspan></text>
</g><path
         d="M 2040,3822 L 1992,3855.59 M 1992,3855.59 L 2090.4,3906 M 2090.4,3906 L 1992,3954 M 1992,3954 L 2090.4,4004.39 M 2090.4,4004.39 L 1992,4054.79 M 1992,4054.79 L 2090.4,4105.2 M 2090.4,4105.2 L 2040,4138.79 M 2040,3802.79 L 2040,3822 M 2040,4158 L 2040,4138.79 M 2040,3625.2 L 2040,3802.79 M 2040,4335.59 L 2040,4158"
         style="fill:none;stroke:#0000ce;stroke-width:4.80000019;stroke-linecap:round;stroke-linejoin:round;stroke-miterlimit:10;stroke-dasharray:none;stroke-opacity:1"
         id="path117" /><path
         d="M 2018.4,3673.2 L 2064,3651.59"
         style="fill:none;stroke:#0000ce;stroke-width:4.80000019;stroke-linecap:round;stroke-linejoin:round;stroke-miterlimit:10;stroke-dasharray:none;stroke-opacity:1"
         id="path119" /><g
         id="g121"
         transform="scale(10,10)"><text
           transform="matrix(1,0,0,-1,223.2,335.639)"
           id="text123"><tspan
             style="font-size:11.76000023px;font-variant:normal;font-weight:normal;writing-mode:lr-tb;fill:#1d90ff;fill-opacity:1;fill-rule:nonzero;stroke:none;font-family:ArialForCAE;-inkscape-font-specification:ArialForCAE"
             x="0 7.8439202 14.38248 22.873199 29.41176 32.02248 37.902481"
             y="0"
             sodipodi:role="line"
             id="tspan125">V_Noise</tspan></text>
</g><g
         id="g127"
         transform="scale(10,10)"><text
           transform="matrix(1,0,0,-1,223.2,320.759)"
           id="text129"><tspan
             style="font-size:11.76000023px;font-variant:normal;font-weight:normal;writing-mode:lr-tb;fill:#0000ff;fill-opacity:1;fill-rule:nonzero;stroke:none;font-family:ArialForCAE;-inkscape-font-specification:ArialForCAE"
             x="0 7.8439202 16.334641 24.825359"
             y="0"
             sodipodi:role="line"
             id="tspan131">SRC4</tspan></text>
</g><g
         id="g133"
         transform="scale(10,10)"><text
           transform="matrix(1,0,0,-1,223.2,306.12)"
           id="text135"><tspan
             style="font-size:11.76000023px;font-variant:normal;font-weight:normal;writing-mode:lr-tb;fill:#000080;fill-opacity:1;fill-rule:nonzero;stroke:none;font-family:ArialForCAE;-inkscape-font-specification:ArialForCAE"
             x="0 7.8439202 14.38248 22.873199 29.41176 32.02248 37.902481 44.44104 51.30888 59.799599 66.338158 68.948883 74.82888 81.367439 84.636719 91.175278"
             y="0"
             sodipodi:role="line"
             id="tspan137">V_Noise=Noise pV</tspan></text>
</g><path
         d="M 2174.4,3094.79 L 2174.4,3094.79 L 2174.4,3094.79 C 2174.4,3169.2 2112,3229.2 2040,3229.2 C 1965.6,3229.2 1905.6,3169.2 1905.6,3094.79 C 1905.6,3022.79 1965.6,2960.39 2040,2960.39 C 2112,2960.39 2174.4,3022.79 2174.4,3094.79 L 2174.4,3094.79 L 2174.4,3094.79"
         style="fill:none;stroke:#0000ce;stroke-width:4.80000019;stroke-linecap:round;stroke-linejoin:round;stroke-miterlimit:10;stroke-dasharray:none;stroke-opacity:1"
         id="path139" /><path
         d="M 2040,3270 L 2040,3447.59 M 2040,2917.2 L 2040,2739.59 M 2040,2917.2 L 2040,2962.79 M 2040,3270 L 2040,3226.79 M 1908,3094.79 L 1924.8,3123.59 M 1924.8,3123.59 L 1939.2,3094.79 M 1939.2,3094.79 L 1953.6,3109.2 M 1953.6,3109.2 L 1968,3094.79 M 1968,3094.79 L 1982.4,3034.79 M 1982.4,3034.79 L 1996.8,3080.39 M 1996.8,3080.39 L 2011.2,3020.39 M 2011.2,3020.39 L 2025.6,3166.79 M 2025.6,3166.79 L 2056.8,3109.2 M 2056.8,3109.2 L 2071.2,3138 M 2071.2,3138 L 2085.6,3109.2 M 2085.6,3109.2 L 2100,3198 M 2100,3198 L 2114.4,3166.79 M 2114.4,3166.79 L 2128.8,3181.2 M 2128.8,3181.2 L 2143.2,3109.2 M 2143.2,3109.2 L 2160,3123.59 M 2160,3123.59 L 2174.4,3094.79"
         style="fill:none;stroke:#0000ce;stroke-width:4.80000019;stroke-linecap:round;stroke-linejoin:round;stroke-miterlimit:10;stroke-dasharray:none;stroke-opacity:1"
         id="path141" /><path
         d="M 1956,3361.2 L 1999.2,3361.2 M 1977.6,3337.2 L 1977.6,3382.79"
         style="fill:none;stroke:#ff4500;stroke-width:4.80000019;stroke-linecap:round;stroke-linejoin:round;stroke-miterlimit:10;stroke-dasharray:none;stroke-opacity:1"
         id="path143" /><path
         d="M 1999.2,2826 L 1953.6,2826"
         style="fill:none;stroke:#000000;stroke-width:4.80000019;stroke-linecap:round;stroke-linejoin:round;stroke-miterlimit:10;stroke-dasharray:none;stroke-opacity:1"
         id="path145" /><path
         d="M 2020.8,3414 L 2064,3390"
         style="fill:none;stroke:#0000ce;stroke-width:4.80000019;stroke-linecap:round;stroke-linejoin:round;stroke-miterlimit:10;stroke-dasharray:none;stroke-opacity:1"
         id="path147" /><path
         d="M 2128.8,2473.2 L 1951.2,2473.2 M 2040,2562 L 2040,2473.2 M 2092.8,2384.39 L 1987.2,2384.39 M 2112,2430 L 1970.4,2430"
         style="fill:none;stroke:#0000ce;stroke-width:4.80000019;stroke-linecap:round;stroke-linejoin:round;stroke-miterlimit:10;stroke-dasharray:none;stroke-opacity:1"
         id="path149" /><path
         d="M 4152,4582.79 L 4188,4582.79 L 4188,4618.79 L 4152,4618.79 L 4152,4582.79 z"
         style="fill:#4068e2;fill-opacity:1;fill-rule:evenodd;stroke:none"
         id="path151" /><path
         d="M 3441.6,4671.59 L 3477.6,4671.59 L 3477.6,4707.59 L 3441.6,4707.59 L 3441.6,4671.59 z"
         style="fill:#4068e2;fill-opacity:1;fill-rule:evenodd;stroke:none"
         id="path153" /><path
         d="M 3441.6,4494 L 3477.6,4494 L 3477.6,4530 L 3441.6,4530 L 3441.6,4494 z"
         style="fill:#4068e2;fill-opacity:1;fill-rule:evenodd;stroke:none"
         id="path155" /><path
         d="M 1046.4,4671.59 L 1082.4,4671.59 L 1082.4,4707.59 L 1046.4,4707.59 L 1046.4,4671.59 z"
         style="fill:#4068e2;fill-opacity:1;fill-rule:evenodd;stroke:none"
         id="path157" /><path
         d="M 335.996,4671.59 L 371.996,4671.59 L 371.996,4707.59 L 335.996,4707.59 L 335.996,4671.59 z"
         style="fill:#4068e2;fill-opacity:1;fill-rule:evenodd;stroke:none"
         id="path159" /><path
         d="M 4951.2,4582.79 L 4987.2,4582.79 L 4987.2,4618.79 L 4951.2,4618.79 L 4951.2,4582.79 z"
         style="fill:#4068e2;fill-opacity:1;fill-rule:evenodd;stroke:none"
         id="path161" /><path
         d="M 2023.2,4316.39 L 2059.2,4316.39 L 2059.2,4352.39 L 2023.2,4352.39 L 2023.2,4316.39 z"
         style="fill:#4068e2;fill-opacity:1;fill-rule:evenodd;stroke:none"
         id="path163" /><path
         d="M 2023.2,3608.39 L 2059.2,3608.39 L 2059.2,3644.39 L 2023.2,3644.39 L 2023.2,3608.39 z"
         style="fill:#4068e2;fill-opacity:1;fill-rule:evenodd;stroke:none"
         id="path165" /><path
         d="M 2023.2,3430.79 L 2059.2,3430.79 L 2059.2,3466.79 L 2023.2,3466.79 L 2023.2,3430.79 z"
         style="fill:#4068e2;fill-opacity:1;fill-rule:evenodd;stroke:none"
         id="path167" /><path
         d="M 2023.2,2720.39 L 2059.2,2720.39 L 2059.2,2756.39 L 2023.2,2756.39 L 2023.2,2720.39 z"
         style="fill:#4068e2;fill-opacity:1;fill-rule:evenodd;stroke:none"
         id="path169" /><path
         d="M 2023.2,2542.79 L 2059.2,2542.79 L 2059.2,2578.79 L 2023.2,2578.79 L 2023.2,2542.79 z"
         style="fill:#4068e2;fill-opacity:1;fill-rule:evenodd;stroke:none"
         id="path171" /></g></g></svg>