<?xml version="1.0" encoding="UTF-8" standalone="no"?>
<svg
   xmlns:dc="http://purl.org/dc/elements/1.1/"
   xmlns:cc="http://creativecommons.org/ns#"
   xmlns:rdf="http://www.w3.org/1999/02/22-rdf-syntax-ns#"
   xmlns:svg="http://www.w3.org/2000/svg"
   xmlns="http://www.w3.org/2000/svg"
   xmlns:sodipodi="http://sodipodi.sourceforge.net/DTD/sodipodi-0.dtd"
   xmlns:inkscape="http://www.inkscape.org/namespaces/inkscape"
   width="99.709999mm"
   height="52.68mm"
   id="svg3363"
   sodipodi:version="0.32"
   inkscape:version="0.46"
   inkscape:output_extension="org.inkscape.output.svg.inkscape"
   sodipodi:docname="GSM.svg">
  <metadata
     id="metadata3502">
    <rdf:RDF>
      <cc:Work
         rdf:about="">
        <dc:format>image/svg+xml</dc:format>
        <dc:type
           rdf:resource="http://purl.org/dc/dcmitype/StillImage" />
      </cc:Work>
    </rdf:RDF>
  </metadata>
  <defs
     id="defs3500">
    <inkscape:perspective
       sodipodi:type="inkscape:persp3d"
       inkscape:vp_x="0 : 93.330711 : 1"
       inkscape:vp_y="0 : 1000 : 0"
       inkscape:vp_z="353.30316 : 93.330711 : 1"
       inkscape:persp3d-origin="176.65158 : 62.220474 : 1"
       id="perspective3504" />
  </defs>
  <sodipodi:namedview
     inkscape:window-height="712"
     inkscape:window-width="1024"
     inkscape:pageshadow="2"
     inkscape:pageopacity="0.0"
     guidetolerance="10.0"
     gridtolerance="10.0"
     objecttolerance="10.0"
     borderopacity="1.0"
     bordercolor="#666666"
     pagecolor="#ffffff"
     id="base"
     showgrid="false"
     inkscape:zoom="2.4537366"
     inkscape:cx="97.268511"
     inkscape:cy="82.934882"
     inkscape:window-x="-4"
     inkscape:window-y="-4"
     inkscape:current-layer="svg3363" />
<!-- EMR_GDICOMMENT --><!-- EMR_SETMAPMODE --><!-- EMR_SETVIEWPORTEXTEX --><!-- EMR_SETWINDOWEXTEX --><!-- EMR_SETWINDOWEXTEX --><!-- EMR_SAVEDC --><!-- EMR_POLYPOLYGON16... -->  <path
     style="fill:#8dae4a;fill-rule:evenodd;fill-opacity:1;stroke:none;-inkscape-font-specification:Times New Roman;font-family:Times New Roman;font-weight:normal;font-style:normal;font-stretch:normal;font-variant:normal;font-size:12px;text-anchor:start;text-align:start;writing-mode:lr;line-height:125%"
     d="  M 80.321349 184.77483   L 261.12747 184.77483   L 262.56772 184.66385   L 263.89718 184.21995   L 265.11584 183.55409   L 266.11294 182.66629   L 266.99924 181.6675   L 267.66397 180.44677   L 268.10712 179.11506   L 268.21791 177.67237   L 268.21791 177.67237   L 268.21791 8.9890457   L 268.10712 7.5463594   L 267.66397 6.2146489   L 266.99924 4.9939143   L 266.11294 3.9951314   L 265.11584 3.1073244   L 263.89718 2.4414692   L 262.56772 1.9975657   L 261.12747 1.8865898   L 261.12747 1.8865898   L 80.321349 1.8865898   L 78.881104 1.9975657   L 77.551647 2.4414692   L 76.332978 3.1073244   L 75.335886 3.9951314   L 74.449581 4.9939143   L 73.784853 6.2146489   L 73.3417 7.5463594   L 73.230912 8.9890457   L 73.230912 8.9890457   L 73.230912 177.67237   L 73.3417 179.11506   L 73.784853 180.44677   L 74.449581 181.6675   L 75.335886 182.66629   L 76.332978 183.55409   L 77.551647 184.21995   L 78.881104 184.66385   L 80.321349 184.77483   L 80.321349 184.77483  z   "
     id="path3365" />
  <path
     style="fill:none;stroke:#1f497d;stroke-width:0.88630456000000002px;stroke-linejoin:round;stroke-dasharray:none;stroke-opacity:1;-inkscape-font-specification:Times New Roman;font-family:Times New Roman;font-weight:normal;font-style:normal;font-stretch:normal;font-variant:normal;font-size:12px;text-anchor:start;text-align:start;writing-mode:lr;line-height:125%"
     d="  M 80.321349 184.77483   L 261.12747 184.77483   L 262.56772 184.66385   L 263.89718 184.21995   L 265.11584 183.55409   L 266.11294 182.66629   L 266.99924 181.6675   L 267.66397 180.44677   L 268.10712 179.11506   L 268.21791 177.67237   L 268.21791 177.67237   L 268.21791 8.9890457   L 268.10712 7.5463594   L 267.66397 6.2146489   L 266.99924 4.9939143   L 266.11294 3.9951314   L 265.11584 3.1073244   L 263.89718 2.4414692   L 262.56772 1.9975657   L 261.12747 1.8865898   L 261.12747 1.8865898   L 80.321349 1.8865898   L 78.881104 1.9975657   L 77.551647 2.4414692   L 76.332978 3.1073244   L 75.335886 3.9951314   L 74.449581 4.9939143   L 73.784853 6.2146489   L 73.3417 7.5463594   L 73.230912 8.9890457   L 73.230912 8.9890457   L 73.230912 177.67237   L 73.3417 179.11506   L 73.784853 180.44677   L 74.449581 181.6675   L 75.335886 182.66629   L 76.332978 183.55409   L 77.551647 184.21995   L 78.881104 184.66385   L 80.321349 184.77483   L 80.321349 184.77483  "
     id="path3367" />
<!-- EMR_SETBKMODE --><!-- EMR_SETTEXTCOLOR --><!-- EMR_SETTEXTALIGN -->  <text
     xml:space="preserve"
     x="149.00995"
     y="79.791653"
     style="font-size:14px;fill:#000000;font-style:normal;font-weight:bold;font-family:Times New Roman;-inkscape-font-specification:Times New Roman Bold;font-stretch:normal;font-variant:normal;text-anchor:start;text-align:start;writing-mode:lr;line-height:125%;fill-opacity:1"
     id="text3369"
     sodipodi:linespacing="125%">Global </text>
<!-- EMR_SETBKMODE --><!-- EMR_SETTEXTCOLOR --><!-- EMR_SETTEXTALIGN -->  <text
     xml:space="preserve"
     x="137.82036"
     y="97.769744"
     style="font-size:14px;fill:#000000;font-style:normal;font-weight:bold;font-family:Times New Roman;-inkscape-font-specification:Times New Roman Bold;font-stretch:normal;font-variant:normal;text-anchor:start;text-align:start;writing-mode:lr;line-height:125%;fill-opacity:1"
     id="text3371"
     sodipodi:linespacing="125%">Scattering</text>
<!-- EMR_SETBKMODE --><!-- EMR_SETTEXTCOLOR --><!-- EMR_SETTEXTALIGN -->  <text
     xml:space="preserve"
     x="146.35104"
     y="115.85881"
     style="font-size:12px;fill:#ffffff;font-style:normal;font-weight:normal;font-family:Times New Roman;-inkscape-font-specification:Times New Roman;font-stretch:normal;font-variant:normal;text-anchor:start;text-align:start;writing-mode:lr;line-height:125%"
     id="text3373"
     sodipodi:linespacing="125%"> </text>
<!-- EMR_SETBKMODE --><!-- EMR_SETTEXTCOLOR --><!-- EMR_SETTEXTALIGN -->  <text
     xml:space="preserve"
     x="150.11783"
     y="115.85881"
     style="font-size:14px;fill:#000000;font-style:normal;font-weight:bold;font-family:Times New Roman;-inkscape-font-specification:Times New Roman Bold;font-stretch:normal;font-variant:normal;text-anchor:start;text-align:start;writing-mode:lr;line-height:125%;fill-opacity:1"
     id="text3375"
     sodipodi:linespacing="125%">Matrix</text>
  <path
     style="fill:none;stroke:#1f497d;stroke-width:0.88630456000000002px;stroke-linejoin:round;stroke-dasharray:none;stroke-opacity:1;-inkscape-font-specification:Times New Roman;font-family:Times New Roman;font-weight:normal;font-style:normal;font-stretch:normal;font-variant:normal;font-size:12px;text-anchor:start;text-align:start;writing-mode:lr;line-height:125%"
     d="  M 73.230912 21.418343   L 55.504822 21.418343  "
     id="path3377" />
  <path
     style="fill:none;stroke:#1f497d;stroke-width:0.88630456000000002px;stroke-linejoin:round;stroke-dasharray:none;stroke-opacity:1;-inkscape-font-specification:Times New Roman;font-family:Times New Roman;font-weight:normal;font-style:normal;font-stretch:normal;font-variant:normal;font-size:12px;text-anchor:start;text-align:start;writing-mode:lr;line-height:125%"
     d="  M 73.230912 39.174483   L 55.504822 39.174483  "
     id="path3379" />
  <path
     style="fill:none;stroke:#1f497d;stroke-width:0.88630456000000002px;stroke-linejoin:round;stroke-dasharray:none;stroke-opacity:1;-inkscape-font-specification:Times New Roman;font-family:Times New Roman;font-weight:normal;font-style:normal;font-stretch:normal;font-variant:normal;font-size:12px;text-anchor:start;text-align:start;writing-mode:lr;line-height:125%"
     d="  M 55.504822 63.145272   L 73.230912 63.145272  "
     id="path3381" />
  <path
     style="fill:none;stroke:#1f497d;stroke-width:0.88630456000000002px;stroke-linejoin:round;stroke-dasharray:none;stroke-opacity:1;-inkscape-font-specification:Times New Roman;font-family:Times New Roman;font-weight:normal;font-style:normal;font-stretch:normal;font-variant:normal;font-size:12px;text-anchor:start;text-align:start;writing-mode:lr;line-height:125%"
     d="  M 55.504822 80.901411   L 73.230912 80.901411  "
     id="path3383" />
<!-- EMR_POLYPOLYGON16... -->  <path
     style="fill:#9ab3d1;fill-rule:evenodd;fill-opacity:1;stroke:none;-inkscape-font-specification:Times New Roman;font-family:Times New Roman;font-weight:normal;font-style:normal;font-stretch:normal;font-variant:normal;font-size:12px;text-anchor:start;text-align:start;writing-mode:lr;line-height:125%"
     d="  M 55.504822 21.418343   L 55.394034 20.752488   L 54.950881 20.197609   L 54.396941 19.753705   L 53.732213 19.64273   L 53.067484 19.753705   L 52.513544 20.197609   L 52.070392 20.752488   L 51.959604 21.418343   L 52.070392 22.084199   L 52.513544 22.639078   L 53.067484 23.082982   L 53.732213 23.193957   L 54.396941 23.082982   L 54.950881 22.639078   L 55.394034 22.084199   L 55.504822 21.418343  z   "
     id="path3385" />
  <path
     style="fill:none;stroke:#1f497d;stroke-width:0.88630456000000002px;stroke-linejoin:round;stroke-dasharray:none;stroke-opacity:1;-inkscape-font-specification:Times New Roman;font-family:Times New Roman;font-weight:normal;font-style:normal;font-stretch:normal;font-variant:normal;font-size:12px;text-anchor:start;text-align:start;writing-mode:lr;line-height:125%"
     d="  M 55.504822 21.418343   L 55.394034 20.752488   L 54.950881 20.197609   L 54.396941 19.753705   L 53.732213 19.64273   L 53.067484 19.753705   L 52.513544 20.197609   L 52.070392 20.752488   L 51.959604 21.418343   L 52.070392 22.084199   L 52.513544 22.639078   L 53.067484 23.082982   L 53.732213 23.193957   L 54.396941 23.082982   L 54.950881 22.639078   L 55.394034 22.084199   L 55.504822 21.418343  "
     id="path3387" />
<!-- EMR_POLYPOLYGON16... -->  <path
     style="fill:#9ab3d1;fill-rule:evenodd;fill-opacity:1;stroke:none;-inkscape-font-specification:Times New Roman;font-family:Times New Roman;font-weight:normal;font-style:normal;font-stretch:normal;font-variant:normal;font-size:12px;text-anchor:start;text-align:start;writing-mode:lr;line-height:125%"
     d="  M 55.504822 39.174483   L 55.394034 38.508628   L 54.950881 37.953749   L 54.396941 37.509845   L 53.732213 37.398869   L 53.067484 37.509845   L 52.513544 37.953749   L 52.070392 38.508628   L 51.959604 39.174483   L 52.070392 39.840338   L 52.513544 40.395218   L 53.067484 40.839121   L 53.732213 40.950097   L 54.396941 40.839121   L 54.950881 40.395218   L 55.394034 39.840338   L 55.504822 39.174483  z   "
     id="path3389" />
  <path
     style="fill:none;stroke:#1f497d;stroke-width:0.88630456000000002px;stroke-linejoin:round;stroke-dasharray:none;stroke-opacity:1;-inkscape-font-specification:Times New Roman;font-family:Times New Roman;font-weight:normal;font-style:normal;font-stretch:normal;font-variant:normal;font-size:12px;text-anchor:start;text-align:start;writing-mode:lr;line-height:125%"
     d="  M 55.504822 39.174483   L 55.394034 38.508628   L 54.950881 37.953749   L 54.396941 37.509845   L 53.732213 37.398869   L 53.067484 37.509845   L 52.513544 37.953749   L 52.070392 38.508628   L 51.959604 39.174483   L 52.070392 39.840338   L 52.513544 40.395218   L 53.067484 40.839121   L 53.732213 40.950097   L 54.396941 40.839121   L 54.950881 40.395218   L 55.394034 39.840338   L 55.504822 39.174483  "
     id="path3391" />
<!-- EMR_POLYPOLYGON16... -->  <path
     style="fill:#9ab3d1;fill-rule:evenodd;fill-opacity:1;stroke:none;-inkscape-font-specification:Times New Roman;font-family:Times New Roman;font-weight:normal;font-style:normal;font-stretch:normal;font-variant:normal;font-size:12px;text-anchor:start;text-align:start;writing-mode:lr;line-height:125%"
     d="  M 55.504822 63.145272   L 55.394034 62.368441   L 54.950881 61.813561   L 54.396941 61.480634   L 53.732213 61.369658   L 53.067484 61.480634   L 52.513544 61.813561   L 52.070392 62.368441   L 51.959604 63.145272   L 52.070392 63.811127   L 52.513544 64.366006   L 53.067484 64.698934   L 53.732213 64.920886   L 54.396941 64.698934   L 54.950881 64.366006   L 55.394034 63.811127   L 55.504822 63.145272  z   "
     id="path3393" />
  <path
     style="fill:none;stroke:#1f497d;stroke-width:0.88630456000000002px;stroke-linejoin:round;stroke-dasharray:none;stroke-opacity:1;-inkscape-font-specification:Times New Roman;font-family:Times New Roman;font-weight:normal;font-style:normal;font-stretch:normal;font-variant:normal;font-size:12px;text-anchor:start;text-align:start;writing-mode:lr;line-height:125%"
     d="  M 55.504822 63.145272   L 55.394034 62.368441   L 54.950881 61.813561   L 54.396941 61.480634   L 53.732213 61.369658   L 53.067484 61.480634   L 52.513544 61.813561   L 52.070392 62.368441   L 51.959604 63.145272   L 52.070392 63.811127   L 52.513544 64.366006   L 53.067484 64.698934   L 53.732213 64.920886   L 54.396941 64.698934   L 54.950881 64.366006   L 55.394034 63.811127   L 55.504822 63.145272  "
     id="path3395" />
<!-- EMR_POLYPOLYGON16... -->  <path
     style="fill:#9ab3d1;fill-rule:evenodd;fill-opacity:1;stroke:none;-inkscape-font-specification:Times New Roman;font-family:Times New Roman;font-weight:normal;font-style:normal;font-stretch:normal;font-variant:normal;font-size:12px;text-anchor:start;text-align:start;writing-mode:lr;line-height:125%"
     d="  M 55.504822 80.901411   L 55.394034 80.12458   L 54.950881 79.569701   L 54.396941 79.236773   L 53.732213 79.125797   L 53.067484 79.236773   L 52.513544 79.569701   L 52.070392 80.12458   L 51.959604 80.901411   L 52.070392 81.567267   L 52.513544 82.122146   L 53.067484 82.455074   L 53.732213 82.677025   L 54.396941 82.455074   L 54.950881 82.122146   L 55.394034 81.567267   L 55.504822 80.901411  z   "
     id="path3397" />
  <path
     style="fill:none;stroke:#1f497d;stroke-width:0.88630456000000002px;stroke-linejoin:round;stroke-dasharray:none;stroke-opacity:1;-inkscape-font-specification:Times New Roman;font-family:Times New Roman;font-weight:normal;font-style:normal;font-stretch:normal;font-variant:normal;font-size:12px;text-anchor:start;text-align:start;writing-mode:lr;line-height:125%"
     d="  M 55.504822 80.901411   L 55.394034 80.12458   L 54.950881 79.569701   L 54.396941 79.236773   L 53.732213 79.125797   L 53.067484 79.236773   L 52.513544 79.569701   L 52.070392 80.12458   L 51.959604 80.901411   L 52.070392 81.567267   L 52.513544 82.122146   L 53.067484 82.455074   L 53.732213 82.677025   L 54.396941 82.455074   L 54.950881 82.122146   L 55.394034 81.567267   L 55.504822 80.901411  "
     id="path3399" />
  <path
     style="fill:none;stroke:#1f497d;stroke-width:0.88630456000000002px;stroke-linejoin:round;stroke-dasharray:none;stroke-opacity:1;-inkscape-font-specification:Times New Roman;font-family:Times New Roman;font-weight:normal;font-style:normal;font-stretch:normal;font-variant:normal;font-size:12px;text-anchor:start;text-align:start;writing-mode:lr;line-height:125%"
     d="  M 23.597858 21.418343   L 24.484163 20.863464   L 25.148891 20.530537   L 25.481255 20.530537   L 25.81362 20.530537   L 26.035196 20.752488   L 26.478348 21.196392   L 26.810712 21.640295   L 27.143076 22.195175   L 27.586229 22.639078   L 28.029381 22.972006   L 28.472533 22.972006   L 28.915686 22.750054   L 29.358838 22.30615   L 29.691202 21.862247   L 30.466718 20.641512   L 30.909871 20.197609   L 31.242235 19.864681   L 31.685387 19.753705   L 32.128539 19.975657   L 32.460904 20.419561   L 32.904056 20.97444   L 33.457996 21.973223   L 34.122725 22.750054   L 34.344301 23.082982   L 34.676665 23.193957   L 35.009029 23.193957   L 35.341393 22.972006   L 35.56297 22.750054   L 35.784546 22.417126   L 36.338486 21.640295   L 36.892426 20.97444   L 37.335579 20.641512   L 37.667943 20.530537   L 38.111095 20.641512   L 38.665035 20.752488   L 39.772916 21.307368   L 40.216068 21.418343  "
     id="path3401" />
  <path
     style="fill:#1f497d;fill-rule:evenodd;fill-opacity:1;stroke:none;-inkscape-font-specification:Times New Roman;font-family:Times New Roman;font-weight:normal;font-style:normal;font-stretch:normal;font-variant:normal;font-size:12px;text-anchor:start;text-align:start;writing-mode:lr;line-height:125%"
     d="  M 47.638869 21.418343   L 39.55134 24.19274   L 39.55134 18.754923  z "
     id="path3403" />
  <path
     style="fill:none;stroke:#1f497d;stroke-width:0.88630456000000002px;stroke-linejoin:round;stroke-dasharray:none;stroke-opacity:1;-inkscape-font-specification:Times New Roman;font-family:Times New Roman;font-weight:normal;font-style:normal;font-stretch:normal;font-variant:normal;font-size:12px;text-anchor:start;text-align:start;writing-mode:lr;line-height:125%"
     d="  M 23.597858 63.145272   L 24.484163 62.590392   L 25.148891 62.257465   L 25.481255 62.257465   L 25.81362 62.257465   L 26.035196 62.479417   L 26.478348 62.812344   L 26.810712 63.367223   L 27.143076 63.922103   L 27.586229 64.366006   L 28.029381 64.698934   L 28.472533 64.698934   L 28.915686 64.476982   L 29.358838 64.033079   L 29.691202 63.478199   L 30.466718 62.368441   L 30.909871 61.924537   L 31.242235 61.59161   L 31.685387 61.480634   L 32.128539 61.702585   L 32.460904 62.146489   L 32.904056 62.701368   L 33.457996 63.589175   L 34.122725 64.476982   L 34.344301 64.698934   L 34.676665 64.920886   L 35.009029 64.920886   L 35.341393 64.698934   L 35.56297 64.476982   L 35.784546 64.144055   L 36.338486 63.367223   L 36.892426 62.590392   L 37.335579 62.368441   L 37.667943 62.257465   L 38.111095 62.368441   L 38.665035 62.479417   L 39.772916 63.034296   L 40.216068 63.145272  "
     id="path3405" />
  <path
     style="fill:#1f497d;fill-rule:evenodd;fill-opacity:1;stroke:none;-inkscape-font-specification:Times New Roman;font-family:Times New Roman;font-weight:normal;font-style:normal;font-stretch:normal;font-variant:normal;font-size:12px;text-anchor:start;text-align:start;writing-mode:lr;line-height:125%"
     d="  M 47.638869 63.145272   L 39.55134 65.919669   L 39.55134 60.481851  z "
     id="path3407" />
  <path
     style="fill:none;stroke:#1f497d;stroke-width:0.88630456000000002px;stroke-linejoin:round;stroke-dasharray:none;stroke-opacity:1;-inkscape-font-specification:Times New Roman;font-family:Times New Roman;font-weight:normal;font-style:normal;font-stretch:normal;font-variant:normal;font-size:12px;text-anchor:start;text-align:start;writing-mode:lr;line-height:125%"
     d="  M 47.306505 39.174483   L 46.4202 39.729363   L 45.755472 40.06229   L 45.423108 40.06229   L 45.090743 39.951314   L 44.869167 39.729363   L 44.536803 39.396435   L 44.093651 38.952531   L 43.761287 38.397652   L 43.318134 37.842773   L 42.874982 37.620821   L 42.43183 37.509845   L 41.988677 37.731797   L 41.545525 38.1757   L 41.213161 38.73058   L 40.437645 39.951314   L 39.994492 40.395218   L 39.662128 40.728145   L 39.218976 40.728145   L 38.775824 40.506194   L 38.443459 40.173266   L 38.000307 39.618387   L 37.446367 38.619604   L 36.781638 37.842773   L 36.560062 37.509845   L 36.227698 37.398869   L 35.895334 37.398869   L 35.56297 37.509845   L 35.341393 37.842773   L 35.119817 38.1757   L 34.565877 38.952531   L 34.011937 39.618387   L 33.568784 39.840338   L 33.23642 39.951314   L 32.793268 39.951314   L 32.239328 39.729363   L 31.131447 39.285459   L 30.688295 39.063507  "
     id="path3409" />
  <path
     style="fill:#1f497d;fill-rule:evenodd;fill-opacity:1;stroke:none;-inkscape-font-specification:Times New Roman;font-family:Times New Roman;font-weight:normal;font-style:normal;font-stretch:normal;font-variant:normal;font-size:12px;text-anchor:start;text-align:start;writing-mode:lr;line-height:125%"
     d="  M 23.265494 39.174483   L 31.353023 36.400086   L 31.353023 41.837904  z "
     id="path3411" />
  <path
     style="fill:none;stroke:#1f497d;stroke-width:0.88630456000000002px;stroke-linejoin:round;stroke-dasharray:none;stroke-opacity:1;-inkscape-font-specification:Times New Roman;font-family:Times New Roman;font-weight:normal;font-style:normal;font-stretch:normal;font-variant:normal;font-size:12px;text-anchor:start;text-align:start;writing-mode:lr;line-height:125%"
     d="  M 47.638869 80.901411   L 46.752564 81.345315   L 46.087836 81.678243   L 45.755472 81.789218   L 45.533896 81.678243   L 45.201531 81.456291   L 44.869167 81.123363   L 44.426015 80.568484   L 44.093651 80.12458   L 43.650498 79.569701   L 43.207346 79.236773   L 42.764194 79.236773   L 42.321042 79.458725   L 41.988677 79.902629   L 41.545525 80.457508   L 40.770009 81.567267   L 40.326856 82.122146   L 39.994492 82.344098   L 39.55134 82.455074   L 39.218976 82.233122   L 38.775824 81.900194   L 38.332671 81.234339   L 37.778731 80.346532   L 37.224791 79.569701   L 36.892426 79.236773   L 36.560062 79.125797   L 36.227698 79.014822   L 35.895334 79.236773   L 35.673758 79.569701   L 35.452182 79.902629   L 34.898241 80.67946   L 34.344301 81.345315   L 34.011937 81.567267   L 33.568784 81.678243   L 33.125632 81.678243   L 32.571692 81.456291   L 31.574599 81.012387   L 31.020659 80.790436  "
     id="path3413" />
  <path
     style="fill:#1f497d;fill-rule:evenodd;fill-opacity:1;stroke:none;-inkscape-font-specification:Times New Roman;font-family:Times New Roman;font-weight:normal;font-style:normal;font-stretch:normal;font-variant:normal;font-size:12px;text-anchor:start;text-align:start;writing-mode:lr;line-height:125%"
     d="  M 23.597858 80.901411   L 31.685387 78.127015   L 31.685387 83.453857  z "
     id="path3415" />
  <path
     style="fill:none;stroke:#1f497d;stroke-width:0.88630456000000002px;stroke-linejoin:round;stroke-dasharray:none;stroke-opacity:1;-inkscape-font-specification:Times New Roman;font-family:Times New Roman;font-weight:normal;font-style:normal;font-stretch:normal;font-variant:normal;font-size:12px;text-anchor:start;text-align:start;writing-mode:lr;line-height:125%"
     d="  M 55.504822 149.26255   L 73.230912 149.26255  "
     id="path3417" />
  <path
     style="fill:none;stroke:#1f497d;stroke-width:0.88630456000000002px;stroke-linejoin:round;stroke-dasharray:none;stroke-opacity:1;-inkscape-font-specification:Times New Roman;font-family:Times New Roman;font-weight:normal;font-style:normal;font-stretch:normal;font-variant:normal;font-size:12px;text-anchor:start;text-align:start;writing-mode:lr;line-height:125%"
     d="  M 55.504822 167.01869   L 73.230912 167.01869  "
     id="path3419" />
<!-- EMR_POLYPOLYGON16... -->  <path
     style="fill:#9ab3d1;fill-rule:evenodd;fill-opacity:1;stroke:none;-inkscape-font-specification:Times New Roman;font-family:Times New Roman;font-weight:normal;font-style:normal;font-stretch:normal;font-variant:normal;font-size:12px;text-anchor:start;text-align:start;writing-mode:lr;line-height:125%"
     d="  M 55.504822 149.26255   L 55.394034 148.59669   L 54.950881 148.04181   L 54.396941 147.59791   L 53.732213 147.48694   L 53.067484 147.59791   L 52.513544 148.04181   L 52.070392 148.59669   L 51.959604 149.26255   L 52.070392 149.9284   L 52.513544 150.48328   L 53.067484 150.92719   L 53.732213 151.03816   L 54.396941 150.92719   L 54.950881 150.48328   L 55.394034 149.9284   L 55.504822 149.26255  z   "
     id="path3421" />
  <path
     style="fill:none;stroke:#1f497d;stroke-width:0.88630456000000002px;stroke-linejoin:round;stroke-dasharray:none;stroke-opacity:1;-inkscape-font-specification:Times New Roman;font-family:Times New Roman;font-weight:normal;font-style:normal;font-stretch:normal;font-variant:normal;font-size:12px;text-anchor:start;text-align:start;writing-mode:lr;line-height:125%"
     d="  M 55.504822 149.26255   L 55.394034 148.59669   L 54.950881 148.04181   L 54.396941 147.59791   L 53.732213 147.48694   L 53.067484 147.59791   L 52.513544 148.04181   L 52.070392 148.59669   L 51.959604 149.26255   L 52.070392 149.9284   L 52.513544 150.48328   L 53.067484 150.92719   L 53.732213 151.03816   L 54.396941 150.92719   L 54.950881 150.48328   L 55.394034 149.9284   L 55.504822 149.26255  "
     id="path3423" />
<!-- EMR_POLYPOLYGON16... -->  <path
     style="fill:#9ab3d1;fill-rule:evenodd;fill-opacity:1;stroke:none;-inkscape-font-specification:Times New Roman;font-family:Times New Roman;font-weight:normal;font-style:normal;font-stretch:normal;font-variant:normal;font-size:12px;text-anchor:start;text-align:start;writing-mode:lr;line-height:125%"
     d="  M 55.504822 167.01869   L 55.394034 166.35283   L 54.950881 165.79795   L 54.396941 165.35405   L 53.732213 165.24307   L 53.067484 165.35405   L 52.513544 165.79795   L 52.070392 166.35283   L 51.959604 167.01869   L 52.070392 167.68454   L 52.513544 168.23942   L 53.067484 168.68333   L 53.732213 168.7943   L 54.396941 168.68333   L 54.950881 168.23942   L 55.394034 167.68454   L 55.504822 167.01869  z   "
     id="path3425" />
  <path
     style="fill:none;stroke:#1f497d;stroke-width:0.88630456000000002px;stroke-linejoin:round;stroke-dasharray:none;stroke-opacity:1;-inkscape-font-specification:Times New Roman;font-family:Times New Roman;font-weight:normal;font-style:normal;font-stretch:normal;font-variant:normal;font-size:12px;text-anchor:start;text-align:start;writing-mode:lr;line-height:125%"
     d="  M 55.504822 167.01869   L 55.394034 166.35283   L 54.950881 165.79795   L 54.396941 165.35405   L 53.732213 165.24307   L 53.067484 165.35405   L 52.513544 165.79795   L 52.070392 166.35283   L 51.959604 167.01869   L 52.070392 167.68454   L 52.513544 168.23942   L 53.067484 168.68333   L 53.732213 168.7943   L 54.396941 168.68333   L 54.950881 168.23942   L 55.394034 167.68454   L 55.504822 167.01869  "
     id="path3427" />
  <path
     style="fill:none;stroke:#1f497d;stroke-width:0.88630456000000002px;stroke-linejoin:round;stroke-dasharray:none;stroke-opacity:1;-inkscape-font-specification:Times New Roman;font-family:Times New Roman;font-weight:normal;font-style:normal;font-stretch:normal;font-variant:normal;font-size:12px;text-anchor:start;text-align:start;writing-mode:lr;line-height:125%"
     d="  M 23.597858 149.26255   L 24.484163 148.70767   L 25.148891 148.37474   L 25.481255 148.37474   L 25.81362 148.37474   L 26.035196 148.59669   L 26.478348 149.0406   L 26.810712 149.4845   L 27.143076 150.03938   L 27.586229 150.48328   L 28.029381 150.81621   L 28.472533 150.81621   L 28.915686 150.59426   L 29.358838 150.15036   L 29.691202 149.70645   L 30.466718 148.48572   L 30.909871 148.04181   L 31.242235 147.70889   L 31.685387 147.59791   L 32.128539 147.81986   L 32.460904 148.26377   L 32.904056 148.81865   L 33.457996 149.81743   L 34.122725 150.59426   L 34.344301 150.92719   L 34.676665 151.03816   L 35.009029 151.03816   L 35.341393 150.81621   L 35.56297 150.59426   L 35.784546 150.26133   L 36.338486 149.4845   L 36.892426 148.81865   L 37.335579 148.48572   L 37.667943 148.37474   L 38.111095 148.48572   L 38.665035 148.59669   L 39.772916 149.15157   L 40.216068 149.26255  "
     id="path3429" />
  <path
     style="fill:#1f497d;fill-rule:evenodd;fill-opacity:1;stroke:none;-inkscape-font-specification:Times New Roman;font-family:Times New Roman;font-weight:normal;font-style:normal;font-stretch:normal;font-variant:normal;font-size:12px;text-anchor:start;text-align:start;writing-mode:lr;line-height:125%"
     d="  M 47.638869 149.26255   L 39.55134 152.03695   L 39.55134 146.59913  z "
     id="path3431" />
  <path
     style="fill:none;stroke:#1f497d;stroke-width:0.88630456000000002px;stroke-linejoin:round;stroke-dasharray:none;stroke-opacity:1;-inkscape-font-specification:Times New Roman;font-family:Times New Roman;font-weight:normal;font-style:normal;font-stretch:normal;font-variant:normal;font-size:12px;text-anchor:start;text-align:start;writing-mode:lr;line-height:125%"
     d="  M 47.638869 167.01869   L 46.752564 167.57357   L 46.087836 167.9065   L 45.755472 167.9065   L 45.533896 167.79552   L 45.201531 167.57357   L 44.869167 167.24064   L 44.426015 166.79674   L 44.093651 166.24186   L 43.650498 165.68698   L 43.207346 165.46503   L 42.764194 165.35405   L 42.321042 165.576   L 41.988677 166.01991   L 41.545525 166.57479   L 40.770009 167.79552   L 40.326856 168.23942   L 39.994492 168.57235   L 39.55134 168.57235   L 39.218976 168.3504   L 38.775824 168.01747   L 38.332671 167.46259   L 37.778731 166.46381   L 37.224791 165.68698   L 36.892426 165.35405   L 36.560062 165.24307   L 36.227698 165.24307   L 35.895334 165.35405   L 35.673758 165.68698   L 35.452182 166.01991   L 34.898241 166.79674   L 34.344301 167.46259   L 34.011937 167.68454   L 33.568784 167.79552   L 33.125632 167.79552   L 32.571692 167.57357   L 31.574599 167.12966   L 31.020659 166.90771  "
     id="path3433" />
  <path
     style="fill:#1f497d;fill-rule:evenodd;fill-opacity:1;stroke:none;-inkscape-font-specification:Times New Roman;font-family:Times New Roman;font-weight:normal;font-style:normal;font-stretch:normal;font-variant:normal;font-size:12px;text-anchor:start;text-align:start;writing-mode:lr;line-height:125%"
     d="  M 23.597858 167.01869   L 31.685387 164.24429   L 31.685387 169.68211  z "
     id="path3435" />
  <path
     style="fill:none;stroke:#1f497d;stroke-width:0.88630456000000002px;stroke-linejoin:round;stroke-dasharray:none;stroke-opacity:1;-inkscape-font-specification:Times New Roman;font-family:Times New Roman;font-weight:normal;font-style:normal;font-stretch:normal;font-variant:normal;font-size:12px;text-anchor:start;text-align:start;writing-mode:lr;line-height:125%"
     d="  M 286.27637 103.09659   L 268.55027 103.09659  "
     id="path3437" />
  <path
     style="fill:none;stroke:#1f497d;stroke-width:0.88630456000000002px;stroke-linejoin:round;stroke-dasharray:none;stroke-opacity:1;-inkscape-font-specification:Times New Roman;font-family:Times New Roman;font-weight:normal;font-style:normal;font-stretch:normal;font-variant:normal;font-size:12px;text-anchor:start;text-align:start;writing-mode:lr;line-height:125%"
     d="  M 286.27637 85.340446   L 268.55027 85.340446  "
     id="path3439" />
<!-- EMR_POLYPOLYGON16... -->  <path
     style="fill:#9ab3d1;fill-rule:evenodd;fill-opacity:1;stroke:none;-inkscape-font-specification:Times New Roman;font-family:Times New Roman;font-weight:normal;font-style:normal;font-stretch:normal;font-variant:normal;font-size:12px;text-anchor:start;text-align:start;writing-mode:lr;line-height:125%"
     d="  M 286.27637 103.09659   L 286.38715 103.76244   L 286.83031 104.31732   L 287.38425 104.76122   L 288.04897 104.8722   L 288.7137 104.76122   L 289.26764 104.31732   L 289.7108 103.76244   L 289.82158 103.09659   L 289.7108 102.43073   L 289.26764 101.87585   L 288.7137 101.43195   L 288.04897 101.32097   L 287.38425 101.43195   L 286.83031 101.87585   L 286.38715 102.43073   L 286.27637 103.09659  z   "
     id="path3441" />
  <path
     style="fill:none;stroke:#1f497d;stroke-width:0.88630456000000002px;stroke-linejoin:round;stroke-dasharray:none;stroke-opacity:1;-inkscape-font-specification:Times New Roman;font-family:Times New Roman;font-weight:normal;font-style:normal;font-stretch:normal;font-variant:normal;font-size:12px;text-anchor:start;text-align:start;writing-mode:lr;line-height:125%"
     d="  M 286.27637 103.09659   L 286.38715 103.76244   L 286.83031 104.31732   L 287.38425 104.76122   L 288.04897 104.8722   L 288.7137 104.76122   L 289.26764 104.31732   L 289.7108 103.76244   L 289.82158 103.09659   L 289.7108 102.43073   L 289.26764 101.87585   L 288.7137 101.43195   L 288.04897 101.32097   L 287.38425 101.43195   L 286.83031 101.87585   L 286.38715 102.43073   L 286.27637 103.09659  "
     id="path3443" />
<!-- EMR_POLYPOLYGON16... -->  <path
     style="fill:#9ab3d1;fill-rule:evenodd;fill-opacity:1;stroke:none;-inkscape-font-specification:Times New Roman;font-family:Times New Roman;font-weight:normal;font-style:normal;font-stretch:normal;font-variant:normal;font-size:12px;text-anchor:start;text-align:start;writing-mode:lr;line-height:125%"
     d="  M 286.27637 85.340446   L 286.38715 86.006302   L 286.83031 86.561181   L 287.38425 87.005084   L 288.04897 87.11606   L 288.7137 87.005084   L 289.26764 86.561181   L 289.7108 86.006302   L 289.82158 85.340446   L 289.7108 84.674591   L 289.26764 84.119712   L 288.7137 83.675808   L 288.04897 83.564832   L 287.38425 83.675808   L 286.83031 84.119712   L 286.38715 84.674591   L 286.27637 85.340446  z   "
     id="path3445" />
  <path
     style="fill:none;stroke:#1f497d;stroke-width:0.88630456000000002px;stroke-linejoin:round;stroke-dasharray:none;stroke-opacity:1;-inkscape-font-specification:Times New Roman;font-family:Times New Roman;font-weight:normal;font-style:normal;font-stretch:normal;font-variant:normal;font-size:12px;text-anchor:start;text-align:start;writing-mode:lr;line-height:125%"
     d="  M 286.27637 85.340446   L 286.38715 86.006302   L 286.83031 86.561181   L 287.38425 87.005084   L 288.04897 87.11606   L 288.7137 87.005084   L 289.26764 86.561181   L 289.7108 86.006302   L 289.82158 85.340446   L 289.7108 84.674591   L 289.26764 84.119712   L 288.7137 83.675808   L 288.04897 83.564832   L 287.38425 83.675808   L 286.83031 84.119712   L 286.38715 84.674591   L 286.27637 85.340446  "
     id="path3447" />
  <path
     style="fill:none;stroke:#1f497d;stroke-width:0.88630456000000002px;stroke-linejoin:round;stroke-dasharray:none;stroke-opacity:1;-inkscape-font-specification:Times New Roman;font-family:Times New Roman;font-weight:normal;font-style:normal;font-stretch:normal;font-variant:normal;font-size:12px;text-anchor:start;text-align:start;writing-mode:lr;line-height:125%"
     d="  M 318.18333 103.09659   L 317.29702 103.65147   L 316.6323 103.98439   L 316.29993 103.98439   L 315.96757 103.87342   L 315.6352 103.76244   L 315.30284 103.31854   L 314.97048 102.87463   L 314.63811 102.31975   L 314.19496 101.76488   L 313.75181 101.54292   L 313.30865 101.43195   L 312.8655 101.76488   L 312.42235 102.0978   L 312.08999 102.65268   L 311.31447 103.87342   L 310.87132 104.31732   L 310.53895 104.65025   L 310.0958 104.65025   L 309.65265 104.53927   L 309.32028 104.09537   L 308.87713 103.54049   L 308.32319 102.54171   L 307.65846 101.76488   L 307.43689 101.43195   L 307.10452 101.32097   L 306.77216 101.32097   L 306.43979 101.43195   L 305.99664 102.0978   L 305.4427 102.87463   L 304.77797 103.54049   L 304.44561 103.76244   L 304.11324 103.87342   L 303.5593 103.87342   L 303.11615 103.65147   L 302.00827 103.20756   L 301.56512 102.98561  "
     id="path3449" />
  <path
     style="fill:#1f497d;fill-rule:evenodd;fill-opacity:1;stroke:none;-inkscape-font-specification:Times New Roman;font-family:Times New Roman;font-weight:normal;font-style:normal;font-stretch:normal;font-variant:normal;font-size:12px;text-anchor:start;text-align:start;writing-mode:lr;line-height:125%"
     d="  M 294.03153 103.09659   L 302.11906 100.32219   L 302.22985 105.76001  z "
     id="path3451" />
  <path
     style="fill:none;stroke:#1f497d;stroke-width:0.88630456000000002px;stroke-linejoin:round;stroke-dasharray:none;stroke-opacity:1;-inkscape-font-specification:Times New Roman;font-family:Times New Roman;font-weight:normal;font-style:normal;font-stretch:normal;font-variant:normal;font-size:12px;text-anchor:start;text-align:start;writing-mode:lr;line-height:125%"
     d="  M 294.03153 85.340446   L 295.02862 84.785567   L 295.69335 84.452639   L 296.02572 84.452639   L 296.24729 84.452639   L 296.57966 84.674591   L 296.91202 85.118495   L 297.35517 85.562398   L 297.68754 86.117277   L 298.13069 86.561181   L 298.57384 86.894109   L 299.01699 86.894109   L 299.34936 86.672157   L 299.79251 86.228253   L 300.23566 85.78435   L 301.01118 84.563615   L 301.34354 84.119712   L 301.7867 83.786784   L 302.22985 83.675808   L 302.56221 83.89776   L 303.00536 84.341663   L 303.44852 84.896543   L 304.00246 85.895326   L 304.5564 86.672157   L 304.88876 87.005084   L 305.22113 87.11606   L 305.55349 87.11606   L 305.88585 86.894109   L 306.10743 86.672157   L 306.32901 86.339229   L 306.88295 85.562398   L 307.43689 84.896543   L 307.76925 84.563615   L 308.2124 84.452639   L 308.65556 84.563615   L 309.2095 84.674591   L 310.20659 85.22947   L 310.76053 85.451422  "
     id="path3453" />
  <path
     style="fill:#1f497d;fill-rule:evenodd;fill-opacity:1;stroke:none;-inkscape-font-specification:Times New Roman;font-family:Times New Roman;font-weight:normal;font-style:normal;font-stretch:normal;font-variant:normal;font-size:12px;text-anchor:start;text-align:start;writing-mode:lr;line-height:125%"
     d="  M 318.18333 85.340446   L 310.0958 88.114843   L 310.0958 82.677025  z "
     id="path3455" />
<!-- EMR_POLYPOLYGON16... -->  <path
     style="fill:#1f497d;fill-rule:nonzero;fill-opacity:1;stroke:#1f497d;stroke-width:0.11078807000000000px;stroke-linejoin:round;stroke-dasharray:none;stroke-opacity:1;-inkscape-font-specification:Times New Roman;font-family:Times New Roman;font-weight:normal;font-style:normal;font-stretch:normal;font-variant:normal;font-size:12px;text-anchor:start;text-align:start;writing-mode:lr;line-height:125%"
     d="  M 55.947974 101.32097   L 55.947974 107.6466   L 55.837186 107.97952   L 55.504822 108.0905   L 55.172457 107.97952   L 55.061669 107.6466   L 55.061669 101.32097   L 55.172457 100.98804   L 55.504822 100.87707   L 55.837186 100.98804   L 55.947974 101.32097   L 55.947974 101.32097  z    M 55.947974 112.08563   L 55.947974 118.41126   L 55.837186 118.74418   L 55.504822 118.85516   L 55.172457 118.74418   L 55.061669 118.41126   L 55.061669 112.08563   L 55.172457 111.7527   L 55.504822 111.64173   L 55.837186 111.7527   L 55.947974 112.08563   L 55.947974 112.08563  z    M 55.947974 122.96127   L 55.947974 129.28689   L 55.837186 129.61982   L 55.504822 129.7308   L 55.172457 129.61982   L 55.061669 129.28689   L 55.061669 122.96127   L 55.172457 122.62834   L 55.504822 122.51736   L 55.837186 122.62834   L 55.947974 122.96127   L 55.947974 122.96127  z   "
     id="path3457" />
<!-- EMR_SETBKMODE --><!-- EMR_SETTEXTCOLOR --><!-- EMR_SETTEXTALIGN -->  <text
     xml:space="preserve"
     x="1.4402449"
     y="24.969571"
     style="font-size:12px;fill:#000000;font-style:italic;font-weight:bold;font-family:Times New Roman;-inkscape-font-specification:Times New Roman Bold Italic;font-stretch:normal;font-variant:normal;text-anchor:start;text-align:start;writing-mode:lr;line-height:125%;fill-opacity:1"
     id="text3459"
     sodipodi:linespacing="125%">a</text>
<!-- EMR_SETBKMODE --><!-- EMR_SETTEXTCOLOR --><!-- EMR_SETTEXTALIGN -->  <text
     xml:space="preserve"
     x="8.9738334"
     y="27.189089"
     style="font-size:8px;fill:#000000;font-style:normal;font-weight:normal;font-family:Times New Roman;-inkscape-font-specification:Times New Roman;font-stretch:normal;font-variant:normal;text-anchor:start;text-align:start;writing-mode:lr;line-height:125%;fill-opacity:1"
     id="text3461"
     sodipodi:linespacing="125%">1</text>
<!-- EMR_SETBKMODE --><!-- EMR_SETTEXTCOLOR --><!-- EMR_SETTEXTALIGN -->  <text
     xml:space="preserve"
     x="1.4402449"
     y="66.807476"
     style="font-size:12px;fill:#000000;font-style:italic;font-weight:bold;font-family:Times New Roman;-inkscape-font-specification:Times New Roman Bold Italic;font-stretch:normal;font-variant:normal;text-anchor:start;text-align:start;writing-mode:lr;line-height:125%;fill-opacity:1"
     id="text3463"
     sodipodi:linespacing="125%">a</text>
<!-- EMR_SETBKMODE --><!-- EMR_SETTEXTCOLOR --><!-- EMR_SETTEXTALIGN -->  <text
     xml:space="preserve"
     x="8.9738334"
     y="68.916017"
     style="font-size:8px;fill:#000000;font-style:normal;font-weight:normal;font-family:Times New Roman;-inkscape-font-specification:Times New Roman;font-stretch:normal;font-variant:normal;text-anchor:start;text-align:start;writing-mode:lr;line-height:125%;fill-opacity:1"
     id="text3465"
     sodipodi:linespacing="125%">2</text>
<!-- EMR_SETBKMODE --><!-- EMR_SETTEXTCOLOR --><!-- EMR_SETTEXTALIGN -->  <text
     xml:space="preserve"
     x="3.8775824"
     y="151.14914"
     style="font-size:12px;fill:#000000;font-style:italic;font-weight:bold;font-family:Times New Roman;-inkscape-font-specification:Times New Roman Bold Italic;font-stretch:normal;font-variant:normal;text-anchor:start;text-align:start;writing-mode:lr;line-height:125%;fill-opacity:1"
     id="text3467"
     sodipodi:linespacing="125%">a</text>
<!-- EMR_SETBKMODE --><!-- EMR_SETTEXTCOLOR --><!-- EMR_SETTEXTALIGN -->  <text
     xml:space="preserve"
     x="11.411171"
     y="153.25768"
     style="font-size:8px;fill:#000000;font-style:normal;font-weight:normal;font-family:Times New Roman;-inkscape-font-specification:Times New Roman;font-stretch:normal;font-variant:normal;text-anchor:start;text-align:start;writing-mode:lr;line-height:125%;fill-opacity:1"
     id="text3469"
     sodipodi:linespacing="125%">N</text>
<!-- EMR_SETBKMODE --><!-- EMR_SETTEXTCOLOR --><!-- EMR_SETTEXTALIGN -->  <text
     xml:space="preserve"
     x="1.4402449"
     y="43.724494"
     style="font-size:12px;fill:#000000;font-style:italic;font-weight:bold;font-family:Times New Roman;-inkscape-font-specification:Times New Roman Bold Italic;font-stretch:normal;font-variant:normal;text-anchor:start;text-align:start;writing-mode:lr;line-height:125%;fill-opacity:1"
     id="text3471"
     sodipodi:linespacing="125%">b</text>
<!-- EMR_SETBKMODE --><!-- EMR_SETTEXTCOLOR --><!-- EMR_SETTEXTALIGN -->  <text
     xml:space="preserve"
     x="8.9738334"
     y="45.833036"
     style="font-size:8px;fill:#000000;font-style:normal;font-weight:normal;font-family:Times New Roman;-inkscape-font-specification:Times New Roman;font-stretch:normal;font-variant:normal;text-anchor:start;text-align:start;writing-mode:lr;line-height:125%;fill-opacity:1"
     id="text3473"
     sodipodi:linespacing="125%">1</text>
<!-- EMR_SETBKMODE --><!-- EMR_SETTEXTCOLOR --><!-- EMR_SETTEXTALIGN -->  <text
     xml:space="preserve"
     x="1.4402449"
     y="85.340446"
     style="font-size:12px;fill:#000000;font-style:italic;font-weight:bold;font-family:Times New Roman;-inkscape-font-specification:Times New Roman Bold Italic;font-stretch:normal;font-variant:normal;text-anchor:start;text-align:start;writing-mode:lr;line-height:125%;fill-opacity:1"
     id="text3475"
     sodipodi:linespacing="125%">b</text>
<!-- EMR_SETBKMODE --><!-- EMR_SETTEXTCOLOR --><!-- EMR_SETTEXTALIGN -->  <text
     xml:space="preserve"
     x="8.8630454"
     y="87.559964"
     style="font-size:8px;fill:#000000;font-style:normal;font-weight:normal;font-family:Times New Roman;-inkscape-font-specification:Times New Roman;font-stretch:normal;font-variant:normal;text-anchor:start;text-align:start;writing-mode:lr;line-height:125%;fill-opacity:1"
     id="text3477"
     sodipodi:linespacing="125%">2</text>
<!-- EMR_SETBKMODE --><!-- EMR_SETTEXTCOLOR --><!-- EMR_SETTEXTALIGN -->  <text
     xml:space="preserve"
     x="3.8775824"
     y="168.90528"
     style="font-size:12px;fill:#000000;font-style:italic;font-weight:bold;font-family:Times New Roman;-inkscape-font-specification:Times New Roman Bold Italic;font-stretch:normal;font-variant:normal;text-anchor:start;text-align:start;writing-mode:lr;line-height:125%;fill-opacity:1"
     id="text3479"
     sodipodi:linespacing="125%">b</text>
<!-- EMR_SETBKMODE --><!-- EMR_SETTEXTCOLOR --><!-- EMR_SETTEXTALIGN -->  <text
     xml:space="preserve"
     x="11.411171"
     y="171.01382"
     style="font-size:8px;fill:#000000;font-style:normal;font-weight:normal;font-family:Times New Roman;-inkscape-font-specification:Times New Roman;font-stretch:normal;font-variant:normal;text-anchor:start;text-align:start;writing-mode:lr;line-height:125%;fill-opacity:1"
     id="text3481"
     sodipodi:linespacing="125%">N</text>
<!-- EMR_SETBKMODE --><!-- EMR_SETTEXTCOLOR --><!-- EMR_SETTEXTALIGN -->  <text
     xml:space="preserve"
     x="326.93559"
     y="89.00265"
     style="font-size:12px;fill:#000000;font-style:italic;font-weight:bold;font-family:Times New Roman;-inkscape-font-specification:Times New Roman Bold Italic;font-stretch:normal;font-variant:normal;text-anchor:start;text-align:start;writing-mode:lr;line-height:125%;fill-opacity:1;stroke:none;stroke-opacity:1"
     id="text3483"
     sodipodi:linespacing="125%">b</text>
<!-- EMR_SETBKMODE --><!-- EMR_SETTEXTCOLOR --><!-- EMR_SETTEXTALIGN -->  <text
     xml:space="preserve"
     x="334.46917"
     y="91.111192"
     style="font-size:8px;fill:#000000;font-style:normal;font-weight:normal;font-family:Times New Roman;-inkscape-font-specification:Times New Roman;font-stretch:normal;font-variant:normal;text-anchor:start;text-align:start;writing-mode:lr;line-height:125%;fill-opacity:1;stroke:none;stroke-opacity:1"
     id="text3485"
     sodipodi:linespacing="125%">N</text>
<!-- EMR_SETBKMODE --><!-- EMR_SETTEXTCOLOR --><!-- EMR_SETTEXTALIGN -->  <text
     xml:space="preserve"
     x="341.97946"
     y="91.418602"
     style="font-size:8px;font-style:normal;font-variant:normal;font-weight:normal;font-stretch:normal;text-align:start;line-height:125%;writing-mode:lr-tb;text-anchor:start;fill:#000000;fill-opacity:1;stroke:none;stroke-opacity:1;font-family:Times New Roman;-inkscape-font-specification:Times New Roman"
     id="text3487"
     sodipodi:linespacing="125%">+</text>
<!-- EMR_SETBKMODE --><!-- EMR_SETTEXTCOLOR --><!-- EMR_SETTEXTALIGN -->  <text
     xml:space="preserve"
     x="346.98823"
     y="91.111192"
     style="font-size:8px;fill:#000000;font-style:normal;font-weight:normal;font-family:Times New Roman;-inkscape-font-specification:Times New Roman;font-stretch:normal;font-variant:normal;text-anchor:start;text-align:start;writing-mode:lr;line-height:125%;fill-opacity:1;stroke:none;stroke-opacity:1"
     id="text3489"
     sodipodi:linespacing="125%">1</text>
<!-- EMR_SETBKMODE --><!-- EMR_SETTEXTCOLOR --><!-- EMR_SETTEXTALIGN -->  <text
     xml:space="preserve"
     x="326.93559"
     y="106.75879"
     style="font-size:12px;fill:#000000;font-style:italic;font-weight:bold;font-family:Times New Roman;-inkscape-font-specification:Times New Roman Bold Italic;font-stretch:normal;font-variant:normal;text-anchor:start;text-align:start;writing-mode:lr;line-height:125%;fill-opacity:1;stroke:none;stroke-opacity:1"
     id="text3491"
     sodipodi:linespacing="125%">a</text>
<!-- EMR_SETBKMODE --><!-- EMR_SETTEXTCOLOR --><!-- EMR_SETTEXTALIGN -->  <text
     xml:space="preserve"
     x="334.46917"
     y="108.86733"
     style="font-size:8px;fill:#000000;font-style:normal;font-weight:normal;font-family:Times New Roman;-inkscape-font-specification:Times New Roman;font-stretch:normal;font-variant:normal;text-anchor:start;text-align:start;writing-mode:lr;line-height:125%;fill-opacity:1;stroke:none;stroke-opacity:1"
     id="text3493"
     sodipodi:linespacing="125%">N</text>
<!-- EMR_SETBKMODE --><!-- EMR_SETTEXTCOLOR --><!-- EMR_SETTEXTALIGN -->  <text
     xml:space="preserve"
     x="341.83405"
     y="109.17911"
     style="font-size:8px;font-style:normal;font-variant:normal;font-weight:normal;font-stretch:normal;text-align:start;line-height:125%;writing-mode:lr-tb;text-anchor:start;fill:#000000;fill-opacity:1;stroke:none;stroke-opacity:1;font-family:Times New Roman;-inkscape-font-specification:Times New Roman"
     id="text3495"
     sodipodi:linespacing="125%">+</text>
<!-- EMR_SETBKMODE --><!-- EMR_SETTEXTCOLOR --><!-- EMR_SETTEXTALIGN -->  <text
     xml:space="preserve"
     x="346.98823"
     y="108.86733"
     style="font-size:8px;fill:#000000;font-style:normal;font-weight:normal;font-family:Times New Roman;-inkscape-font-specification:Times New Roman;font-stretch:normal;font-variant:normal;text-anchor:start;text-align:start;writing-mode:lr;line-height:125%;fill-opacity:1;stroke:none;stroke-opacity:1"
     id="text3497"
     sodipodi:linespacing="125%">1</text>
<!-- EMR_RESTOREDC --><!-- EMR_SELECTPALETTE --><!-- EMR_EXTSELECTCLIPRGN --></svg>
