<?xml version="1.0" encoding="UTF-8" standalone="no"?>
<!DOCTYPE svg PUBLIC "-//W3C//DTD SVG 1.0//EN" "http://www.w3.org/TR/2001/REC-SVG-20010904/DTD/svg10.dtd">
<!-- Generato da Microsoft Visio 11.0, SVG Export, v1.0 Casimir.svg svg2 -->
<svg xmlns="http://www.w3.org/2000/svg" xmlns:v="http://schemas.microsoft.com/visio/2003/SVGExtensions/" width="5.58036in"
		height="5.7181in" viewBox="0 0 401.786 411.703" xml:space="preserve" color-interpolation-filters="sRGB" class="st21">
	<v:documentProperties v:langID="1033" v:metric="true" v:viewMarkup="false"/>

	<style type="text/css">
	<![CDATA[
		.st1 {fill:none}
		.st2 {stroke:#afc2da;stroke-linecap:round;stroke-linejoin:round;stroke-width:3.375}
		.st3 {fill:#e9e9ff;stroke:none;stroke-linecap:butt;stroke-width:0.75}
		.st4 {fill:#353564;stroke:none;stroke-linecap:butt;stroke-width:0.75}
		.st5 {fill:#afafde;stroke:none;stroke-linecap:butt;stroke-width:0.75}
		.st6 {fill:#484537;stroke:none;stroke-linecap:butt;stroke-width:0.75}
		.st7 {fill:#c8c4b7;stroke:none;stroke-linecap:butt;stroke-width:0.75}
		.st8 {fill:#918a6f;stroke:none;stroke-linecap:butt;stroke-width:0.75}
		.st9 {fill:none;stroke:none;stroke-linecap:butt;stroke-width:0.75}
		.st10 {fill:#000000;font-family:Liberation Serif;font-size:1.875em}
		.st11 {font-size:1em}
		.st12 {stroke:#7395bf;stroke-linecap:round;stroke-linejoin:round;stroke-opacity:0.6;stroke-width:3.12}
		.st13 {marker-end:url(#mrkr13-70);stroke:#000000;stroke-linecap:round;stroke-linejoin:round;stroke-width:1.2}
		.st14 {fill:#000000;fill-opacity:1;stroke:#000000;stroke-opacity:1;stroke-width:0.32258064516129}
		.st15 {fill:#85a446;fill-opacity:0.55;stroke:none;stroke-linecap:round;stroke-linejoin:round;stroke-width:0.24}
		.st16 {fill:#85a446;fill-opacity:0.55}
		.st17 {stroke:none;stroke-linecap:round;stroke-linejoin:round;stroke-width:0.72}
		.st18 {stroke:none;stroke-linecap:round;stroke-linejoin:round;stroke-width:0.24}
		.st19 {fill:#85a446;fill-opacity:0.55;visibility:hidden}
		.st20 {stroke:#85a446;stroke-linecap:round;stroke-linejoin:round;stroke-width:0.24}
		.st21 {fill:none;fill-rule:evenodd;font-size:12;overflow:visible;stroke-linecap:square;stroke-miterlimit:3}
	]]>
	</style>

	<defs id="Markers">
		<g id="lend13">
			<path d="M 3 1 L -0 0 L 3 -1 L 3 1 " style="stroke:none"/>
		</g>
		<marker id="mrkr13-70" class="st14" v:arrowType="13" v:arrowSize="2" v:setback="9.3" refX="-9.3" orient="auto"
				markerUnits="strokeWidth">
			<use xlink:href="#lend13" transform="scale(-3.1,-3.1) "/>
		</marker>
	</defs>
	<g v:mID="0" v:index="1" v:groupContext="foregroundPage">
		<title>svg2</title>
		<v:pageProperties v:drawingScale="1" v:pageScale="1" v:drawingUnits="19" v:shadowOffsetX="9" v:shadowOffsetY="-9"/>
		<g id="group1-1" transform="translate(-215.962,-12.9705)" v:mID="1" v:groupContext="group">
			<title>g6669</title>
			<g id="group2-2" transform="translate(140.81,-206.9) rotate(19.9999)" v:mID="2" v:groupContext="group">
				<title>g3261</title>
				<g id="shape3-3" v:mID="3" v:groupContext="shape" transform="translate(61.9299,-1.25056E-012)">
					<title>path3253</title>
					<path d="M12.83 411.7 C44.75 411.7 35.06 341.23 66.99 341.23 C98.91 341.23 140.53 411.7 172.45 411.7 C204.38
								 411.7 194.69 341.23 226.61 341.23 C258.54 341.23 300.15 411.7 332.08 411.7 L12.83 411.7 Z"
							class="st1"/>
					<path d="M12.83 411.7 C44.75 411.7 35.06 341.23 66.99 341.23 C98.91 341.23 140.53 411.7 172.45 411.7 C204.38
								 411.7 194.69 341.23 226.61 341.23 C258.54 341.23 300.15 411.7 332.08 411.7" class="st2"/>
				</g>
				<g id="shape4-6" v:mID="4" v:groupContext="shape" transform="translate(1.85452E-012,-170.152)">
					<title>path3255</title>
					<path d="M12.83 411.7 C44.75 411.7 35.06 341.23 66.99 341.23 C98.91 341.23 140.53 411.7 172.45 411.7 C204.38
								 411.7 194.69 341.23 226.61 341.23 C258.54 341.23 300.15 411.7 332.08 411.7 L12.83 411.7 Z"
							class="st1"/>
					<path d="M12.83 411.7 C44.75 411.7 35.06 341.23 66.99 341.23 C98.91 341.23 140.53 411.7 172.45 411.7 C204.38
								 411.7 194.69 341.23 226.61 341.23 C258.54 341.23 300.15 411.7 332.08 411.7" class="st2"/>
				</g>
				<g id="shape5-9" v:mID="5" v:groupContext="shape" transform="translate(20.6433,-113.434)">
					<title>path3257</title>
					<path d="M12.83 411.7 C44.75 411.7 35.06 341.23 66.99 341.23 C98.91 341.23 140.53 411.7 172.45 411.7 C204.38
								 411.7 194.69 341.23 226.61 341.23 C258.54 341.23 300.15 411.7 332.08 411.7 L12.83 411.7 Z"
							class="st1"/>
					<path d="M12.83 411.7 C44.75 411.7 35.06 341.23 66.99 341.23 C98.91 341.23 140.53 411.7 172.45 411.7 C204.38
								 411.7 194.69 341.23 226.61 341.23 C258.54 341.23 300.15 411.7 332.08 411.7" class="st2"/>
				</g>
				<g id="shape6-12" v:mID="6" v:groupContext="shape" transform="translate(41.2866,-56.7172)">
					<title>path3259</title>
					<path d="M12.83 411.7 C44.75 411.7 35.06 341.23 66.99 341.23 C98.91 341.23 140.53 411.7 172.45 411.7 C204.38
								 411.7 194.69 341.23 226.61 341.23 C258.54 341.23 300.15 411.7 332.08 411.7 L12.83 411.7 Z"
							class="st1"/>
					<path d="M12.83 411.7 C44.75 411.7 35.06 341.23 66.99 341.23 C98.91 341.23 140.53 411.7 172.45 411.7 C204.38
								 411.7 194.69 341.23 226.61 341.23 C258.54 341.23 300.15 411.7 332.08 411.7" class="st2"/>
				</g>
			</g>
			<g id="shape7-15" v:mID="7" v:groupContext="shape" transform="translate(517.359,-194.75)">
				<title>path6629</title>
				<path d="M0 131.67 L8.69 134.83 L8.69 411.7 L0 408.54 L0 131.67 Z" class="st3"/>
			</g>
			<g id="shape8-17" v:mID="8" v:groupContext="shape" transform="translate(370.247,-74.4706)">
				<title>path6631</title>
				<path d="M0 134.83 L0 411.7 L147.11 288.26 L147.11 11.39 L0 134.83 Z" class="st4"/>
			</g>
			<g id="shape9-19" v:mID="9" v:groupContext="shape" transform="translate(370.247,-71.3081)">
				<title>path6633</title>
				<path d="M0 408.54 L8.69 411.7 L155.8 288.26 L147.11 285.1 L0 408.54 Z" class="st5"/>
			</g>
			<g id="shape10-21" v:mID="10" v:groupContext="shape" transform="translate(370.247,-348.184)">
				<title>path6635</title>
				<path d="M0 408.54 L8.69 411.7 L155.8 288.26 L147.11 285.1 L0 408.54 Z" class="st6"/>
			</g>
			<g id="shape11-23" v:mID="11" v:groupContext="shape" transform="translate(378.936,-71.3081)">
				<title>path6637</title>
				<path d="M0 134.83 L0 411.7 L147.11 288.26 L147.11 11.39 L0 134.83 Z" class="st7"/>
			</g>
			<g id="shape12-25" v:mID="12" v:groupContext="shape" transform="translate(370.247,-71.3081)">
				<title>path6639</title>
				<path d="M0 131.67 L8.69 134.83 L8.69 411.7 L0 408.54 L0 131.67 Z" class="st8"/>
			</g>
			<g id="shape13-27" v:mID="13" v:groupContext="shape" transform="translate(565.247,-176.933)">
				<title>path6649</title>
				<path d="M0 131.67 L8.69 134.83 L8.69 411.7 L0 408.54 L0 131.67 Z" class="st3"/>
			</g>
			<g id="shape14-29" v:mID="14" v:groupContext="shape" transform="translate(418.135,-56.6535)">
				<title>path6651</title>
				<path d="M0 134.83 L0 411.7 L147.11 288.26 L147.11 11.39 L0 134.83 Z" class="st4"/>
			</g>
			<g id="shape15-31" v:mID="15" v:groupContext="shape" transform="translate(418.135,-53.491)">
				<title>path6653</title>
				<path d="M0 408.54 L8.69 411.7 L155.8 288.26 L147.11 285.1 L0 408.54 Z" class="st5"/>
			</g>
			<g id="shape16-33" v:mID="16" v:groupContext="shape" transform="translate(418.135,-330.366)">
				<title>path6655</title>
				<path d="M0 408.54 L8.69 411.7 L155.8 288.26 L147.11 285.1 L0 408.54 Z" class="st6"/>
			</g>
			<g id="shape17-35" v:mID="17" v:groupContext="shape" transform="translate(426.824,-53.491)">
				<title>path6657</title>
				<path d="M0 134.83 L0 411.7 L147.11 288.26 L147.11 11.39 L0 134.83 Z" class="st7"/>
			</g>
			<g id="shape18-37" v:mID="18" v:groupContext="shape" transform="translate(418.135,-53.491)">
				<title>path6659</title>
				<path d="M0 131.67 L8.69 134.83 L8.69 411.7 L0 408.54 L0 131.67 Z" class="st8"/>
			</g>
			<g id="group19-39" transform="translate(502.525,-74.1618) rotate(19.9999)" v:mID="19" v:groupContext="group">
				<title>g3299</title>
				<g id="shape20-40" v:mID="20" v:groupContext="shape" transform="translate(61.9299,-1.25056E-012)">
					<title>path3301</title>
					<path d="M-12.83 341.23 C19.1 341.23 60.71 411.7 92.64 411.7 C124.56 411.7 114.88 341.23 146.8 341.23 C178.73
								 341.23 220.34 411.7 252.27 411.7 L-12.83 341.23 Z" class="st1"/>
					<path d="M-12.83 341.23 C19.1 341.23 60.71 411.7 92.64 411.7 C124.56 411.7 114.88 341.23 146.8 341.23 C178.73
								 341.23 220.34 411.7 252.27 411.7" class="st2"/>
				</g>
				<g id="shape21-43" v:mID="21" v:groupContext="shape" transform="translate(0,-170.152)">
					<title>path3303</title>
					<path d="M-12.83 341.23 C19.1 341.23 60.71 411.7 92.64 411.7 C124.56 411.7 114.88 341.23 146.8 341.23 C178.73
								 341.23 220.34 411.7 252.27 411.7 L-12.83 341.23 Z" class="st1"/>
					<path d="M-12.83 341.23 C19.1 341.23 60.71 411.7 92.64 411.7 C124.56 411.7 114.88 341.23 146.8 341.23 C178.73
								 341.23 220.34 411.7 252.27 411.7" class="st2"/>
				</g>
				<g id="shape22-46" v:mID="22" v:groupContext="shape" transform="translate(20.6433,-113.434)">
					<title>path3305</title>
					<path d="M-12.83 341.23 C19.1 341.23 60.71 411.7 92.64 411.7 C124.56 411.7 114.88 341.23 146.8 341.23 C178.73
								 341.23 220.34 411.7 252.27 411.7 L-12.83 341.23 Z" class="st1"/>
					<path d="M-12.83 341.23 C19.1 341.23 60.71 411.7 92.64 411.7 C124.56 411.7 114.88 341.23 146.8 341.23 C178.73
								 341.23 220.34 411.7 252.27 411.7" class="st2"/>
				</g>
				<g id="shape23-49" v:mID="23" v:groupContext="shape" transform="translate(41.2866,-56.7172)">
					<title>path3307</title>
					<path d="M-12.83 341.23 C19.1 341.23 60.71 411.7 92.64 411.7 C124.56 411.7 114.88 341.23 146.8 341.23 C178.73
								 341.23 220.34 411.7 252.27 411.7 L-12.83 341.23 Z" class="st1"/>
					<path d="M-12.83 341.23 C19.1 341.23 60.71 411.7 92.64 411.7 C124.56 411.7 114.88 341.23 146.8 341.23 C178.73
								 341.23 220.34 411.7 252.27 411.7" class="st2"/>
				</g>
			</g>
			<g id="shape31-52" v:mID="31" v:groupContext="shape" transform="translate(125.962,-0.529539)">
				<title>text6090</title>
				<desc>Lastre metalliche</desc>
				<v:textBlock v:margins="rect(0,0,0,0)"/>
				<v:textRect cx="146.275" cy="398.203" width="292.55" height="27"/>
				<rect x="0" y="384.703" width="292.55" height="27" class="st9"/>
				<text x="68.5" y="404.95" class="st10" v:langID="1040"><v:paragraph v:horizAlign="1"/><v:tabList/>Lastre metalliche</text>			</g>
			<g id="shape32-55" v:mID="32" v:groupContext="shape" transform="translate(71.9615,-410.03)">
				<title>text6623</title>
				<desc>Fluttuazioni dello stato fondamentale</desc>
				<v:textBlock v:margins="rect(0,0,0,0)"/>
				<v:textRect cx="200.918" cy="398.203" width="401.84" height="27"/>
				<rect x="0" y="384.703" width="401.836" height="27" class="st9"/>
				<text x="121.24" y="391.45" class="st10" v:langID="1040"><v:paragraph v:horizAlign="1"/><v:tabList/>Fluttuazioni dello<v:lf/><tspan
							x="115.64" dy="1.2em" class="st11">stato fondamentale</tspan></text>			</g>
		</g>
		<g id="shape40-59" v:mID="40" v:groupContext="shape" transform="translate(233.083,-156.996) rotate(9.77041)">
			<title>Foglio.40</title>
			<path d="M0 398.99 C4.39 409.59 9.16 412.34 12.09 411.67 C14.76 411.06 15.92 407.64 16.48 404.03 C17.44 397.86 16.67
						 391.11 18.4 386.99 C19.47 384.44 21.5 382.89 23.31 382.59 C26.93 381.99 29.69 386.39 35.39 398.99"
					class="st12"/>
		</g>
		<g id="shape41-62" v:mID="41" v:groupContext="shape" transform="translate(233.083,-232.752) rotate(9.77041)">
			<title>Foglio.41</title>
			<path d="M0 398.99 C4.39 409.59 9.16 412.34 12.09 411.67 C14.76 411.06 15.92 407.64 16.48 404.03 C17.44 397.86 16.67
						 391.11 18.4 386.99 C19.47 384.44 21.5 382.89 23.31 382.59 C26.93 381.99 29.69 386.39 35.39 398.99"
					class="st12"/>
		</g>
		<g id="shape24-65" v:mID="24" v:groupContext="shape" transform="translate(428.083,153.025) rotate(111.49)">
			<title>Foglio.24</title>
			<path d="M0 411.7 L118.36 411.7" class="st13"/>
		</g>
		<g id="shape25-71" v:mID="25" v:groupContext="shape" transform="translate(388.998,-252.968) rotate(51.3429)">
			<title>Foglio.25</title>
			<path d="M0 411.7 L177.8 411.7" class="st13"/>
		</g>
		<g id="shape33-76" v:mID="33" v:groupContext="shape" transform="translate(352.617,-314.327) rotate(39.6338)">
			<title>Foglio.33</title>
			<path d="M0 411.7 L303.27 411.7" class="st13"/>
		</g>
		<g id="shape34-81" v:mID="34" v:groupContext="shape" transform="translate(-214.103,132.729) rotate(-54.6031)">
			<title>Foglio.34</title>
			<path d="M0 411.7 L46.22 411.7" class="st13"/>
		</g>
		<g id="shape35-86" v:mID="35" v:groupContext="shape" transform="translate(-21.0292,-13.351) rotate(-20.9237)">
			<title>Foglio.35</title>
			<path d="M0 411.7 L70.39 411.7" class="st13"/>
		</g>
		<g id="shape26-91" v:mID="26" v:groupContext="shape" transform="translate(270.562,-203.293) rotate(15)">
			<title>Freccia doppia flessibile</title>
			<v:userDefs>
				<v:ud v:nameU="visVersion" v:val="VT0(12):26"/>
			</v:userDefs>
			<path d="M0 411.7 L15.17 392.7 L14.18 403.74 L25.67 403.74 L24.69 392.7 L39.85 411.7 L24.69 430.7 L25.67 419.67 L14.18
						 419.67 L15.17 430.7 L0 411.7 Z" class="st15"/>
		</g>
		<g id="group27-93" transform="translate(170.078,-199.327) rotate(15)" v:mID="27" v:groupContext="group">
			<v:userDefs>
				<v:ud v:nameU="visVersion" v:val="VT0(12):26"/>
			</v:userDefs>
			<title>2D singola aperta</title>
			<g id="shape28-94" v:mID="28" v:groupContext="shape">
				<title>Foglio.28</title>
				<path d="M-2.16 397.53 L70.87 397.53 L70.87 411.7 L85.04 383.36 L70.87 355.01 L70.87 369.18 L-2.16 369.18 L-2.16
							 397.53 Z" class="st16"/>
				<path d="M-2.16 397.53 L70.87 397.53 L70.87 411.7 L85.04 383.36 L70.87 355.01 L70.87 369.18 L-2.16 369.18"
						class="st17"/>
			</g>
			<g id="shape29-97" v:mID="29" v:groupContext="shape">
				<title>Foglio.29</title>
				<path d="M0 397.53 L70.87 397.53 L70.87 411.7 L85.04 383.36 L70.87 355.01 L70.87 369.18 L0 369.18" class="st18"/>
			</g>
			<g id="shape30-100" v:mID="30" v:groupContext="shape" transform="translate(-0.523465,-14.4132)">
				<title>Foglio.30</title>
				<rect x="0" y="383.837" width="0.48" height="27.8665" class="st19"/>
				<rect x="0" y="383.837" width="0.48" height="27.8665" class="st20"/>
			</g>
		</g>
		<g id="group36-103" transform="translate(198.922,599.734) rotate(-165)" v:mID="36" v:groupContext="group">
			<v:userDefs>
				<v:ud v:nameU="visVersion" v:val="VT0(12):26"/>
			</v:userDefs>
			<title>2D singola aperta.36</title>
			<g id="shape37-104" v:mID="37" v:groupContext="shape">
				<title>Foglio.37</title>
				<path d="M-2.16 397.53 L70.87 397.53 L70.87 411.7 L85.04 383.36 L70.87 355.01 L70.87 369.18 L-2.16 369.18 L-2.16
							 397.53 Z" class="st16"/>
				<path d="M-2.16 397.53 L70.87 397.53 L70.87 411.7 L85.04 383.36 L70.87 355.01 L70.87 369.18 L-2.16 369.18"
						class="st17"/>
			</g>
			<g id="shape38-107" v:mID="38" v:groupContext="shape">
				<title>Foglio.38</title>
				<path d="M0 397.53 L70.87 397.53 L70.87 411.7 L85.04 383.36 L70.87 355.01 L70.87 369.18 L0 369.18" class="st18"/>
			</g>
			<g id="shape39-110" v:mID="39" v:groupContext="shape" transform="translate(-0.523465,-14.4132)">
				<title>Foglio.39</title>
				<rect x="0" y="383.837" width="0.48" height="27.8665" class="st19"/>
				<rect x="0" y="383.837" width="0.48" height="27.8665" class="st20"/>
			</g>
		</g>
	</g>
</svg>
