<?xml version="1.0" encoding="UTF-8" standalone="no"?>
<svg width="138.642mm" height="182.033mm"
 viewBox="0 0 393 516"
 xmlns="http://www.w3.org/2000/svg" xmlns:xlink="http://www.w3.org/1999/xlink"  version="1.2" baseProfile="tiny">
<title>Qt Svg Document</title>
<desc>Generated with Qt</desc>
<defs>
</defs>
<g fill="none" stroke="black" vector-effect="non-scaling-stroke" stroke-width="1" fill-rule="evenodd" stroke-linecap="square" stroke-linejoin="bevel" >

<g fill="none" stroke="#000000" stroke-opacity="1" vector-effect="non-scaling-stroke" stroke-width="1" stroke-linecap="square" stroke-linejoin="bevel" transform="matrix(1,0,0,1,0,0)"
font-family="Sans Serif" font-size="10pt" font-weight="400" font-style="normal" 
>
</g>

<g fill="none" stroke="#aeaeae" stroke-opacity="1" stroke-width="0.283465" stroke-linecap="square" stroke-linejoin="bevel" transform="matrix(1,0,0,1,0,0)"
font-family="Sans Serif" font-size="10pt" font-weight="400" font-style="normal" 
>
</g>

<g fill="#ffffff" fill-opacity="1" stroke="#191970" stroke-opacity="1" stroke-width="0.850394" stroke-linecap="butt" stroke-linejoin="bevel" transform="matrix(1,0,0,1,0,0)"
font-family="Sans Serif" font-size="10pt" font-weight="400" font-style="normal" 
>
<polyline fill="none" points="-7.86,-668.897 6.7,-506.87 " />
<polyline fill="none" points="6.7,-506.87 20.22,-367.091 " />
<polyline fill="none" points="20.22,-367.091 33.74,-237.589 " />
<polyline fill="none" points="33.74,-237.589 46.22,-127.171 " />
<polyline fill="none" points="46.22,-127.171 58.7,-25.5109 " />
<polyline fill="none" points="58.7,-25.5109 70.66,63.6958 " />
<polyline fill="none" points="70.66,63.6958 82.1,141.498 " />
<polyline fill="none" points="82.1,141.498 93.02,208.899 " />
<polyline fill="none" points="93.02,208.899 103.42,266.857 " />
<polyline fill="none" points="103.42,266.857 113.3,316.284 " />
<polyline fill="none" points="113.3,316.284 122.66,358.047 " />
<polyline fill="none" points="122.66,358.047 131.5,392.966 " />
<polyline fill="none" points="131.5,392.966 139.3,420.128 " />
<polyline fill="none" points="139.3,420.128 146.58,442.393 " />
<polyline fill="none" points="146.58,442.393 153.86,461.678 " />
<polyline fill="none" points="153.86,461.678 161.14,477.983 " />
<polyline fill="none" points="161.14,477.983 167.38,489.587 " />
<polyline fill="none" points="167.38,489.587 173.62,499.001 " />
<polyline fill="none" points="173.62,499.001 178.82,505.174 " />
<polyline fill="none" points="178.82,505.174 184.02,509.827 " />
<polyline fill="none" points="184.02,509.827 189.22,512.959 " />
<polyline fill="none" points="189.22,512.959 193.38,514.37 " />
<polyline fill="none" points="193.38,514.37 197.54,514.808 " />
<polyline fill="none" points="197.54,514.808 201.7,514.273 " />
<polyline fill="none" points="201.7,514.273 205.86,512.765 " />
<polyline fill="none" points="205.86,512.765 210.02,510.284 " />
<polyline fill="none" points="210.02,510.284 215.22,505.814 " />
<polyline fill="none" points="215.22,505.814 220.42,499.824 " />
<polyline fill="none" points="220.42,499.824 225.62,492.313 " />
<polyline fill="none" points="225.62,492.313 231.86,481.294 " />
<polyline fill="none" points="231.86,481.294 238.1,468.085 " />
<polyline fill="none" points="238.1,468.085 244.34,452.686 " />
<polyline fill="none" points="244.34,452.686 251.62,431.955 " />
<polyline fill="none" points="251.62,431.955 258.9,408.243 " />
<polyline fill="none" points="258.9,408.243 267.22,377.494 " />
<polyline fill="none" points="267.22,377.494 275.54,342.854 " />
<polyline fill="none" points="275.54,342.854 284.38,301.784 " />
<polyline fill="none" points="284.38,301.784 293.74,253.509 " />
<polyline fill="none" points="293.74,253.509 303.62,197.207 " />
<polyline fill="none" points="303.62,197.207 314.02,132.013 " />
<polyline fill="none" points="314.02,132.013 324.94,57.0135 " />
<polyline fill="none" points="324.94,57.0135 336.38,-28.7487 " />
<polyline fill="none" points="336.38,-28.7487 347.82,-121.87 " />
<polyline fill="none" points="347.82,-121.87 360.3,-231.849 " />
<polyline fill="none" points="360.3,-231.849 372.78,-350.585 " />
<polyline fill="none" points="372.78,-350.585 386.3,-489.099 " />
<polyline fill="none" points="386.3,-489.099 399.82,-637.891 " />
<polyline fill="none" points="399.82,-637.891 400.86,-649.762 " />
</g>

<g fill="none" stroke="#aeaeae" stroke-opacity="1" stroke-width="0.283465" stroke-linecap="square" stroke-linejoin="bevel" transform="matrix(1,0,0,1,0,0)"
font-family="Sans Serif" font-size="10pt" font-weight="400" font-style="normal" 
>
</g>

<g fill="#ffffff" fill-opacity="1" stroke="#006400" stroke-opacity="1" stroke-width="0.850394" stroke-linecap="butt" stroke-linejoin="bevel" transform="matrix(1,0,0,1,0,0)"
font-family="Sans Serif" font-size="10pt" font-weight="400" font-style="normal" 
>
<polyline fill="none" points="-7.86,422.654 52.46,422.154 " />
<polyline fill="none" points="52.46,422.154 71.18,421.048 " />
<polyline fill="none" points="71.18,421.048 84.7,419.287 " />
<polyline fill="none" points="84.7,419.287 96.14,416.758 " />
<polyline fill="none" points="96.14,416.758 105.5,413.738 " />
<polyline fill="none" points="105.5,413.738 114.86,409.701 " />
<polyline fill="none" points="114.86,409.701 124.22,404.577 " />
<polyline fill="none" points="124.22,404.577 134.62,397.678 " />
<polyline fill="none" points="134.62,397.678 148.14,387.345 " />
<polyline fill="none" points="148.14,387.345 166.86,372.983 " />
<polyline fill="none" points="166.86,372.983 175.18,367.749 " />
<polyline fill="none" points="175.18,367.749 182.46,364.256 " />
<polyline fill="none" points="182.46,364.256 188.7,362.262 " />
<polyline fill="none" points="188.7,362.262 194.94,361.304 " />
<polyline fill="none" points="194.94,361.304 201.18,361.432 " />
<polyline fill="none" points="201.18,361.432 207.42,362.638 " />
<polyline fill="none" points="207.42,362.638 213.66,364.859 " />
<polyline fill="none" points="213.66,364.859 220.94,368.579 " />
<polyline fill="none" points="220.94,368.579 229.26,374.004 " />
<polyline fill="none" points="229.26,374.004 241.74,383.534 " />
<polyline fill="none" points="241.74,383.534 261.5,398.711 " />
<polyline fill="none" points="261.5,398.711 271.9,405.444 " />
<polyline fill="none" points="271.9,405.444 281.26,410.399 " />
<polyline fill="none" points="281.26,410.399 290.62,414.271 " />
<polyline fill="none" points="290.62,414.271 301.02,417.409 " />
<polyline fill="none" points="301.02,417.409 312.46,419.698 " />
<polyline fill="none" points="312.46,419.698 325.98,421.266 " />
<polyline fill="none" points="325.98,421.266 343.66,422.2 " />
<polyline fill="none" points="343.66,422.2 373.82,422.609 " />
<polyline fill="none" points="373.82,422.609 400.86,422.653 " />
</g>

<g fill="none" stroke="#aeaeae" stroke-opacity="1" stroke-width="0.283465" stroke-linecap="square" stroke-linejoin="bevel" transform="matrix(1,0,0,1,0,0)"
font-family="Sans Serif" font-size="10pt" font-weight="400" font-style="normal" 
>
</g>

<g fill="#ffffff" fill-opacity="1" stroke="#ff4500" stroke-opacity="1" stroke-width="0.850394" stroke-linecap="butt" stroke-linejoin="bevel" transform="matrix(1,0,0,1,0,0)"
font-family="Sans Serif" font-size="10pt" font-weight="400" font-style="normal" 
>
<polyline fill="none" points="-7.86,269.097 32.7,269.686 " />
<polyline fill="none" points="32.7,269.686 49.34,270.886 " />
<polyline fill="none" points="49.34,270.886 61.82,272.804 " />
<polyline fill="none" points="61.82,272.804 72.22,275.479 " />
<polyline fill="none" points="72.22,275.479 81.58,279.001 " />
<polyline fill="none" points="81.58,279.001 89.9,283.165 " />
<polyline fill="none" points="89.9,283.165 99.26,289.051 " />
<polyline fill="none" points="99.26,289.051 109.66,296.859 " />
<polyline fill="none" points="109.66,296.859 130.46,313.296 " />
<polyline fill="none" points="130.46,313.296 137.74,317.723 " />
<polyline fill="none" points="137.74,317.723 143.98,320.251 " />
<polyline fill="none" points="143.98,320.251 149.18,321.192 " />
<polyline fill="none" points="149.18,321.192 153.34,321.055 " />
<polyline fill="none" points="153.34,321.055 157.5,320.048 " />
<polyline fill="none" points="157.5,320.048 161.66,318.126 " />
<polyline fill="none" points="161.66,318.126 165.82,315.268 " />
<polyline fill="none" points="165.82,315.268 171.02,310.392 " />
<polyline fill="none" points="171.02,310.392 176.22,304.151 " />
<polyline fill="none" points="176.22,304.151 182.46,295.086 " />
<polyline fill="none" points="182.46,295.086 190.78,281.011 " />
<polyline fill="none" points="190.78,281.011 211.58,244.048 " />
<polyline fill="none" points="211.58,244.048 218.86,233.449 " />
<polyline fill="none" points="218.86,233.449 225.1,226.246 " />
<polyline fill="none" points="225.1,226.246 230.3,221.771 " />
<polyline fill="none" points="230.3,221.771 235.5,218.754 " />
<polyline fill="none" points="235.5,218.754 239.66,217.386 " />
<polyline fill="none" points="239.66,217.386 243.82,216.908 " />
<polyline fill="none" points="243.82,216.908 249.02,217.467 " />
<polyline fill="none" points="249.02,217.467 254.22,219.158 " />
<polyline fill="none" points="254.22,219.158 260.46,222.406 " />
<polyline fill="none" points="260.46,222.406 267.74,227.404 " />
<polyline fill="none" points="267.74,227.404 281.26,238.259 " />
<polyline fill="none" points="281.26,238.259 294.78,248.658 " />
<polyline fill="none" points="294.78,248.658 304.14,254.625 " />
<polyline fill="none" points="304.14,254.625 313.5,259.326 " />
<polyline fill="none" points="313.5,259.326 322.86,262.796 " />
<polyline fill="none" points="322.86,262.796 332.22,265.211 " />
<polyline fill="none" points="332.22,265.211 343.66,267.066 " />
<polyline fill="none" points="343.66,267.066 358.22,268.28 " />
<polyline fill="none" points="358.22,268.28 380.06,268.911 " />
<polyline fill="none" points="380.06,268.911 400.86,269.044 " />
</g>

<g fill="none" stroke="#aeaeae" stroke-opacity="1" stroke-width="0.283465" stroke-linecap="square" stroke-linejoin="bevel" transform="matrix(1,0,0,1,0,0)"
font-family="Sans Serif" font-size="10pt" font-weight="400" font-style="normal" 
>
</g>

<g fill="#ffffff" fill-opacity="1" stroke="#808000" stroke-opacity="1" stroke-width="0.850394" stroke-linecap="butt" stroke-linejoin="bevel" transform="matrix(1,0,0,1,0,0)"
font-family="Sans Serif" font-size="10pt" font-weight="400" font-style="normal" 
>
<polyline fill="none" points="-7.86,115.366 17.1,114.652 " />
<polyline fill="none" points="17.1,114.652 31.66,113.267 " />
<polyline fill="none" points="31.66,113.267 42.06,111.325 " />
<polyline fill="none" points="42.06,111.325 51.42,108.526 " />
<polyline fill="none" points="51.42,108.526 59.74,104.94 " />
<polyline fill="none" points="59.74,104.94 68.06,100.139 " />
<polyline fill="none" points="68.06,100.139 76.38,94.0681 " />
<polyline fill="none" points="76.38,94.0681 85.74,85.9095 " />
<polyline fill="none" points="85.74,85.9095 106.54,66.7076 " />
<polyline fill="none" points="106.54,66.7076 112.78,62.4179 " />
<polyline fill="none" points="112.78,62.4179 117.98,60.0666 " />
<polyline fill="none" points="117.98,60.0666 122.14,59.2152 " />
<polyline fill="none" points="122.14,59.2152 126.3,59.4368 " />
<polyline fill="none" points="126.3,59.4368 130.46,60.8498 " />
<polyline fill="none" points="130.46,60.8498 134.62,63.5371 " />
<polyline fill="none" points="134.62,63.5371 138.78,67.5367 " />
<polyline fill="none" points="138.78,67.5367 142.94,72.8343 " />
<polyline fill="none" points="142.94,72.8343 148.14,81.1672 " />
<polyline fill="none" points="148.14,81.1672 154.38,93.299 " />
<polyline fill="none" points="154.38,93.299 163.74,114.241 " />
<polyline fill="none" points="163.74,114.241 175.18,139.684 " />
<polyline fill="none" points="175.18,139.684 181.42,151.119 " />
<polyline fill="none" points="181.42,151.119 185.58,157.085 " />
<polyline fill="none" points="185.58,157.085 189.74,161.431 " />
<polyline fill="none" points="189.74,161.431 192.86,163.514 " />
<polyline fill="none" points="192.86,163.514 195.98,164.531 " />
<polyline fill="none" points="195.98,164.531 199.1,164.459 " />
<polyline fill="none" points="199.1,164.459 202.22,163.298 " />
<polyline fill="none" points="202.22,163.298 205.34,161.076 " />
<polyline fill="none" points="205.34,161.076 209.5,156.56 " />
<polyline fill="none" points="209.5,156.56 213.66,150.444 " />
<polyline fill="none" points="213.66,150.444 218.86,140.941 " />
<polyline fill="none" points="218.86,140.941 226.14,125.261 " />
<polyline fill="none" points="226.14,125.261 241.74,90.2943 " />
<polyline fill="none" points="241.74,90.2943 247.98,78.6563 " />
<polyline fill="none" points="247.98,78.6563 253.18,70.8374 " />
<polyline fill="none" points="253.18,70.8374 258.38,64.9802 " />
<polyline fill="none" points="258.38,64.9802 262.54,61.7694 " />
<polyline fill="none" points="262.54,61.7694 266.7,59.8539 " />
<polyline fill="none" points="266.7,59.8539 270.86,59.1678 " />
<polyline fill="none" points="270.86,59.1678 275.02,59.6058 " />
<polyline fill="none" points="275.02,59.6058 279.18,61.0326 " />
<polyline fill="none" points="279.18,61.0326 284.38,63.9687 " />
<polyline fill="none" points="284.38,63.9687 290.62,68.7529 " />
<polyline fill="none" points="290.62,68.7529 299.98,77.3663 " />
<polyline fill="none" points="299.98,77.3663 315.58,91.8372 " />
<polyline fill="none" points="315.58,91.8372 323.9,98.3025 " />
<polyline fill="none" points="323.9,98.3025 332.22,103.518 " />
<polyline fill="none" points="332.22,103.518 340.54,107.484 " />
<polyline fill="none" points="340.54,107.484 348.86,110.344 " />
<polyline fill="none" points="348.86,110.344 358.22,112.501 " />
<polyline fill="none" points="358.22,112.501 369.66,114.047 " />
<polyline fill="none" points="369.66,114.047 385.26,115.011 " />
<polyline fill="none" points="385.26,115.011 400.86,115.348 " />
</g>

<g fill="none" stroke="#aeaeae" stroke-opacity="1" stroke-width="0.283465" stroke-linecap="square" stroke-linejoin="bevel" transform="matrix(1,0,0,1,0,0)"
font-family="Sans Serif" font-size="10pt" font-weight="400" font-style="normal" 
>
</g>
</g>
</svg>
