<?xml version="1.0" encoding="UTF-8" standalone="no"?>
<!DOCTYPE svg PUBLIC "-//W3C//DTD SVG 1.0//EN" "http://www.w3.org/TR/2001/REC-SVG-20010904/DTD/svg10.dtd">
<!-- Generato da Microsoft Visio 11.0, SVG Export, v1.0 Frequenze.svg Page-1 -->
<svg xmlns="http://www.w3.org/2000/svg" xmlns:v="http://schemas.microsoft.com/visio/2003/SVGExtensions/" width="8.26772in"
		height="11.6929in" viewBox="0 0 595.276 841.89" xml:space="preserve" color-interpolation-filters="sRGB" class="st24">
	<v:documentProperties v:langID="1040" v:metric="true" v:viewMarkup="false"/>

	<style type="text/css">
	<![CDATA[
		.st1 {visibility:visible}
		.st2 {marker-end:url(#mrkr13-7);stroke:#464646;stroke-linecap:round;stroke-linejoin:round;stroke-opacity:0.5;stroke-width:0.72}
		.st3 {fill:#464646;fill-opacity:0.5;stroke:#464646;stroke-opacity:0.5;stroke-width:0.22222222222222}
		.st4 {marker-end:url(#mrkr13-14);stroke:#1f497d;stroke-linecap:round;stroke-linejoin:round;stroke-width:0.72}
		.st5 {fill:#1f497d;fill-opacity:1;stroke:#1f497d;stroke-opacity:1;stroke-width:0.22222222222222}
		.st6 {stroke:#464646;stroke-linecap:round;stroke-linejoin:round;stroke-opacity:0.5;stroke-width:2.16}
		.st7 {stroke:#000000;stroke-linecap:round;stroke-linejoin:round;stroke-width:2.16}
		.st8 {marker-end:url(#mrkr13-28);stroke:#464646;stroke-linecap:round;stroke-linejoin:round;stroke-opacity:0.5;stroke-width:2.16}
		.st9 {fill:#464646;fill-opacity:0.5;stroke:#464646;stroke-opacity:0.5;stroke-width:0.46153846153846}
		.st10 {marker-end:url(#mrkr13-34);stroke:#000000;stroke-linecap:round;stroke-linejoin:round;stroke-width:2.16}
		.st11 {fill:#000000;fill-opacity:1;stroke:#000000;stroke-opacity:1;stroke-width:0.46153846153846}
		.st12 {marker-end:url(#mrkr5-55);marker-start:url(#mrkr5-53);stroke:#464646;stroke-linecap:round;stroke-linejoin:round;stroke-opacity:0.5;stroke-width:0.26}
		.st13 {fill:#464646;fill-opacity:0.5;stroke:#464646;stroke-opacity:0.5;stroke-width:0.093525179856115}
		.st14 {marker-end:url(#mrkr5-64);marker-start:url(#mrkr5-62);stroke:#1f497d;stroke-linecap:round;stroke-linejoin:round;stroke-width:0.26}
		.st15 {fill:#1f497d;fill-opacity:1;stroke:#1f497d;stroke-opacity:1;stroke-width:0.093525179856115}
		.st16 {fill:none;stroke:none;stroke-linecap:round;stroke-linejoin:round;stroke-width:0.26}
		.st17 {fill:#000000;font-family:Liberation Serif;font-size:1.00001em}
		.st18 {baseline-shift:-32.4941%;font-size:0.649882em}
		.st19 {font-family:Arial;font-size:1em}
		.st20 {fill:#000000;font-family:Liberation Serif;font-size:1.00001em;font-weight:bold}
		.st21 {fill:#000000;font-family:Arial;font-size:1.00001em}
		.st22 {stroke:#464646;stroke-linecap:round;stroke-linejoin:round;stroke-opacity:0.5;stroke-width:1.2}
		.st23 {stroke:#1f497d;stroke-linecap:round;stroke-linejoin:round;stroke-width:1.2}
		.st24 {fill:none;fill-rule:evenodd;font-size:12;overflow:visible;stroke-linecap:square;stroke-miterlimit:3}
	]]>
	</style>

	<defs id="Patterns_And_Gradients">
		<linearGradient id="grad28-11" v:fillPattern="28" v:foreground="#c4d2e3" v:background="#9ab3d1" x1="0" y1="0" x2="0" y2="1">
			<stop offset="0" style="stop-color:#c4d2e3;stop-opacity:1"/>
			<stop offset="1" style="stop-color:#9ab3d1;stop-opacity:1"/>
		</linearGradient>
	</defs>
	<defs id="Markers">
		<g id="lend13">
			<path d="M 3 1 L -0 0 L 3 -1 L 3 1 " style="stroke:none"/>
		</g>
		<marker id="mrkr13-7" class="st3" v:arrowType="13" v:arrowSize="2" v:setback="13.5" refX="-13.5" orient="auto"
				markerUnits="strokeWidth">
			<use xlink:href="#lend13" transform="scale(-4.5,-4.5) "/>
		</marker>
		<marker id="mrkr13-14" class="st5" v:arrowType="13" v:arrowSize="2" v:setback="13.5" refX="-13.5" orient="auto"
				markerUnits="strokeWidth">
			<use xlink:href="#lend13" transform="scale(-4.5,-4.5) "/>
		</marker>
		<marker id="mrkr13-28" class="st9" v:arrowType="13" v:arrowSize="2" v:setback="6.5" refX="-6.5" orient="auto"
				markerUnits="strokeWidth">
			<use xlink:href="#lend13" transform="scale(-2.1666666666667,-2.1666666666667) "/>
		</marker>
		<marker id="mrkr13-34" class="st11" v:arrowType="13" v:arrowSize="2" v:setback="6.5" refX="-6.5" orient="auto"
				markerUnits="strokeWidth">
			<use xlink:href="#lend13" transform="scale(-2.1666666666667,-2.1666666666667) "/>
		</marker>
		<g id="lend5">
			<path d="M 2 1 L -0 0 L 1.98117 -0.993387 C 1.67173 -0.364515 1.67301 0.372641 1.98465 1.00043 " style="stroke:none"/>
		</g>
		<marker id="mrkr5-53" class="st13" v:arrowType="5" v:arrowSize="2" v:setback="17.3269" refX="17.326923076923" orient="auto"
				markerUnits="strokeWidth">
			<use xlink:href="#lend5" transform="scale(10.692307692308) "/>
		</marker>
		<marker id="mrkr5-55" class="st13" v:arrowType="5" v:arrowSize="2" v:setback="18.7115" refX="-18.711538461538"
				orient="auto" markerUnits="strokeWidth">
			<use xlink:href="#lend5" transform="scale(-10.692307692308,-10.692307692308) "/>
		</marker>
		<marker id="mrkr5-62" class="st15" v:arrowType="5" v:arrowSize="2" v:setback="17.3269" refX="17.326923076923" orient="auto"
				markerUnits="strokeWidth">
			<use xlink:href="#lend5" transform="scale(10.692307692308) "/>
		</marker>
		<marker id="mrkr5-64" class="st15" v:arrowType="5" v:arrowSize="2" v:setback="18.7115" refX="-18.711538461538"
				orient="auto" markerUnits="strokeWidth">
			<use xlink:href="#lend5" transform="scale(-10.692307692308,-10.692307692308) "/>
		</marker>
	</defs>
	<g v:mID="0" v:index="1" v:groupContext="foregroundPage">
		<v:userDefs>
			<v:ud v:nameU="msvThemeEffects" v:val="VT0(2):26"/>
			<v:ud v:nameU="msvThemeColors" v:val="VT0(2):26"/>
		</v:userDefs>
		<title>Page-1</title>
		<v:pageProperties v:drawingScale="0.0393701" v:pageScale="0.0393701" v:drawingUnits="24" v:shadowOffsetX="8.50394"
				v:shadowOffsetY="-8.50394"/>
		<v:layer v:name="Connettore" v:index="0"/>
		<g id="shape1-1" v:mID="1" v:groupContext="shape" transform="translate(113.386,-581.102)">
			<title>Foglio.1</title>
			<v:userDefs>
				<v:ud v:nameU="msvThemeEffects" v:val="VT0(2):26"/>
				<v:ud v:nameU="msvThemeColors" v:val="VT0(2):26"/>
			</v:userDefs>
			<g id="shadow1-2" v:groupContext="shadow" v:shadowOffsetX="1.44" v:shadowOffsetY="-1.44" v:shadowType="1"
					transform="matrix(1,0,0,1,1.44,1.44)" class="st1">
				<path d="M0 841.89 L415.48 841.89" class="st2"/>
			</g>
			<path d="M0 841.89 L415.48 841.89" class="st4"/>
		</g>
		<g id="shape3-15" v:mID="3" v:groupContext="shape" transform="translate(1167.87,252.283) rotate(90)">
			<title>Foglio.3</title>
			<v:userDefs>
				<v:ud v:nameU="msvThemeColors" v:val="VT0(2):26"/>
				<v:ud v:nameU="msvThemeEffects" v:val="VT0(2):26"/>
			</v:userDefs>
			<g id="shadow3-16" v:groupContext="shadow" v:shadowOffsetX="1.44" v:shadowOffsetY="-1.44" v:shadowType="1"
					transform="matrix(1,0,0,1,1.44,-1.44)" class="st1">
				<path d="M0 841.89 L13.8 841.89" class="st6"/>
			</g>
			<path d="M0 841.89 L13.8 841.89" class="st7"/>
		</g>
		<g id="shape4-22" v:mID="4" v:groupContext="shape" transform="translate(-558.425,260.787) rotate(-90)">
			<title>Foglio.4</title>
			<v:userDefs>
				<v:ud v:nameU="msvThemeColors" v:val="VT0(2):26"/>
				<v:ud v:nameU="msvThemeEffects" v:val="VT0(2):26"/>
			</v:userDefs>
			<g id="shadow4-23" v:groupContext="shadow" v:shadowOffsetX="1.44" v:shadowOffsetY="-1.44" v:shadowType="1"
					transform="matrix(1,0,0,1,-1.44,1.44)" class="st1">
				<path d="M0 841.89 L113.52 841.89" class="st8"/>
			</g>
			<path d="M0 841.89 L113.52 841.89" class="st10"/>
		</g>
		<g id="shape5-35" v:mID="5" v:groupContext="shape" transform="translate(-473.386,260.787) rotate(-90)">
			<title>Foglio.5</title>
			<v:userDefs>
				<v:ud v:nameU="msvThemeColors" v:val="VT0(2):26"/>
				<v:ud v:nameU="msvThemeEffects" v:val="VT0(2):26"/>
			</v:userDefs>
			<g id="shadow5-36" v:groupContext="shadow" v:shadowOffsetX="1.44" v:shadowOffsetY="-1.44" v:shadowType="1"
					transform="matrix(1,0,0,1,-1.44,1.44)" class="st1">
				<path d="M0 841.89 L113.52 841.89" class="st8"/>
			</g>
			<path d="M0 841.89 L113.52 841.89" class="st10"/>
		</g>
		<g id="shape6-46" v:mID="6" v:groupContext="shape" transform="translate(325.984,-548.583)">
			<title>Foglio.6</title>
			<v:userDefs>
				<v:ud v:nameU="msvThemeColors" v:val="VT0(2):26"/>
				<v:ud v:nameU="msvThemeEffects" v:val="VT0(2):26"/>
			</v:userDefs>
			<g id="shadow6-47" v:groupContext="shadow" v:shadowOffsetX="1.44" v:shadowOffsetY="-1.44" v:shadowType="1"
					transform="matrix(1,0,0,1,1.44,1.44)" class="st1">
				<path d="M4.5 841.89 L4.86 841.89 L37.65 841.89" class="st12"/>
			</g>
			<path d="M4.5 841.89 L4.86 841.89 L37.65 841.89" class="st14"/>
		</g>
		<g id="shape8-65" v:mID="8" v:groupContext="shape" transform="translate(207.465,-708.661)">
			<title>Foglio.8</title>
			<desc>flow</desc>
			<v:userDefs>
				<v:ud v:nameU="msvThemeColors" v:val="VT0(2):26"/>
				<v:ud v:nameU="msvThemeEffects" v:val="VT0(2):26"/>
			</v:userDefs>
			<v:textBlock v:margins="rect(4,4,4,4)" v:tabSpace="42.5197"/>
			<v:textRect cx="76" cy="831.89" width="152" height="20"/>
			<rect x="0" y="821.89" width="152" height="20" class="st16"/>
			<text x="68.15" y="835.49" class="st17" v:langID="1040"><v:paragraph v:horizAlign="1"/><v:tabList/>f<tspan
						dy="-0.279em" class="st18" v:baseFontSize="12">low</tspan></text>		</g>
		<g id="shape9-69" v:mID="9" v:groupContext="shape" transform="translate(292.504,-708.661)">
			<title>Foglio.9</title>
			<desc>fhigh</desc>
			<v:userDefs>
				<v:ud v:nameU="msvThemeColors" v:val="VT0(2):26"/>
				<v:ud v:nameU="msvThemeEffects" v:val="VT0(2):26"/>
			</v:userDefs>
			<v:textBlock v:margins="rect(4,4,4,4)" v:tabSpace="42.5197"/>
			<v:textRect cx="76" cy="831.89" width="152" height="20"/>
			<rect x="0" y="821.89" width="152" height="20" class="st16"/>
			<text x="67.07" y="835.49" class="st17" v:langID="1040"><v:paragraph v:horizAlign="1"/><v:tabList/>f<tspan
						dy="-0.279em" class="st18" v:baseFontSize="12">high</tspan></text>		</g>
		<g id="shape10-73" v:mID="10" v:groupContext="shape" transform="translate(273.197,-524.409)">
			<title>Foglio.10</title>
			<desc>Δƒ= 50 KHz</desc>
			<v:userDefs>
				<v:ud v:nameU="msvThemeColors" v:val="VT0(2):26"/>
				<v:ud v:nameU="msvThemeEffects" v:val="VT0(2):26"/>
			</v:userDefs>
			<v:textBlock v:margins="rect(4,4,4,4)" v:tabSpace="42.5197"/>
			<v:textRect cx="76" cy="831.89" width="152" height="20"/>
			<rect x="0" y="821.89" width="152" height="20" class="st16"/>
			<text x="44.8" y="835.54" class="st17" v:langID="1040"><v:paragraph v:horizAlign="1"/><v:tabList/>Δ<tspan class="st19">ƒ</tspan><tspan
						class="st19">= </tspan>50 KHz</text>		</g>
		<g id="shape7-78" v:mID="7" v:groupContext="shape" transform="translate(249.984,-552.756)">
			<title>Foglio.7</title>
			<desc>2,44 GHz</desc>
			<v:userDefs>
				<v:ud v:nameU="msvThemeColors" v:val="VT0(2):26"/>
				<v:ud v:nameU="msvThemeEffects" v:val="VT0(2):26"/>
			</v:userDefs>
			<v:textBlock v:margins="rect(4,4,4,4)" v:tabSpace="42.5197"/>
			<v:textRect cx="76" cy="831.89" width="152" height="20"/>
			<rect x="0" y="821.89" width="152" height="20" class="st16"/>
			<text x="52" y="835.49" class="st20" v:langID="1040"><v:paragraph v:horizAlign="1"/><v:tabList/>2,44 GHz</text>		</g>
		<g id="shape12-81" v:mID="12" v:groupContext="shape" transform="translate(510.236,-556.929)">
			<title>Foglio.12</title>
			<desc>f</desc>
			<v:userDefs>
				<v:ud v:nameU="msvThemeColors" v:val="VT0(2):26"/>
				<v:ud v:nameU="msvThemeEffects" v:val="VT0(2):26"/>
			</v:userDefs>
			<v:textBlock v:margins="rect(4,4,4,4)" v:tabSpace="42.5197"/>
			<v:textRect cx="9.65354" cy="831.89" width="19.31" height="20"/>
			<rect x="0" y="821.89" width="19.3071" height="20" class="st16"/>
			<text x="7.99" y="835.49" class="st21" v:langID="1040"><v:paragraph v:horizAlign="1"/><v:tabList/>f</text>		</g>
		<g id="shape15-84" v:mID="15" v:groupContext="shape" transform="translate(340.157,-581.348)">
			<title>Foglio.15</title>
			<v:userDefs>
				<v:ud v:nameU="msvThemeColors" v:val="VT0(2):26"/>
				<v:ud v:nameU="msvThemeEffects" v:val="VT0(2):26"/>
			</v:userDefs>
			<g id="shadow15-85" v:groupContext="shadow" v:shadowOffsetX="1.44" v:shadowOffsetY="-1.44" v:shadowType="1"
					transform="matrix(1,0,0,1,1.44,1.44)" class="st1">
				<path d="M0 841.89 A184.007 28.3465 90 0 1 28.35 657.88 A184.007 28.3465 90 0 1 56.69 841.89" class="st22"/>
			</g>
			<path d="M0 841.89 A184.007 28.3465 90 0 1 28.35 657.88 A184.007 28.3465 90 0 1 56.69 841.89" class="st23"/>
		</g>
		<g id="shape16-91" v:mID="16" v:groupContext="shape" transform="translate(255.118,-581.348)">
			<title>Foglio.16</title>
			<v:userDefs>
				<v:ud v:nameU="msvThemeColors" v:val="VT0(2):26"/>
				<v:ud v:nameU="msvThemeEffects" v:val="VT0(2):26"/>
			</v:userDefs>
			<g id="shadow16-92" v:groupContext="shadow" v:shadowOffsetX="1.44" v:shadowOffsetY="-1.44" v:shadowType="1"
					transform="matrix(1,0,0,1,1.44,1.44)" class="st1">
				<path d="M56.69 841.89 A184.007 28.3465 -90 0 0 28.35 657.88 A184.007 28.3465 -90 0 0 0 841.89" class="st22"/>
			</g>
			<path d="M56.69 841.89 A184.007 28.3465 -90 0 0 28.35 657.88 A184.007 28.3465 -90 0 0 0 841.89" class="st23"/>
		</g>
		<g id="shape17-98" v:mID="17" v:groupContext="shape" transform="translate(311.811,-581.348)">
			<title>Foglio.17</title>
			<v:userDefs>
				<v:ud v:nameU="msvThemeColors" v:val="VT0(2):26"/>
				<v:ud v:nameU="msvThemeEffects" v:val="VT0(2):26"/>
			</v:userDefs>
			<g id="shadow17-99" v:groupContext="shadow" v:shadowOffsetX="1.44" v:shadowOffsetY="-1.44" v:shadowType="1"
					transform="matrix(1,0,0,1,1.44,1.44)" class="st1">
				<path d="M0 841.89 A118.29 14.1732 90 0 1 14.17 723.6 A118.29 14.1732 90 0 1 28.35 841.89" class="st22"/>
			</g>
			<path d="M0 841.89 A118.29 14.1732 90 0 1 14.17 723.6 A118.29 14.1732 90 0 1 28.35 841.89" class="st23"/>
		</g>
		<g id="shape19-105" v:mID="19" v:groupContext="shape" transform="translate(226.772,-581.348)">
			<title>Foglio.19</title>
			<v:userDefs>
				<v:ud v:nameU="msvThemeColors" v:val="VT0(2):26"/>
				<v:ud v:nameU="msvThemeEffects" v:val="VT0(2):26"/>
			</v:userDefs>
			<g id="shadow19-106" v:groupContext="shadow" v:shadowOffsetX="1.44" v:shadowOffsetY="-1.44" v:shadowType="1"
					transform="matrix(1,0,0,1,1.44,1.44)" class="st1">
				<path d="M0 841.89 A118.29 14.1732 90 0 1 14.17 723.6 A118.29 14.1732 90 0 1 28.35 841.89" class="st22"/>
			</g>
			<path d="M0 841.89 A118.29 14.1732 90 0 1 14.17 723.6 A118.29 14.1732 90 0 1 28.35 841.89" class="st23"/>
		</g>
		<g id="shape20-112" v:mID="20" v:groupContext="shape" transform="translate(396.85,-581.348)">
			<title>Foglio.20</title>
			<v:userDefs>
				<v:ud v:nameU="msvThemeColors" v:val="VT0(2):26"/>
				<v:ud v:nameU="msvThemeEffects" v:val="VT0(2):26"/>
			</v:userDefs>
			<g id="shadow20-113" v:groupContext="shadow" v:shadowOffsetX="1.44" v:shadowOffsetY="-1.44" v:shadowType="1"
					transform="matrix(1,0,0,1,1.44,1.44)" class="st1">
				<path d="M0 841.89 A118.29 14.1732 90 0 1 14.17 723.6 A118.29 14.1732 90 0 1 28.35 841.89" class="st22"/>
			</g>
			<path d="M0 841.89 A118.29 14.1732 90 0 1 14.17 723.6 A118.29 14.1732 90 0 1 28.35 841.89" class="st23"/>
		</g>
		<g id="shape23-119" v:mID="23" v:groupContext="shape" transform="translate(198.425,-581.348)">
			<title>Foglio.23</title>
			<v:userDefs>
				<v:ud v:nameU="msvThemeColors" v:val="VT0(2):26"/>
				<v:ud v:nameU="msvThemeEffects" v:val="VT0(2):26"/>
			</v:userDefs>
			<g id="shadow23-120" v:groupContext="shadow" v:shadowOffsetX="1.44" v:shadowOffsetY="-1.44" v:shadowType="1"
					transform="matrix(1,0,0,1,1.44,1.44)" class="st1">
				<path d="M-0 841.89 A78.86 14.1732 90 0 1 14.17 763.03 A78.86 14.1732 90 0 1 28.35 841.89" class="st22"/>
			</g>
			<path d="M-0 841.89 A78.86 14.1732 90 0 1 14.17 763.03 A78.86 14.1732 90 0 1 28.35 841.89" class="st23"/>
		</g>
		<g id="shape24-126" v:mID="24" v:groupContext="shape" transform="translate(425.197,-581.348)">
			<title>Foglio.24</title>
			<v:userDefs>
				<v:ud v:nameU="msvThemeColors" v:val="VT0(2):26"/>
				<v:ud v:nameU="msvThemeEffects" v:val="VT0(2):26"/>
			</v:userDefs>
			<g id="shadow24-127" v:groupContext="shadow" v:shadowOffsetX="1.44" v:shadowOffsetY="-1.44" v:shadowType="1"
					transform="matrix(1,0,0,1,1.44,1.44)" class="st1">
				<path d="M-0 841.89 A78.86 14.1732 90 0 1 14.17 763.03 A78.86 14.1732 90 0 1 28.35 841.89" class="st22"/>
			</g>
			<path d="M-0 841.89 A78.86 14.1732 90 0 1 14.17 763.03 A78.86 14.1732 90 0 1 28.35 841.89" class="st23"/>
		</g>
		<g id="shape25-133" v:mID="25" v:groupContext="shape" transform="translate(453.543,-581.348)">
			<title>Foglio.25</title>
			<v:userDefs>
				<v:ud v:nameU="msvThemeColors" v:val="VT0(2):26"/>
				<v:ud v:nameU="msvThemeEffects" v:val="VT0(2):26"/>
			</v:userDefs>
			<g id="shadow25-134" v:groupContext="shadow" v:shadowOffsetX="1.44" v:shadowOffsetY="-1.44" v:shadowType="1"
					transform="matrix(1,0,0,1,1.44,1.44)" class="st1">
				<path d="M0 841.89 A52.5734 14.1732 90 0 1 14.17 789.32 A52.5734 14.1732 90 0 1 28.35 841.89" class="st22"/>
			</g>
			<path d="M0 841.89 A52.5734 14.1732 90 0 1 14.17 789.32 A52.5734 14.1732 90 0 1 28.35 841.89" class="st23"/>
		</g>
		<g id="shape26-140" v:mID="26" v:groupContext="shape" transform="translate(170.079,-581.348)">
			<title>Foglio.26</title>
			<v:userDefs>
				<v:ud v:nameU="msvThemeColors" v:val="VT0(2):26"/>
				<v:ud v:nameU="msvThemeEffects" v:val="VT0(2):26"/>
			</v:userDefs>
			<g id="shadow26-141" v:groupContext="shadow" v:shadowOffsetX="1.44" v:shadowOffsetY="-1.44" v:shadowType="1"
					transform="matrix(1,0,0,1,1.44,1.44)" class="st1">
				<path d="M0 841.89 A52.5734 14.1732 90 0 1 14.17 789.32 A52.5734 14.1732 90 0 1 28.35 841.89" class="st22"/>
			</g>
			<path d="M0 841.89 A52.5734 14.1732 90 0 1 14.17 789.32 A52.5734 14.1732 90 0 1 28.35 841.89" class="st23"/>
		</g>
		<g id="shape27-147" v:mID="27" v:groupContext="shape" transform="translate(481.89,-581.348)">
			<title>Foglio.27</title>
			<v:userDefs>
				<v:ud v:nameU="msvThemeColors" v:val="VT0(2):26"/>
				<v:ud v:nameU="msvThemeEffects" v:val="VT0(2):26"/>
			</v:userDefs>
			<g id="shadow27-148" v:groupContext="shadow" v:shadowOffsetX="1.44" v:shadowOffsetY="-1.44" v:shadowType="1"
					transform="matrix(1,0,0,1,1.44,1.44)" class="st1">
				<path d="M28.35 841.89 A26.2867 14.1732 -90 0 0 14.17 815.6 A29.157 14.2917 -90 0 0 -0 841.89" class="st22"/>
			</g>
			<path d="M28.35 841.89 A26.2867 14.1732 -90 0 0 14.17 815.6 A29.157 14.2917 -90 0 0 -0 841.89" class="st23"/>
		</g>
		<g id="shape28-154" v:mID="28" v:groupContext="shape" transform="translate(141.732,-581.348)">
			<title>Foglio.28</title>
			<v:userDefs>
				<v:ud v:nameU="msvThemeColors" v:val="VT0(2):26"/>
				<v:ud v:nameU="msvThemeEffects" v:val="VT0(2):26"/>
			</v:userDefs>
			<g id="shadow28-155" v:groupContext="shadow" v:shadowOffsetX="1.44" v:shadowOffsetY="-1.44" v:shadowType="1"
					transform="matrix(1,0,0,1,1.44,1.44)" class="st1">
				<path d="M28.35 841.89 A26.2867 14.1732 -90 0 0 14.17 815.6 A29.157 14.2917 -90 0 0 -0 841.89" class="st22"/>
			</g>
			<path d="M28.35 841.89 A26.2867 14.1732 -90 0 0 14.17 815.6 A29.157 14.2917 -90 0 0 -0 841.89" class="st23"/>
		</g>
		<g id="shape2-161" v:mID="2" v:groupContext="shape" transform="translate(255.118,-572.756)">
			<title>Foglio.2</title>
			<v:userDefs>
				<v:ud v:nameU="msvThemeColors" v:val="VT0(2):26"/>
				<v:ud v:nameU="msvThemeEffects" v:val="VT0(2):26"/>
			</v:userDefs>
			<g id="shadow2-162" v:groupContext="shadow" v:shadowOffsetX="1.44" v:shadowOffsetY="-1.44" v:shadowType="1"
					transform="matrix(1,0,0,1,1.44,1.44)" class="st1">
				<path d="M4.5 841.89 L4.86 841.89 L23.48 841.89" class="st12"/>
			</g>
			<path d="M4.5 841.89 L4.86 841.89 L23.48 841.89" class="st14"/>
		</g>
		<g id="shape11-176" v:mID="11" v:groupContext="shape" transform="translate(236.693,-546.929)">
			<title>Foglio.11</title>
			<desc>40 KHz</desc>
			<v:userDefs>
				<v:ud v:nameU="msvThemeColors" v:val="VT0(2):26"/>
				<v:ud v:nameU="msvThemeEffects" v:val="VT0(2):26"/>
			</v:userDefs>
			<v:textBlock v:margins="rect(4,4,4,4)" v:tabSpace="42.5197"/>
			<v:textRect cx="32.5984" cy="831.89" width="65.2" height="20"/>
			<rect x="0" y="821.89" width="65.1969" height="20" class="st16"/>
			<text x="13.77" y="835.49" class="st17" v:langID="1040"><v:paragraph v:horizAlign="1"/><v:tabList/>40 KHz</text>		</g>
	</g>
</svg>
