<?xml version="1.0" encoding="UTF-8" standalone="no"?>
<!-- Created with Inkscape (http://www.inkscape.org/) -->
<svg
   xmlns:dc="http://purl.org/dc/elements/1.1/"
   xmlns:cc="http://creativecommons.org/ns#"
   xmlns:rdf="http://www.w3.org/1999/02/22-rdf-syntax-ns#"
   xmlns:svg="http://www.w3.org/2000/svg"
   xmlns="http://www.w3.org/2000/svg"
   xmlns:sodipodi="http://sodipodi.sourceforge.net/DTD/sodipodi-0.dtd"
   xmlns:inkscape="http://www.inkscape.org/namespaces/inkscape"
   id="svg2"
   sodipodi:version="0.32"
   inkscape:version="0.46"
   width="670.2182"
   height="304.14017"
   xml:space="preserve"
   sodipodi:docname="schema.svg"
   version="1.0"
   inkscape:output_extension="org.inkscape.output.svg.inkscape"><metadata
     id="metadata7"><rdf:RDF><cc:Work
         rdf:about=""><dc:format>image/svg+xml</dc:format><dc:type
           rdf:resource="http://purl.org/dc/dcmitype/StillImage" /></cc:Work></rdf:RDF></metadata><defs
     id="defs5"><inkscape:perspective
       sodipodi:type="inkscape:persp3d"
       inkscape:vp_x="0 : 526.18109 : 1"
       inkscape:vp_y="0 : 1000 : 0"
       inkscape:vp_z="744.09448 : 526.18109 : 1"
       inkscape:persp3d-origin="372.04724 : 350.78739 : 1"
       id="perspective9" /></defs><sodipodi:namedview
     inkscape:window-height="712"
     inkscape:window-width="1024"
     inkscape:pageshadow="2"
     inkscape:pageopacity="0.0"
     guidetolerance="10.0"
     gridtolerance="10.0"
     objecttolerance="10.0"
     borderopacity="1.0"
     bordercolor="#666666"
     pagecolor="#ffffff"
     id="base"
     showgrid="false"
     inkscape:zoom="0.79377134"
     inkscape:cx="335.1091"
     inkscape:cy="152.07008"
     inkscape:window-x="-4"
     inkscape:window-y="-4"
     inkscape:current-layer="g11" /><g
     id="g11"
     inkscape:groupmode="layer"
     inkscape:label="schema"
     transform="matrix(1.25,0,0,-1.25,-32.667115,740.00268)"><g
       id="g13"
       transform="scale(0.12,0.12)"><path
         d="M 970,4074.67 L 1797,4074.67 L 1797,4665.67 L 970,4665.67 L 970,4074.67 z"
         style="fill:#ccd8e8;fill-opacity:1;fill-rule:evenodd;stroke:none"
         id="path15" /><path
         d="M 970,4074.67 L 1797,4074.67 L 1797,4665.67 L 970,4665.67 L 970,4074.67 z"
         style="fill:none;stroke:#1f497d;stroke-width:9.99870014;stroke-linecap:round;stroke-linejoin:round;stroke-miterlimit:10;stroke-dasharray:none;stroke-opacity:1"
         id="path17" /><g
         id="g19"
         transform="scale(8.33333,8.33333)"><text
           transform="matrix(0.999418,0,0,-1,132.24,522.08)"
           id="text21"><tspan
             style="font-size:8.03999996px;font-variant:normal;font-weight:normal;writing-mode:lr-tb;fill:#000000;fill-opacity:1;fill-rule:nonzero;stroke:none;font-family:Arial;-inkscape-font-specification:Arial"
             x="0 4.804081 10.682231 15.969296 21.252432 27.976282 33.259418 38.183571 43.107719 45.270332 50.194481 56.439476 62.201485"
             y="0"
             sodipodi:role="line"
             id="tspan23">TRASMETTITORE</tspan></text>
</g><path
         d="M 3037,4074.67 L 3864,4074.67 L 3864,4665.67 L 3037,4665.67 L 3037,4074.67 z"
         style="fill:#ccd8e8;fill-opacity:1;fill-rule:evenodd;stroke:none"
         id="path25" /><path
         d="M 3037,4074.67 L 3864,4074.67 L 3864,4665.67 L 3037,4665.67 L 3037,4074.67 z"
         style="fill:none;stroke:#1f497d;stroke-width:9.99870014;stroke-linecap:round;stroke-linejoin:round;stroke-miterlimit:10;stroke-dasharray:none;stroke-opacity:1"
         id="path27" /><g
         id="g29"
         transform="scale(8.33333,8.33333)"><text
           transform="matrix(0.999418,0,0,-1,389.52,522.08)"
           id="text31"><tspan
             style="font-size:8.03999996px;font-variant:normal;font-weight:normal;writing-mode:lr-tb;fill:#000000;fill-opacity:1;fill-rule:nonzero;stroke:none;font-family:Arial;-inkscape-font-specification:Arial"
             x="0 5.7619939 8.0446606 13.806655 19.089806 24.493027 26.655624 31.57979 37.824768 43.586761"
             y="0"
             sodipodi:role="line"
             id="tspan33">RICEVITORE</tspan></text>
</g><path
         d="M 2092,3366.67 L 2919,3366.67 L 2919,3720.67 L 2092,3720.67 L 2092,3366.67 z"
         style="fill:#d0dfb1;fill-opacity:1;fill-rule:evenodd;stroke:none"
         id="path35" /><path
         d="M 2092,3366.67 L 2919,3366.67 L 2919,3720.67 L 2092,3720.67 L 2092,3366.67 z"
         style="fill:none;stroke:#1f497d;stroke-width:9.99870014;stroke-linecap:round;stroke-linejoin:round;stroke-miterlimit:10;stroke-dasharray:none;stroke-opacity:1"
         id="path37" /><g
         id="g39"
         transform="scale(8.33333,8.33333)"><text
           transform="matrix(0.999418,0,0,-1,272.4,422.84)"
           id="text41"><tspan
             style="font-size:8.03999996px;font-variant:normal;font-weight:normal;writing-mode:lr-tb;fill:#000000;fill-opacity:1;fill-rule:nonzero;stroke:none;font-family:Arial;-inkscape-font-specification:Arial"
             x="0 6.6037793 8.4034634 12.485843 16.927208 19.568678 24.010044 26.172642 30.614006 33.375546 37.81691 39.979507 45.382729 50.665882"
             y="0"
             sodipodi:role="line"
             id="tspan43">Misuratore BER</tspan></text>
</g><path
         d="M 1962,4251.67 L 2565,4251.67 L 2565,4488.67 L 1962,4488.67 L 1962,4251.67 z"
         style="fill:#f3f3f3;fill-opacity:1;fill-rule:evenodd;stroke:none"
         id="path45" /><path
         d="M 1962,4251.67 L 2565,4251.67 L 2565,4488.67 L 1962,4488.67 L 1962,4251.67 z"
         style="fill:none;stroke:#1f497d;stroke-width:9.99870014;stroke-linecap:round;stroke-linejoin:round;stroke-miterlimit:10;stroke-dasharray:none;stroke-opacity:1"
         id="path47" /><g
         id="g49"
         transform="scale(8.33333,8.33333)"><text
           transform="matrix(0.999418,0,0,-1,241.796,526.88)"
           id="text51"><tspan
             style="font-size:8.03999996px;font-variant:normal;font-weight:normal;writing-mode:lr-tb;fill:#000000;fill-opacity:1;fill-rule:nonzero;stroke:none;font-family:Arial;-inkscape-font-specification:Arial"
             x="0 5.2870793 7.5697465 9.7323437 14.17371 18.615076 23.05644 27.497807 31.580187 33.379871 37.821236 42.262604 46.703968 48.866566 53.30793 57.749298"
             y="0"
             sodipodi:role="line"
             id="tspan53">Attenuazione del</tspan><tspan
             style="font-size:8.03999996px;font-variant:normal;font-weight:normal;writing-mode:lr-tb;fill:#000000;fill-opacity:1;fill-rule:nonzero;stroke:none;font-family:Arial;-inkscape-font-specification:Arial"
             x="18.0144 21.976709 26.418076 30.859442 35.300808 37.100491"
             y="9.6000004"
             sodipodi:role="line"
             id="tspan55">canale</tspan></text>
</g><path
         d="M 2738,4432.67 C 2773,4467.67 2829,4467.67 2863,4432.67 C 2898,4398.67 2898,4341.67 2863,4307.67 L 2863,4307.67 C 2829,4272.67 2773,4272.67 2738,4307.67 C 2704,4341.67 2704,4398.67 2738,4432.67 L 2738,4432.67"
         style="fill:#f3f3f3;fill-opacity:1;fill-rule:evenodd;stroke:none"
         id="path57" /><path
         d="M 2738,4432.67 C 2773,4467.67 2829,4467.67 2863,4432.67 C 2898,4398.67 2898,4341.67 2863,4307.67 L 2863,4307.67 C 2829,4272.67 2773,4272.67 2738,4307.67 C 2704,4341.67 2704,4398.67 2738,4432.67 L 2738,4432.67 z"
         style="fill:none;stroke:#1f497d;stroke-width:9.99870014;stroke-linecap:round;stroke-linejoin:round;stroke-miterlimit:10;stroke-dasharray:none;stroke-opacity:1"
         id="path59" /><path
         d="M 2801,4458.67 L 2801,4281.67"
         style="fill:none;stroke:#1f497d;stroke-width:9.99870014;stroke-linecap:round;stroke-linejoin:round;stroke-miterlimit:10;stroke-dasharray:none;stroke-opacity:1"
         id="path61" /><path
         d="M 2712,4369.67 L 2889,4369.67"
         style="fill:none;stroke:#1f497d;stroke-width:9.99870014;stroke-linecap:round;stroke-linejoin:round;stroke-miterlimit:10;stroke-dasharray:none;stroke-opacity:1"
         id="path63" /><path
         d="M 2565,4369.67 L 2643,4369.67"
         style="fill:none;stroke:#1f497d;stroke-width:9.99870014;stroke-linecap:round;stroke-linejoin:round;stroke-miterlimit:10;stroke-dasharray:none;stroke-opacity:1"
         id="path65" /><path
         d="M 2637,4394.67 L 2712,4369.67 L 2637,4344.67 L 2637,4394.67"
         style="fill:#1f497d;fill-opacity:1;fill-rule:evenodd;stroke:none"
         id="path67" /><path
         d="M 2889,4369.67 L 2968,4369.67"
         style="fill:none;stroke:#1f497d;stroke-width:9.99870014;stroke-linecap:round;stroke-linejoin:round;stroke-miterlimit:10;stroke-dasharray:none;stroke-opacity:1"
         id="path69" /><path
         d="M 2962,4394.67 L 3037,4369.67 L 2962,4344.67 L 2962,4394.67"
         style="fill:#1f497d;fill-opacity:1;fill-rule:evenodd;stroke:none"
         id="path71" /><path
         d="M 1797,4369.67 L 1894,4369.67"
         style="fill:none;stroke:#1f497d;stroke-width:9.99870014;stroke-linecap:round;stroke-linejoin:round;stroke-miterlimit:10;stroke-dasharray:none;stroke-opacity:1"
         id="path73" /><path
         d="M 1887,4394.67 L 1962,4369.67 L 1887,4344.67 L 1887,4394.67"
         style="fill:#1f497d;fill-opacity:1;fill-rule:evenodd;stroke:none"
         id="path75" /><path
         d="M 2801,4818.67 L 2801,4527.67"
         style="fill:none;stroke:#1f497d;stroke-width:9.99870014;stroke-linecap:round;stroke-linejoin:round;stroke-miterlimit:10;stroke-dasharray:none;stroke-opacity:1"
         id="path77" /><path
         d="M 2826,4533.67 L 2801,4458.67 L 2776,4533.67 L 2826,4533.67"
         style="fill:#1f497d;fill-opacity:1;fill-rule:evenodd;stroke:none"
         id="path79" /><path
         d="M 557,4369.67 L 902,4369.67"
         style="fill:none;stroke:#1f497d;stroke-width:9.99870014;stroke-linecap:round;stroke-linejoin:round;stroke-miterlimit:10;stroke-dasharray:none;stroke-opacity:1"
         id="path81" /><path
         d="M 895,4394.67 L 970,4369.67 L 895,4344.67 L 895,4394.67"
         style="fill:#1f497d;fill-opacity:1;fill-rule:evenodd;stroke:none"
         id="path83" /><path
         d="M 3864,4369.67 L 4272,4369.67"
         style="fill:none;stroke:#1f497d;stroke-width:9.99870014;stroke-linecap:round;stroke-linejoin:round;stroke-miterlimit:10;stroke-dasharray:none;stroke-opacity:1"
         id="path85" /><path
         d="M 4266,4394.67 L 4341,4369.67 L 4266,4344.67 L 4266,4394.67"
         style="fill:#1f497d;fill-opacity:1;fill-rule:evenodd;stroke:none"
         id="path87" /><path
         d="M 734,4369.67 L 734,3543.67 L 2023,3543.67"
         style="fill:none;stroke:#1f497d;stroke-width:9.99870014;stroke-linecap:round;stroke-linejoin:round;stroke-miterlimit:10;stroke-dasharray:none;stroke-opacity:1"
         id="path89" /><path
         d="M 2017,3568.67 L 2092,3543.67 L 2017,3518.67 L 2017,3568.67"
         style="fill:#1f497d;fill-opacity:1;fill-rule:evenodd;stroke:none"
         id="path91" /><path
         d="M 4100,4369.67 L 4100,3543.67 L 2988,3543.67"
         style="fill:none;stroke:#1f497d;stroke-width:9.99870014;stroke-linecap:round;stroke-linejoin:round;stroke-miterlimit:10;stroke-dasharray:none;stroke-opacity:1"
         id="path93" /><path
         d="M 2994,3518.67 L 2919,3543.67 L 2994,3568.67 L 2994,3518.67"
         style="fill:#1f497d;fill-opacity:1;fill-rule:evenodd;stroke:none"
         id="path95" /><path
         d="M 2506,3366.67 L 2506,3080.67"
         style="fill:none;stroke:#1f497d;stroke-width:9.99870014;stroke-linecap:round;stroke-linejoin:round;stroke-miterlimit:10;stroke-dasharray:none;stroke-opacity:1"
         id="path97" /><path
         d="M 2531,3086.67 L 2506,3011.67 L 2481,3086.67 L 2531,3086.67"
         style="fill:#1f497d;fill-opacity:1;fill-rule:evenodd;stroke:none"
         id="path99" /><g
         id="g101"
         transform="scale(8.33333,8.33333)"><text
           transform="matrix(0.999427,0,0,-1,304.08,585.56)"
           id="text103"><tspan
             style="font-size:9px;font-variant:normal;font-weight:normal;writing-mode:lr-tb;fill:#000000;fill-opacity:1;fill-rule:nonzero;stroke:none;font-family:Arial;-inkscape-font-specification:Arial"
             x="0 6.4822001 11.403652 18.967928 24.009449 27.01111 31.932562 34.455521 36.978481 42.020004 45.021664 52.46587 54.505524 58.948071"
             y="0"
             sodipodi:role="line"
             id="tspan105">Rumore termico</tspan><tspan
             style="font-size:9px;font-variant:normal;font-weight:normal;writing-mode:lr-tb;fill:#000000;fill-opacity:1;fill-rule:nonzero;stroke:none;font-family:Arial;-inkscape-font-specification:Arial"
             x="-278.79999 -272.31778 -267.27628 -264.75333 -262.83371 -260.31076 -254.78615 228.97099 235.45323 240.49475 242.89761 244.9373 247.46022 253.94246"
             y="63.720001"
             sodipodi:role="line"
             id="tspan107">Dati TxDati Rx</tspan><tspan
             style="font-size:9px;font-variant:normal;font-weight:normal;writing-mode:lr-tb;fill:#000000;fill-opacity:1;fill-rule:nonzero;stroke:none;font-family:Arial;-inkscape-font-specification:Arial"
             x="-27.256001 -21.253 -15.129433 -8.6472321 -6.2443423 -1.6817282 2.7608168 5.2837763 11.286777 17.768976"
             y="236.75999"
             sodipodi:role="line"
             id="tspan109">BER vs SNR</tspan></text>
</g></g></g></svg>