<?xml version="1.0" encoding="UTF-8" standalone="no"?>
<!-- Created with Inkscape (http://www.inkscape.org/) -->
<svg
   xmlns:dc="http://purl.org/dc/elements/1.1/"
   xmlns:cc="http://creativecommons.org/ns#"
   xmlns:rdf="http://www.w3.org/1999/02/22-rdf-syntax-ns#"
   xmlns:svg="http://www.w3.org/2000/svg"
   xmlns="http://www.w3.org/2000/svg"
   xmlns:sodipodi="http://sodipodi.sourceforge.net/DTD/sodipodi-0.dtd"
   xmlns:inkscape="http://www.inkscape.org/namespaces/inkscape"
   id="svg2"
   sodipodi:version="0.32"
   inkscape:version="0.46"
   width="531.89996"
   height="297.00742"
   xml:space="preserve"
   sodipodi:docname="spettro.svg"
   version="1.0"
   inkscape:output_extension="org.inkscape.output.svg.inkscape"><metadata
     id="metadata7"><rdf:RDF><cc:Work
         rdf:about=""><dc:format>image/svg+xml</dc:format><dc:type
           rdf:resource="http://purl.org/dc/dcmitype/StillImage" /></cc:Work></rdf:RDF></metadata><defs
     id="defs5"><inkscape:perspective
       sodipodi:type="inkscape:persp3d"
       inkscape:vp_x="0 : 526.18109 : 1"
       inkscape:vp_y="0 : 1000 : 0"
       inkscape:vp_z="744.09448 : 526.18109 : 1"
       inkscape:persp3d-origin="372.04724 : 350.78739 : 1"
       id="perspective9" /></defs><sodipodi:namedview
     inkscape:window-height="712"
     inkscape:window-width="1024"
     inkscape:pageshadow="2"
     inkscape:pageopacity="0.0"
     guidetolerance="10.0"
     gridtolerance="10.0"
     objecttolerance="10.0"
     borderopacity="1.0"
     bordercolor="#666666"
     pagecolor="#ffffff"
     id="base"
     showgrid="false"
     inkscape:zoom="1.7070281"
     inkscape:cx="265.94998"
     inkscape:cy="148.50371"
     inkscape:window-x="0"
     inkscape:window-y="22"
     inkscape:current-layer="g35" /><g
     id="g11"
     inkscape:groupmode="layer"
     inkscape:label="Visio-Frequenze"
     transform="matrix(1.25,0,0,-1.25,-141.30006,957.5504)"><g
       id="g13"
       transform="scale(0.12,0.12)"><path
         d="M 945,4843.67 L 4414,4843.67"
         style="fill:none;stroke:#000000;stroke-width:5.99919987000000000;stroke-linecap:round;stroke-linejoin:round;stroke-miterlimit:10;stroke-dasharray:none;stroke-opacity:1"
         id="path15" /><path
         d="M 4407,4870.67 L 4488,4843.67 L 4407,4816.67 L 4407,4870.67"
         style="fill:#000000;fill-opacity:1;fill-rule:evenodd;stroke:none"
         id="path17" /><path
         d="M 2717,4913.67 L 2717,4798.67"
         style="fill:none;stroke:#000000;stroke-width:17.99769974;stroke-linecap:round;stroke-linejoin:round;stroke-miterlimit:10;stroke-dasharray:none;stroke-opacity:1"
         id="path19" /><path
         d="M 2362,4843.67 L 2362,5798.67"
         style="fill:none;stroke:#000000;stroke-width:17.99769974;stroke-linecap:round;stroke-linejoin:round;stroke-miterlimit:10;stroke-dasharray:none;stroke-opacity:1"
         id="path21" /><path
         d="M 2323,5788.67 L 2362,5905.67 L 2401,5788.67 L 2323,5788.67"
         style="fill:#000000;fill-opacity:1;fill-rule:evenodd;stroke:none"
         id="path23" /><path
         d="M 3071,4843.67 L 3071,5798.67"
         style="fill:none;stroke:#000000;stroke-width:17.99769974;stroke-linecap:round;stroke-linejoin:round;stroke-miterlimit:10;stroke-dasharray:none;stroke-opacity:1"
         id="path25" /><path
         d="M 3032,5788.67 L 3071,5905.67 L 3110,5788.67 L 3032,5788.67"
         style="fill:#000000;fill-opacity:1;fill-rule:evenodd;stroke:none"
         id="path27" /><path
         d="M 2752,4572.67 L 3036,4572.67"
         style="fill:none;stroke:#1f497d;stroke-width:2.16630006;stroke-linecap:round;stroke-linejoin:round;stroke-miterlimit:10;stroke-dasharray:none;stroke-opacity:1"
         id="path29" /><path
         d="M 2717,4572.67 L 2763,4595.67 C 2756,4580.67 2756,4563.67 2763,4548.67 L 2763,4548.67 L 2717,4572.67"
         style="fill:#1f497d;fill-opacity:1;fill-rule:evenodd;stroke:none"
         id="path31" /><path
         d="M 3071,4572.67 L 3025,4548.67 C 3032,4563.67 3032,4580.67 3025,4595.67 L 3025,4595.67 L 3071,4572.67"
         style="fill:#1f497d;fill-opacity:1;fill-rule:evenodd;stroke:none"
         id="path33" /><g
         id="g35"
         transform="scale(8.33333,8.33333)"><text
   transform="matrix(0.99941,0,0,-1,275.64,715.16)"
   id="text37"
   sodipodi:linespacing="125%"><tspan
     style="font-size:12px;font-variant:normal;font-weight:normal;writing-mode:lr;fill:#000000;fill-opacity:1;fill-rule:nonzero;stroke:none;font-family:Arial;-inkscape-font-specification:Arial Italic;font-style:italic;font-stretch:normal;text-anchor:start;text-align:start;line-height:125%"
     x="0"
     y="0"
     id="tspan39">f</tspan></text>


<text
   transform="matrix(0.9994,0,0,-1,279.6,713.48)"
   id="text41"
   sodipodi:linespacing="125%"
   style="line-height:125%"><tspan
     style="font-size:6px;font-style:normal;font-variant:normal;font-weight:normal;font-stretch:normal;text-align:start;line-height:125%;writing-mode:lr-tb;text-anchor:start;fill:#000000;fill-opacity:1;fill-rule:nonzero;stroke:none;font-family:Arial;-inkscape-font-specification:Arial"
     x="0"
     y="0"
     sodipodi:role="line"
     id="tspan43">space</tspan></text>


<text
   transform="matrix(0.99941,0,0,-1,359.52,715.16)"
   id="text45"
   style="-inkscape-font-specification:Arial Italic;font-family:Arial;font-weight:normal;font-style:italic;font-stretch:normal;font-variant:normal;font-size:11.20330994px;text-anchor:start;text-align:start;writing-mode:lr;line-height:125%"
   sodipodi:linespacing="125%"><tspan
     style="font-size:12px;font-variant:normal;font-weight:normal;writing-mode:lr;fill:#000000;fill-opacity:1;fill-rule:nonzero;stroke:none;font-family:Arial;-inkscape-font-specification:Arial Italic;font-style:italic;font-stretch:normal;text-anchor:start;text-align:start;line-height:125%"
     x="0"
     y="0"
     id="tspan47">f</tspan></text>


<text
   transform="matrix(0.9994,0,0,-1,363.48,713.48)"
   id="text49"
   style="font-size:5.99996281px;font-style:normal;font-variant:normal;font-weight:normal;font-stretch:normal;text-align:start;line-height:125%;writing-mode:lr-tb;text-anchor:start;font-family:Arial;-inkscape-font-specification:Arial"
   sodipodi:linespacing="125%"><tspan
     style="font-size:5.99996281px;font-style:normal;font-variant:normal;font-weight:normal;font-stretch:normal;text-align:start;line-height:125%;writing-mode:lr-tb;text-anchor:start;fill:#000000;fill-opacity:1;fill-rule:nonzero;stroke:none;font-family:Arial;-inkscape-font-specification:Arial"
     x="0"
     sodipodi:role="line"
     id="tspan51"
     y="0">mark</tspan></text>


<text
   transform="matrix(0.99941,0,0,-1,318,530.96)"
   id="text53"><tspan
     style="font-size:12px;font-variant:normal;font-weight:normal;writing-mode:lr-tb;fill:#000000;fill-opacity:1;fill-rule:nonzero;stroke:none;font-family:LiberationSerif;-inkscape-font-specification:LiberationSerif"
     x="0"
     y="0"
     id="tspan55">∆</tspan></text>


<text
   transform="matrix(0.99941,0,0,-1,325.68,530.96)"
   id="text57"><tspan
     style="font-size:12px;font-variant:normal;font-weight:normal;writing-mode:lr-tb;fill:#000000;fill-opacity:1;fill-rule:nonzero;stroke:none;font-family:Arial;-inkscape-font-specification:Arial"
     x="0 6.7221274 13.686419"
     y="0"
     sodipodi:role="line"
     id="tspan59">ƒ= </tspan></text>


<text
   transform="matrix(0.99941,0,0,-1,342.72004,530.96)"
   id="text61"><tspan
     style="font-size:12px;font-variant:normal;font-weight:normal;writing-mode:lr-tb;fill:#000000;fill-opacity:1;fill-rule:nonzero;stroke:none;font-family:LiberationSerif;-inkscape-font-specification:LiberationSerif"
     x="0 6.0035472 12.007094 15.008865 23.651964 32.295063"
     y="0"
     sodipodi:role="line"
     id="tspan63">50 KHz</tspan></text>


<text
   transform="matrix(0.99941,0,0,-1,301.92002,559.28)"
   id="text65"
   sodipodi:linespacing="125%"><tspan
     style="font-size:12px;font-variant:normal;font-weight:bold;writing-mode:lr;fill:#000000;fill-opacity:1;fill-rule:nonzero;stroke:none;font-family:Arial;-inkscape-font-specification:Arial Bold;font-style:normal;font-stretch:normal;text-anchor:start;text-align:start;line-height:125%"
     x="0 6.0035472 9.0053062 15.008853 21.0124 24.014172 33.381714 42.749256"
     y="0"
     sodipodi:role="line"
     id="tspan67">2,44 GHz</tspan></text>


<text
   transform="matrix(0.99941,0,0,-1,518.16037,563.48)"
   id="text69"><tspan
     style="font-size:12px;font-variant:normal;font-weight:normal;writing-mode:lr-tb;fill:#000000;fill-opacity:1;fill-rule:nonzero;stroke:none;font-family:Arial;-inkscape-font-specification:Arial"
     x="0"
     y="0"
     id="tspan71">ƒ</tspan></text>


</g><path
         d="M 2835,4845.67 C 2835,5691.67 2941,6378.67 3071,6378.67 C 3201,6378.67 3307,5691.67 3307,4845.67"
         style="fill:none;stroke:#1f497d;stroke-width:9.99870014;stroke-linecap:round;stroke-linejoin:round;stroke-miterlimit:10;stroke-dasharray:none;stroke-opacity:1"
         id="path73" /><path
         d="M 2599,4845.67 C 2599,5691.67 2493,6378.67 2362,6378.67 C 2232,6378.67 2126,5691.67 2126,4845.67"
         style="fill:none;stroke:#1f497d;stroke-width:9.99870014;stroke-linecap:round;stroke-linejoin:round;stroke-miterlimit:10;stroke-dasharray:none;stroke-opacity:1"
         id="path75" /><path
         d="M 2599,4845.67 C 2599,5389.67 2651,5830.67 2717,5830.67 C 2782,5830.67 2835,5389.67 2835,4845.67"
         style="fill:none;stroke:#1f497d;stroke-width:9.99870014;stroke-linecap:round;stroke-linejoin:round;stroke-miterlimit:10;stroke-dasharray:none;stroke-opacity:1"
         id="path77" /><path
         d="M 1890,4845.67 C 1890,5389.67 1943,5830.67 2008,5830.67 C 2073,5830.67 2126,5389.67 2126,4845.67"
         style="fill:none;stroke:#1f497d;stroke-width:9.99870014;stroke-linecap:round;stroke-linejoin:round;stroke-miterlimit:10;stroke-dasharray:none;stroke-opacity:1"
         id="path79" /><path
         d="M 3307,4845.67 C 3307,5389.67 3360,5830.67 3425,5830.67 C 3490,5830.67 3543,5389.67 3543,4845.67"
         style="fill:none;stroke:#1f497d;stroke-width:9.99870014;stroke-linecap:round;stroke-linejoin:round;stroke-miterlimit:10;stroke-dasharray:none;stroke-opacity:1"
         id="path81" /><path
         d="M 1654,4845.67 C 1654,5207.67 1707,5502.67 1772,5502.67 C 1837,5502.67 1890,5207.67 1890,4845.67"
         style="fill:none;stroke:#1f497d;stroke-width:9.99870014;stroke-linecap:round;stroke-linejoin:round;stroke-miterlimit:10;stroke-dasharray:none;stroke-opacity:1"
         id="path83" /><path
         d="M 3543,4845.67 C 3543,5207.67 3596,5502.67 3661,5502.67 C 3727,5502.67 3780,5207.67 3780,4845.67"
         style="fill:none;stroke:#1f497d;stroke-width:9.99870014;stroke-linecap:round;stroke-linejoin:round;stroke-miterlimit:10;stroke-dasharray:none;stroke-opacity:1"
         id="path85" /><path
         d="M 3780,4845.67 C 3780,5087.67 3832,5283.67 3898,5283.67 C 3963,5283.67 4016,5087.67 4016,4845.67"
         style="fill:none;stroke:#1f497d;stroke-width:9.99870014;stroke-linecap:round;stroke-linejoin:round;stroke-miterlimit:10;stroke-dasharray:none;stroke-opacity:1"
         id="path87" /><path
         d="M 1418,4845.67 C 1418,5087.67 1470,5283.67 1536,5283.67 C 1601,5283.67 1654,5087.67 1654,4845.67"
         style="fill:none;stroke:#1f497d;stroke-width:9.99870014;stroke-linecap:round;stroke-linejoin:round;stroke-miterlimit:10;stroke-dasharray:none;stroke-opacity:1"
         id="path89" /><path
         d="M 4252,4845.67 C 4252,4966.67 4199,5064.67 4134,5064.67 C 4073,5063.67 4022,4969.67 4016,4845.67"
         style="fill:none;stroke:#1f497d;stroke-width:9.99870014;stroke-linecap:round;stroke-linejoin:round;stroke-miterlimit:10;stroke-dasharray:none;stroke-opacity:1"
         id="path91" /><path
         d="M 1418,4845.67 C 1418,4966.67 1365,5064.67 1300,5064.67 C 1238,5063.67 1187,4969.67 1181,4845.67"
         style="fill:none;stroke:#1f497d;stroke-width:9.99870014;stroke-linecap:round;stroke-linejoin:round;stroke-miterlimit:10;stroke-dasharray:none;stroke-opacity:1"
         id="path93" /><path
         d="M 2161,4773.67 L 2327,4773.67"
         style="fill:none;stroke:#1f497d;stroke-width:2.16630006;stroke-linecap:round;stroke-linejoin:round;stroke-miterlimit:10;stroke-dasharray:none;stroke-opacity:1"
         id="path95" /><path
         d="M 2126,4773.67 L 2173,4796.67 C 2165,4782.67 2165,4764.67 2173,4750.67 L 2126,4773.67"
         style="fill:#1f497d;fill-opacity:1;fill-rule:evenodd;stroke:none"
         id="path97" /><path
         d="M 2362,4773.67 L 2316,4750.67 C 2323,4764.67 2323,4782.67 2316,4796.67 L 2316,4796.67 L 2362,4773.67"
         style="fill:#1f497d;fill-opacity:1;fill-rule:evenodd;stroke:none"
         id="path99" /><g
         id="g101"
         transform="scale(8.33333,8.33333)"><text
   transform="matrix(0.99941,0,0,-1,250.44,553.52)"
   id="text103"><tspan
     style="font-size:12px;font-variant:normal;font-weight:normal;writing-mode:lr-tb;fill:#000000;fill-opacity:1;fill-rule:nonzero;stroke:none;font-family:LiberationSerif;-inkscape-font-specification:LiberationSerif"
     x="0 6.0035472 12.007094 15.008865 23.651964 32.295063"
     y="0"
     sodipodi:role="line"
     id="tspan105">40 KHz</tspan></text>


</g></g></g></svg>